{
.appVersion = "1356";
DisplayStrings = (
"OÓ/Obreve Ô/Ocircumflexacute/Ocircumflexdotbelow/Ocircumflexgrave/Ocircumflexhookabove/Ocircumflextilde/Odblgrave/dieresiscomb.case/Odieresismacron/dotaccentcomb.case/Odotaccentmacron/Odotbelow Ò/Ohookabove/Ohorn/Ohungarumlaut/Oinvertedbreve/Omacron/Oogonek ØÕ/Otildemacron \012ó/obreve ô/ocircumflexacute/ocircumflexdotbelow/ocircumflexgrave/ocircumflexhookabove/ocircumflextilde/odblgrave ö/odieresismacron/odotaccentmacron/odotbelow ò/ohookabove o/ohorn/ohungarumlaut/oinvertedbreve/omacron/oogonek õ/otildemacron",
"/tcedilla Ç/Scedilla/Tcedilla/scedilla",
"ph/acircumflexhookabove m",
"/circumflexcomb_hookabovecomb"
);
classes = (
{
automatic = 1;

glyphs = (
{
glyphname = .notdef;
lastChange = "2021-07-22 18:30:23 +0000";
layers = (
{
layerId = "5758FC1C-8DB2-4040-8B3F-38A5D3FE42F4";
paths = (
{
closed = 1;
nodes = (
"408 0 LINE",
"415 7 LINE",
"415 532 LINE",
"408 540 LINE",
"47 540 LINE",
"40 531 LINE",
"40 8 LINE",
"47 0 LINE"
);
},
{
closed = 1;
nodes = (
"129 129 LINE",
"206 271 LINE",
"129 411 LINE",
"145 441 LINE",
"223 300 LINE",
"301 441 LINE",
"317 411 LINE",
"240 269 LINE",
"317 129 LINE",
"301 99 LINE",
"223 239 LINE",
"145 99 LINE"
);
},
{
closed = 1;
nodes = (
"55 525 LINE",
"401 525 LINE",
"401 14 LINE",
"55 14 LINE"
);
},
{
closed = 1;
nodes = (
"372 42 LINE",
"372 495 LINE",
"85 495 LINE",
"85 42 LINE"
);
}
);
width = 455;
}
);
note = .notdef;
},
{
glyphname = A;
lastChange = "2021-07-22 18:30:38 +0000";
layers = (
{
anchors = (
{
name = bottom;
position = "{252, 0}";
},
{
name = ogonek;
position = "{526, -60}";
},
{
name = top;
position = "{719, 620}";
}
);
layerId = "5758FC1C-8DB2-4040-8B3F-38A5D3FE42F4";
paths = (
{
closed = 1;
nodes = (
"-40 -204 OFFCURVE",
"-37 -199 OFFCURVE",
"-37 -191 CURVE SMOOTH",
"-37 -180 OFFCURVE",
"-40 -170 OFFCURVE",
"-40 -160 CURVE SMOOTH",
"-40 -157 OFFCURVE",
"-40 -154 OFFCURVE",
"-40 -151 CURVE",
"-24 -61 OFFCURVE",
"41 10 OFFCURVE",
"101 75 CURVE",
"179 20 OFFCURVE",
"353 -13 OFFCURVE",
"447 -22 CURVE",
"453 -58 OFFCURVE",
"471 -72 OFFCURVE",
"506 -72 CURVE SMOOTH",
"523 -72 OFFCURVE",
"539 -66 OFFCURVE",
"553 -57 CURVE SMOOTH",
"562 -51 OFFCURVE",
"583 -24 OFFCURVE",
"583 -13 CURVE SMOOTH",
"583 -8 OFFCURVE",
"579 -8 OFFCURVE",
"575 -8 CURVE SMOOTH",
"565 -8 OFFCURVE",
"555 -9 OFFCURVE",
"545 -9 CURVE SMOOTH",
"528 -9 OFFCURVE",
"512 -8 OFFCURVE",
"496 -7 CURVE",
"495 -2 OFFCURVE",
"495 2 OFFCURVE",
"495 7 CURVE SMOOTH",
"495 79 OFFCURVE",
"508 150 OFFCURVE",
"534 217 CURVE",
"554 235 OFFCURVE",
"594 239 OFFCURVE",
"619 243 CURVE",
"621 244 OFFCURVE",
"633 246 OFFCURVE",
"633 250 CURVE SMOOTH",
"633 254 OFFCURVE",
"625 255 OFFCURVE",
"623 255 CURVE SMOOTH",
"611 256 OFFCURVE",
"598 256 OFFCURVE",
"585 256 CURVE SMOOTH",
"572 256 OFFCURVE",
"560 256 OFFCURVE",
"547 256 CURVE",
"568 309 OFFCURVE",
"593 360 OFFCURVE",
"619 410 CURVE SMOOTH",
"631 431 OFFCURVE",
"644 452 OFFCURVE",
"654 474 CURVE SMOOTH",
"658 483 OFFCURVE",
"656 487 OFFCURVE",
"664 493 CURVE",
"668 495 OFFCURVE",
"671 496 OFFCURVE",
"674 499 CURVE SMOOTH",
"695 519 OFFCURVE",
"718 579 OFFCURVE",
"729 607 CURVE",
"730 608 OFFCURVE",
"730 610 OFFCURVE",
"730 612 CURVE SMOOTH",
"730 619 OFFCURVE",
"725 620 OFFCURVE",
"719 620 CURVE SMOOTH",
"699 620 OFFCURVE",
"663 600 OFFCURVE",
"648 587 CURVE",
"643 584 OFFCURVE",
"640 580 OFFCURVE",
"636 576 CURVE SMOOTH",
"624 565 OFFCURVE",
"610 555 OFFCURVE",
"596 545 CURVE SMOOTH",
"569 523 OFFCURVE",
"542 500 OFFCURVE",
"515 478 CURVE SMOOTH",
"429 407 OFFCURVE",
"344 335 OFFCURVE",
"262 260 CURVE",
"253 260 OFFCURVE",
"240 261 OFFCURVE",
"225 261 CURVE SMOOTH",
"150 261 OFFCURVE",
"21 250 OFFCURVE",
"21 176 CURVE SMOOTH",
"21 141 OFFCURVE",
"53 108 OFFCURVE",
"78 86 CURVE",
"9 16 OFFCURVE",
"-58 -54 OFFCURVE",
"-76 -155 CURVE",
"-76 -159 OFFCURVE",
"-77 -163 OFFCURVE",
"-77 -166 CURVE SMOOTH",
"-77 -181 OFFCURVE",
"-67 -204 OFFCURVE",
"-50 -204 CURVE SMOOTH"
);
},
{
closed = 1;
nodes = (
"81 119 OFFCURVE",
"64 138 OFFCURVE",
"64 160 CURVE SMOOTH",
"64 216 OFFCURVE",
"171 234 OFFCURVE",
"212 234 CURVE SMOOTH",
"219 234 OFFCURVE",
"226 234 OFFCURVE",
"233 233 CURVE",
"187 190 OFFCURVE",
"140 149 OFFCURVE",
"96 105 CURVE"
);
},
{
closed = 1;
nodes = (
"355 6 OFFCURVE",
"189 33 OFFCURVE",
"119 94 CURVE",
"157 133 OFFCURVE",
"203 167 OFFCURVE",
"246 201 CURVE SMOOTH",
"290 235 OFFCURVE",
"387 237 OFFCURVE",
"441 237 CURVE SMOOTH",
"462 237 OFFCURVE",
"484 236 OFFCURVE",
"506 236 CURVE",
"480 161 OFFCURVE",
"446 84 OFFCURVE",
"446 2 CURVE SMOOTH",
"446 -3 LINE"
);
},
{
closed = 1;
nodes = (
"506 -54 OFFCURVE",
"500 -38 OFFCURVE",
"498 -26 CURVE",
"508 -26 OFFCURVE",
"518 -27 OFFCURVE",
"528 -27 CURVE SMOOTH",
"535 -27 OFFCURVE",
"542 -26 OFFCURVE",
"548 -26 CURVE",
"548 -27 LINE SMOOTH",
"548 -39 OFFCURVE",
"533 -54 OFFCURVE",
"521 -54 CURVE SMOOTH"
);
},
{
closed = 1;
nodes = (
"300 258 LINE",
"400 356 OFFCURVE",
"512 452 OFFCURVE",
"628 531 CURVE",
"628 531 OFFCURVE",
"629 531 OFFCURVE",
"629 530 CURVE SMOOTH",
"629 517 OFFCURVE",
"557 362 OFFCURVE",
"547 340 CURVE SMOOTH",
"536 313 OFFCURVE",
"524 285 OFFCURVE",
"514 257 CURVE",
"486 257 LINE",
"461 257 LINE"
);
}
);
width = 575;
}
);
note = A;
unicode = 0041;
},
{
glyphname = AE;
lastChange = "2021-07-22 18:30:38 +0000";
layers = (
{
anchors = (
{
name = bottom;
position = "{584, 0}";
},
{
name = top;
position = "{1006, 620}";
}
);
layerId = "5758FC1C-8DB2-4040-8B3F-38A5D3FE42F4";
paths = (
{
closed = 1;
nodes = (
"-40 -204 OFFCURVE",
"-37 -199 OFFCURVE",
"-37 -191 CURVE SMOOTH",
"-37 -180 OFFCURVE",
"-40 -170 OFFCURVE",
"-40 -160 CURVE SMOOTH",
"-40 -157 OFFCURVE",
"-40 -154 OFFCURVE",
"-40 -151 CURVE",
"-24 -61 OFFCURVE",
"41 10 OFFCURVE",
"101 75 CURVE",
"160 34 OFFCURVE",
"278 4 OFFCURVE",
"349 -8 CURVE",
"352 -9 OFFCURVE",
"356 -9 OFFCURVE",
"360 -9 CURVE SMOOTH",
"362 -9 OFFCURVE",
"370 -9 OFFCURVE",
"370 -5 CURVE SMOOTH",
"370 1 OFFCURVE",
"358 4 OFFCURVE",
"355 5 CURVE SMOOTH",
"340 8 OFFCURVE",
"325 11 OFFCURVE",
"310 14 CURVE SMOOTH",
"250 27 OFFCURVE",
"165 53 OFFCURVE",
"119 94 CURVE",
"157 133 OFFCURVE",
"203 166 OFFCURVE",
"246 201 CURVE SMOOTH",
"280 228 OFFCURVE",
"429 237 OFFCURVE",
"474 240 CURVE",
"461 208 OFFCURVE",
"452 174 OFFCURVE",
"452 139 CURVE SMOOTH",
"452 7 OFFCURVE",
"583 -39 OFFCURVE",
"696 -39 CURVE SMOOTH",
"792 -39 OFFCURVE",
"1067 21 OFFCURVE",
"1127 96 CURVE",
"1127 97 OFFCURVE",
"1128 99 OFFCURVE",
"1128 100 CURVE SMOOTH",
"1128 103 OFFCURVE",
"1127 105 OFFCURVE",
"1127 107 CURVE SMOOTH",
"1127 119 OFFCURVE",
"1168 145 OFFCURVE",
"1168 152 CURVE SMOOTH",
"1168 153 OFFCURVE",
"1168 155 OFFCURVE",
"1167 155 CURVE SMOOTH",
"1163 155 OFFCURVE",
"1155 148 OFFCURVE",
"1153 146 CURVE SMOOTH",
"1036 58 OFFCURVE",
"875 -22 OFFCURVE",
"727 -22 CURVE SMOOTH",
"623 -22 OFFCURVE",
"523 19 OFFCURVE",
"523 137 CURVE SMOOTH",
"523 174 OFFCURVE",
"533 210 OFFCURVE",
"547 244 CURVE",
"649 249 OFFCURVE",
"752 252 OFFCURVE",
"855 254 CURVE SMOOTH",
"891 255 OFFCURVE",
"927 256 OFFCURVE",
"963 258 CURVE SMOOTH",
"979 259 OFFCURVE",
"998 258 OFFCURVE",
"1013 262 CURVE SMOOTH",
"1020 263 OFFCURVE",
"1038 271 OFFCURVE",
"1038 279 CURVE SMOOTH",
"1038 283 OFFCURVE",
"1033 283 OFFCURVE",
"1030 283 CURVE SMOOTH",
"1028 283 OFFCURVE",
"1027 283 OFFCURVE",
"1026 283 CURVE SMOOTH",
"871 283 OFFCURVE",
"715 276 OFFCURVE",
"560 273 CURVE",
"647 446 OFFCURVE",
"858 596 OFFCURVE",
"1055 596 CURVE SMOOTH",
"1101 596 OFFCURVE",
"1142 581 OFFCURVE",
"1166 539 CURVE",
"1155 521 OFFCURVE",
"1129 482 OFFCURVE",
"1129 461 CURVE SMOOTH",
"1129 452 OFFCURVE",
"1138 451 OFFCURVE",
"1146 451 CURVE SMOOTH",
"1156 451 OFFCURVE",
"1163 454 OFFCURVE",
"1170 461 CURVE SMOOTH",
"1175 467 OFFCURVE",
"1187 483 OFFCURVE",
"1187 492 CURVE SMOOTH",
"1187 497 OFFCURVE",
"1190 502 OFFCURVE",
"1192 506 CURVE",
"1195 502 OFFCURVE",
"1206 478 OFFCURVE",
"1206 478 CURVE",
"1214 481 OFFCURVE",
"1218 499 OFFCURVE",
"1218 506 CURVE SMOOTH",
"1218 517 OFFCURVE",
"1207 539 OFFCURVE",
"1201 549 CURVE",
"1208 562 OFFCURVE",
"1233 613 OFFCURVE",
"1233 625 CURVE SMOOTH",
"1233 629 OFFCURVE",
"1232 637 OFFCURVE",
"1226 637 CURVE SMOOTH",
"1219 637 OFFCURVE",
"1213 627 OFFCURVE",
"1213 620 CURVE SMOOTH",
"1213 609 OFFCURVE",
"1194 580 OFFCURVE",
"1186 570 CURVE",
"1164 604 OFFCURVE",
"1099 617 OFFCURVE",
"1061 617 CURVE SMOOTH",
"1058 617 OFFCURVE",
"1054 617 OFFCURVE",
"1051 616 CURVE",
"901 607 OFFCURVE",
"760 550 OFFCURVE",
"644 456 CURVE",
"649 464 OFFCURVE",
"658 489 OFFCURVE",
"664 493 CURVE SMOOTH",
"669 496 OFFCURVE",
"672 497 OFFCURVE",
"676 502 CURVE SMOOTH",
"697 524 OFFCURVE",
"717 577 OFFCURVE",
"729 607 CURVE",
"730 608 OFFCURVE",
"730 610 OFFCURVE",
"730 612 CURVE SMOOTH",
"730 619 OFFCURVE",
"725 620 OFFCURVE",
"719 620 CURVE SMOOTH",
"698 620 OFFCURVE",
"661 599 OFFCURVE",
"645 585 CURVE SMOOTH",
"636 577 OFFCURVE",
"646 584 OFFCURVE",
"636 576 CURVE SMOOTH",
"624 565 OFFCURVE",
"610 555 OFFCURVE",
"596 545 CURVE SMOOTH",
"569 523 OFFCURVE",
"542 500 OFFCURVE",
"515 478 CURVE SMOOTH",
"429 407 OFFCURVE",
"344 335 OFFCURVE",
"262 260 CURVE",
"253 260 OFFCURVE",
"240 261 OFFCURVE",
"225 261 CURVE SMOOTH",
"150 261 OFFCURVE",
"21 250 OFFCURVE",
"21 176 CURVE SMOOTH",
"21 141 OFFCURVE",
"53 108 OFFCURVE",
"78 86 CURVE",
"9 16 OFFCURVE",
"-58 -54 OFFCURVE",
"-76 -155 CURVE",
"-76 -159 OFFCURVE",
"-77 -163 OFFCURVE",
"-77 -166 CURVE SMOOTH",
"-77 -181 OFFCURVE",
"-67 -204 OFFCURVE",
"-50 -204 CURVE SMOOTH"
);
},
{
closed = 1;
nodes = (
"81 119 OFFCURVE",
"64 138 OFFCURVE",
"64 160 CURVE SMOOTH",
"64 216 OFFCURVE",
"171 234 OFFCURVE",
"212 234 CURVE SMOOTH",
"219 234 OFFCURVE",
"226 234 OFFCURVE",
"233 233 CURVE",
"187 190 OFFCURVE",
"140 149 OFFCURVE",
"96 105 CURVE"
);
},
{
closed = 1;
nodes = (
"400 356 OFFCURVE",
"512 452 OFFCURVE",
"628 531 CURVE",
"628 531 OFFCURVE",
"629 531 OFFCURVE",
"629 530 CURVE SMOOTH",
"629 521 OFFCURVE",
"565 384 OFFCURVE",
"559 374 CURVE SMOOTH",
"554 365 OFFCURVE",
"545 358 OFFCURVE",
"539 349 CURVE SMOOTH",
"520 326 OFFCURVE",
"504 300 OFFCURVE",
"490 274 CURVE",
"426 272 OFFCURVE",
"363 258 OFFCURVE",
"300 258 CURVE"
);
}
);
width = 1168;
}
);
note = AE;
unicode = 00C6;
},
{
glyphname = B;
lastChange = "2021-07-22 18:30:38 +0000";
layers = (
{
layerId = "5758FC1C-8DB2-4040-8B3F-38A5D3FE42F4";
paths = (
{
closed = 1;
nodes = (
"153 -118 OFFCURVE",
"218 -105 OFFCURVE",
"218 -96 CURVE SMOOTH",
"218 -94 OFFCURVE",
"211 -94 OFFCURVE",
"211 -94 CURVE",
"199 -94 OFFCURVE",
"188 -99 OFFCURVE",
"176 -99 CURVE SMOOTH",
"161 -99 OFFCURVE",
"159 -81 OFFCURVE",
"159 -70 CURVE SMOOTH",
"159 -51 OFFCURVE",
"164 -30 OFFCURVE",
"170 -12 CURVE SMOOTH",
"226 183 OFFCURVE",
"410 427 OFFCURVE",
"543 582 CURVE",
"600 573 OFFCURVE",
"700 549 OFFCURVE",
"700 474 CURVE SMOOTH",
"700 393 OFFCURVE",
"589 323 OFFCURVE",
"522 297 CURVE SMOOTH",
"487 283 OFFCURVE",
"450 275 OFFCURVE",
"413 272 CURVE SMOOTH",
"404 271 OFFCURVE",
"341 267 OFFCURVE",
"341 252 CURVE SMOOTH",
"341 238 OFFCURVE",
"385 236 OFFCURVE",
"393 236 CURVE SMOOTH",
"418 236 OFFCURVE",
"444 241 OFFCURVE",
"467 251 CURVE",
"511 246 OFFCURVE",
"562 231 OFFCURVE",
"562 177 CURVE SMOOTH",
"562 169 OFFCURVE",
"560 161 OFFCURVE",
"558 154 CURVE",
"504 153 OFFCURVE",
"406 133 OFFCURVE",
"355 110 CURVE SMOOTH",
"309 89 OFFCURVE",
"219 34 OFFCURVE",
"219 -26 CURVE SMOOTH",
"219 -61 OFFCURVE",
"256 -70 OFFCURVE",
"285 -70 CURVE SMOOTH",
"389 -70 OFFCURVE",
"567 27 OFFCURVE",
"616 119 CURVE",
"627 111 OFFCURVE",
"629 103 OFFCURVE",
"630 91 CURVE",
"631 89 OFFCURVE",
"631 82 OFFCURVE",
"634 82 CURVE SMOOTH",
"640 82 OFFCURVE",
"642 98 OFFCURVE",
"642 101 CURVE SMOOTH",
"642 116 OFFCURVE",
"637 129 OFFCURVE",
"624 138 CURVE",
"627 147 OFFCURVE",
"629 156 OFFCURVE",
"629 165 CURVE SMOOTH",
"629 207 OFFCURVE",
"593 232 OFFCURVE",
"559 248 CURVE SMOOTH",
"536 258 OFFCURVE",
"515 261 OFFCURVE",
"491 262 CURVE",
"587 269 OFFCURVE",
"762 385 OFFCURVE",
"762 491 CURVE SMOOTH",
"762 581 OFFCURVE",
"629 601 OFFCURVE",
"564 606 CURVE",
"567 610 OFFCURVE",
"578 620 OFFCURVE",
"578 625 CURVE SMOOTH",
"578 633 OFFCURVE",
"562 634 OFFCURVE",
"558 634 CURVE SMOOTH",
"542 634 OFFCURVE",
"518 628 OFFCURVE",
"505 618 CURVE",
"505 617 OFFCURVE",
"500 610 OFFCURVE",
"499 609 CURVE",
"362 611 OFFCURVE",
"135 582 OFFCURVE",
"43 468 CURVE SMOOTH",
"23 443 OFFCURVE",
"9 412 OFFCURVE",
"9 380 CURVE SMOOTH",
"9 349 OFFCURVE",
"26 307 OFFCURVE",
"63 307 CURVE SMOOTH",
"65 307 OFFCURVE",
"67 307 OFFCURVE",
"67 309 CURVE SMOOTH",
"67 318 OFFCURVE",
"41 323 OFFCURVE",
"41 355 CURVE SMOOTH",
"41 390 OFFCURVE",
"68 431 OFFCURVE",
"90 456 CURVE SMOOTH",
"177 554 OFFCURVE",
"324 588 OFFCURVE",
"450 588 CURVE SMOOTH",
"461 588 OFFCURVE",
"471 588 OFFCURVE",
"482 587 CURVE",
"473 575 OFFCURVE",
"441 543 OFFCURVE",
"443 527 CURVE",
"356 416 OFFCURVE",
"97 53 OFFCURVE",
"97 -73 CURVE SMOOTH",
"97 -102 OFFCURVE",
"111 -118 OFFCURVE",
"141 -118 CURVE SMOOTH"
);
},
{
closed = 1;
nodes = (
"286 -45 OFFCURVE",
"265 -38 OFFCURVE",
"265 -16 CURVE SMOOTH",
"265 24 OFFCURVE",
"323 67 OFFCURVE",
"354 85 CURVE SMOOTH",
"402 113 OFFCURVE",
"496 134 OFFCURVE",
"551 135 CURVE",
"517 59 OFFCURVE",
"390 -45 OFFCURVE",
"305 -45 CURVE SMOOTH"
);
}
);
width = 662;
}
);
note = B;
unicode = 0042;
},
{
glyphname = C;
lastChange = "2021-07-22 18:30:38 +0000";
layers = (
{
anchors = (
{
name = bottom;
position = "{240, -33}";
},
{
name = top;
position = "{629, 620}";
}
);
layerId = "5758FC1C-8DB2-4040-8B3F-38A5D3FE42F4";
paths = (
{
closed = 1;
nodes = (
"409 -40 OFFCURVE",
"533 6 OFFCURVE",
"647 84 CURVE SMOOTH",
"669 98 OFFCURVE",
"692 114 OFFCURVE",
"711 131 CURVE SMOOTH",
"716 135 OFFCURVE",
"721 143 OFFCURVE",
"721 149 CURVE SMOOTH",
"721 151 OFFCURVE",
"720 152 OFFCURVE",
"718 152 CURVE SMOOTH",
"714 152 OFFCURVE",
"709 148 OFFCURVE",
"706 146 CURVE SMOOTH",
"588 58 OFFCURVE",
"430 -22 OFFCURVE",
"279 -22 CURVE SMOOTH",
"176 -22 OFFCURVE",
"76 19 OFFCURVE",
"76 137 CURVE SMOOTH",
"76 263 OFFCURVE",
"184 396 OFFCURVE",
"278 470 CURVE SMOOTH",
"320 502 OFFCURVE",
"365 530 OFFCURVE",
"413 551 CURVE SMOOTH",
"472 577 OFFCURVE",
"532 591 OFFCURVE",
"596 595 CURVE",
"600 596 OFFCURVE",
"604 596 OFFCURVE",
"608 596 CURVE SMOOTH",
"654 596 OFFCURVE",
"695 581 OFFCURVE",
"719 539 CURVE",
"703 514 OFFCURVE",
"631 437 OFFCURVE",
"631 417 CURVE SMOOTH",
"631 410 OFFCURVE",
"668 405 OFFCURVE",
"674 405 CURVE SMOOTH",
"681 405 OFFCURVE",
"689 406 OFFCURVE",
"694 411 CURVE SMOOTH",
"715 434 OFFCURVE",
"731 479 OFFCURVE",
"745 506 CURVE",
"748 502 OFFCURVE",
"759 478 OFFCURVE",
"759 478 CURVE",
"767 482 OFFCURVE",
"771 498 OFFCURVE",
"771 506 CURVE SMOOTH",
"771 517 OFFCURVE",
"760 539 OFFCURVE",
"754 549 CURVE",
"760 562 OFFCURVE",
"786 613 OFFCURVE",
"786 625 CURVE SMOOTH",
"786 629 OFFCURVE",
"785 637 OFFCURVE",
"779 637 CURVE SMOOTH",
"772 637 OFFCURVE",
"766 627 OFFCURVE",
"766 620 CURVE SMOOTH",
"766 609 OFFCURVE",
"747 580 OFFCURVE",
"739 570 CURVE",
"717 604 OFFCURVE",
"652 617 OFFCURVE",
"614 617 CURVE SMOOTH",
"611 617 OFFCURVE",
"607 617 OFFCURVE",
"604 616 CURVE",
"530 611 OFFCURVE",
"460 596 OFFCURVE",
"391 569 CURVE SMOOTH",
"336 548 OFFCURVE",
"283 519 OFFCURVE",
"235 485 CURVE SMOOTH",
"131 411 OFFCURVE",
"5 275 OFFCURVE",
"5 139 CURVE SMOOTH",
"5 -6 OFFCURVE",
"152 -40 OFFCURVE",
"270 -40 CURVE SMOOTH"
);
}
);
width = 682;
}
);
note = C;
unicode = 0043;
},
{
glyphname = D;
lastChange = "2021-07-22 18:30:38 +0000";
layers = (
{
anchors = (
{
name = bottom;
position = "{453, 0}";
},
{
name = center;
position = "{453, 310}";
},
{
name = top;
position = "{768, 576}";
}
);
layerId = "5758FC1C-8DB2-4040-8B3F-38A5D3FE42F4";
paths = (
{
closed = 1;
nodes = (
"225 -115 OFFCURVE",
"255 -106 OFFCURVE",
"273 -98 CURVE SMOOTH",
"287 -91 OFFCURVE",
"303 -74 OFFCURVE",
"306 -59 CURVE SMOOTH",
"306 -58 OFFCURVE",
"307 -57 OFFCURVE",
"307 -56 CURVE SMOOTH",
"307 -54 OFFCURVE",
"306 -53 OFFCURVE",
"305 -53 CURVE SMOOTH",
"297 -53 OFFCURVE",
"268 -95 OFFCURVE",
"241 -95 CURVE SMOOTH",
"226 -95 OFFCURVE",
"224 -77 OFFCURVE",
"224 -66 CURVE SMOOTH",
"224 -55 OFFCURVE",
"226 -44 OFFCURVE",
"228 -32 CURVE",
"246 -34 OFFCURVE",
"264 -35 OFFCURVE",
"281 -35 CURVE SMOOTH",
"382 -35 OFFCURVE",
"493 -10 OFFCURVE",
"586 29 CURVE SMOOTH",
"715 84 OFFCURVE",
"926 199 OFFCURVE",
"926 364 CURVE SMOOTH",
"926 514 OFFCURVE",
"751 585 OFFCURVE",
"626 606 CURVE",
"630 610 OFFCURVE",
"641 620 OFFCURVE",
"641 625 CURVE SMOOTH",
"641 634 OFFCURVE",
"624 635 OFFCURVE",
"618 635 CURVE SMOOTH",
"603 635 OFFCURVE",
"572 629 OFFCURVE",
"564 613 CURVE",
"541 615 OFFCURVE",
"518 616 OFFCURVE",
"494 616 CURVE SMOOTH",
"437 616 OFFCURVE",
"379 611 OFFCURVE",
"323 602 CURVE SMOOTH",
"239 588 OFFCURVE",
"37 540 OFFCURVE",
"37 426 CURVE SMOOTH",
"37 370 OFFCURVE",
"92 319 OFFCURVE",
"135 291 CURVE SMOOTH",
"139 289 OFFCURVE",
"145 286 OFFCURVE",
"150 286 CURVE SMOOTH",
"152 286 OFFCURVE",
"154 286 OFFCURVE",
"154 288 CURVE SMOOTH",
"154 295 OFFCURVE",
"85 338 OFFCURVE",
"85 405 CURVE SMOOTH",
"85 515 OFFCURVE",
"245 567 OFFCURVE",
"331 582 CURVE SMOOTH",
"383 591 OFFCURVE",
"437 596 OFFCURVE",
"490 596 CURVE SMOOTH",
"510 596 OFFCURVE",
"529 595 OFFCURVE",
"549 594 CURVE",
"539 581 OFFCURVE",
"505 545 OFFCURVE",
"507 529 CURVE",
"484 503 OFFCURVE",
"464 474 OFFCURVE",
"443 446 CURVE SMOOTH",
"405 393 OFFCURVE",
"367 339 OFFCURVE",
"331 284 CURVE",
"253 264 OFFCURVE",
"142 226 OFFCURVE",
"83 170 CURVE SMOOTH",
"59 148 OFFCURVE",
"31 117 OFFCURVE",
"31 82 CURVE SMOOTH",
"31 20 OFFCURVE",
"120 -11 OFFCURVE",
"169 -22 CURVE",
"164 -38 OFFCURVE",
"161 -54 OFFCURVE",
"161 -70 CURVE SMOOTH",
"161 -99 OFFCURVE",
"174 -115 OFFCURVE",
"204 -115 CURVE SMOOTH"
);
},
{
closed = 1;
nodes = (
"134 6 OFFCURVE",
"79 35 OFFCURVE",
"79 84 CURVE SMOOTH",
"79 166 OFFCURVE",
"246 230 OFFCURVE",
"311 253 CURVE",
"260 172 OFFCURVE",
"206 87 OFFCURVE",
"175 -4 CURVE"
);
},
{
closed = 1;
nodes = (
"259 85 OFFCURVE",
"319 190 OFFCURVE",
"372 272 CURVE",
"462 299 OFFCURVE",
"552 316 OFFCURVE",
"645 323 CURVE SMOOTH",
"646 323 OFFCURVE",
"656 324 OFFCURVE",
"656 328 CURVE SMOOTH",
"656 330 OFFCURVE",
"647 330 OFFCURVE",
"647 330 CURVE",
"561 330 OFFCURVE",
"473 317 OFFCURVE",
"390 299 CURVE",
"456 399 OFFCURVE",
"531 495 OFFCURVE",
"610 587 CURVE",
"716 570 OFFCURVE",
"883 510 OFFCURVE",
"883 379 CURVE SMOOTH",
"883 233 OFFCURVE",
"672 121 OFFCURVE",
"561 70 CURVE SMOOTH",
"469 28 OFFCURVE",
"342 -11 OFFCURVE",
"239 -11 CURVE SMOOTH",
"233 -11 LINE"
);
}
);
width = 905;
}
);
note = D;
unicode = 0044;
},
{
glyphname = Eth;
lastChange = "2021-07-22 18:30:38 +0000";
layers = (
{
layerId = "5758FC1C-8DB2-4040-8B3F-38A5D3FE42F4";
paths = (
{
closed = 1;
nodes = (
"225 -115 OFFCURVE",
"255 -106 OFFCURVE",
"273 -98 CURVE SMOOTH",
"287 -91 OFFCURVE",
"303 -74 OFFCURVE",
"306 -59 CURVE SMOOTH",
"306 -58 OFFCURVE",
"307 -57 OFFCURVE",
"307 -56 CURVE SMOOTH",
"307 -54 OFFCURVE",
"306 -53 OFFCURVE",
"305 -53 CURVE SMOOTH",
"297 -53 OFFCURVE",
"268 -95 OFFCURVE",
"241 -95 CURVE SMOOTH",
"226 -95 OFFCURVE",
"224 -77 OFFCURVE",
"224 -66 CURVE SMOOTH",
"224 -55 OFFCURVE",
"226 -44 OFFCURVE",
"228 -32 CURVE",
"246 -34 OFFCURVE",
"264 -35 OFFCURVE",
"281 -35 CURVE SMOOTH",
"382 -35 OFFCURVE",
"493 -10 OFFCURVE",
"586 29 CURVE SMOOTH",
"715 84 OFFCURVE",
"926 199 OFFCURVE",
"926 364 CURVE SMOOTH",
"926 514 OFFCURVE",
"751 585 OFFCURVE",
"626 606 CURVE",
"630 610 OFFCURVE",
"641 620 OFFCURVE",
"641 625 CURVE SMOOTH",
"641 634 OFFCURVE",
"624 635 OFFCURVE",
"618 635 CURVE SMOOTH",
"603 635 OFFCURVE",
"572 629 OFFCURVE",
"564 613 CURVE",
"541 615 OFFCURVE",
"518 616 OFFCURVE",
"494 616 CURVE SMOOTH",
"437 616 OFFCURVE",
"379 611 OFFCURVE",
"323 602 CURVE SMOOTH",
"239 588 OFFCURVE",
"37 540 OFFCURVE",
"37 426 CURVE SMOOTH",
"37 370 OFFCURVE",
"92 319 OFFCURVE",
"135 291 CURVE SMOOTH",
"139 289 OFFCURVE",
"145 286 OFFCURVE",
"150 286 CURVE SMOOTH",
"152 286 OFFCURVE",
"154 286 OFFCURVE",
"154 288 CURVE SMOOTH",
"154 295 OFFCURVE",
"85 338 OFFCURVE",
"85 405 CURVE SMOOTH",
"85 515 OFFCURVE",
"245 567 OFFCURVE",
"331 582 CURVE SMOOTH",
"383 591 OFFCURVE",
"437 596 OFFCURVE",
"490 596 CURVE SMOOTH",
"510 596 OFFCURVE",
"529 595 OFFCURVE",
"549 594 CURVE",
"539 581 OFFCURVE",
"505 545 OFFCURVE",
"507 529 CURVE",
"484 503 OFFCURVE",
"464 474 OFFCURVE",
"443 446 CURVE SMOOTH",
"405 393 OFFCURVE",
"256 190 OFFCURVE",
"175 -4 CURVE",
"148 3 OFFCURVE",
"115 18 OFFCURVE",
"95 41 CURVE",
"85 46 OFFCURVE",
"78 48 OFFCURVE",
"72 48 CURVE SMOOTH",
"65 48 OFFCURVE",
"61 44 OFFCURVE",
"61 38 CURVE SMOOTH",
"61 33 OFFCURVE",
"65 25 OFFCURVE",
"71 18 CURVE",
"101 -3 OFFCURVE",
"141 -16 OFFCURVE",
"169 -22 CURVE",
"164 -38 OFFCURVE",
"161 -54 OFFCURVE",
"161 -70 CURVE SMOOTH",
"161 -99 OFFCURVE",
"174 -115 OFFCURVE",
"204 -115 CURVE SMOOTH"
);
},
{
closed = 1;
nodes = (
"195.722 137.269 OFFCURVE",
"219.065 143.385 OFFCURVE",
"243.964 147.462 CURVE SMOOTH",
"296.876 153.577 OFFCURVE",
"351.343 157.654 OFFCURVE",
"405.811 157.654 CURVE SMOOTH",
"408.923 157.654 OFFCURVE",
"415.148 159.692 OFFCURVE",
"415.148 165.808 CURVE SMOOTH",
"415.148 186.192 OFFCURVE",
"301.544 190.269 OFFCURVE",
"281.314 190.269 CURVE SMOOTH",
"239.296 190.269 OFFCURVE",
"195.722 186.192 OFFCURVE",
"153.704 180.077 CURVE",
"152.148 178.038 LINE",
"152.148 167.846 OFFCURVE",
"161.485 137.269 OFFCURVE",
"170.822 137.269 CURVE SMOOTH"
);
},
{
closed = 1;
nodes = (
"259 85 OFFCURVE",
"319 190 OFFCURVE",
"372 272 CURVE SMOOTH",
"390 299 LINE SMOOTH",
"456 399 OFFCURVE",
"531 495 OFFCURVE",
"610 587 CURVE",
"716 570 OFFCURVE",
"883 510 OFFCURVE",
"883 379 CURVE SMOOTH",
"883 233 OFFCURVE",
"672 121 OFFCURVE",
"561 70 CURVE SMOOTH",
"469 28 OFFCURVE",
"342 -11 OFFCURVE",
"239 -11 CURVE SMOOTH",
"233 -11 LINE"
);
}
);
width = 905;
}
);
unicode = 00D0;
},
{
color = 11;
glyphname = Dcroat;
lastChange = "2021-07-22 18:30:38 +0000";
layers = (
{
layerId = "5758FC1C-8DB2-4040-8B3F-38A5D3FE42F4";
paths = (
{
closed = 1;
nodes = (
"225 -115 OFFCURVE",
"255 -106 OFFCURVE",
"273 -98 CURVE SMOOTH",
"287 -91 OFFCURVE",
"303 -74 OFFCURVE",
"306 -59 CURVE SMOOTH",
"306 -58 OFFCURVE",
"307 -57 OFFCURVE",
"307 -56 CURVE SMOOTH",
"307 -54 OFFCURVE",
"306 -53 OFFCURVE",
"305 -53 CURVE SMOOTH",
"297 -53 OFFCURVE",
"268 -95 OFFCURVE",
"241 -95 CURVE SMOOTH",
"226 -95 OFFCURVE",
"224 -77 OFFCURVE",
"224 -66 CURVE SMOOTH",
"224 -55 OFFCURVE",
"226 -44 OFFCURVE",
"228 -32 CURVE",
"246 -34 OFFCURVE",
"264 -35 OFFCURVE",
"281 -35 CURVE SMOOTH",
"382 -35 OFFCURVE",
"493 -10 OFFCURVE",
"586 29 CURVE SMOOTH",
"715 84 OFFCURVE",
"926 199 OFFCURVE",
"926 364 CURVE SMOOTH",
"926 514 OFFCURVE",
"751 585 OFFCURVE",
"626 606 CURVE",
"630 610 OFFCURVE",
"641 620 OFFCURVE",
"641 625 CURVE SMOOTH",
"641 634 OFFCURVE",
"624 635 OFFCURVE",
"618 635 CURVE SMOOTH",
"603 635 OFFCURVE",
"572 629 OFFCURVE",
"564 613 CURVE",
"541 615 OFFCURVE",
"518 616 OFFCURVE",
"494 616 CURVE SMOOTH",
"437 616 OFFCURVE",
"379 611 OFFCURVE",
"323 602 CURVE SMOOTH",
"239 588 OFFCURVE",
"37 540 OFFCURVE",
"37 426 CURVE SMOOTH",
"37 370 OFFCURVE",
"92 319 OFFCURVE",
"135 291 CURVE SMOOTH",
"139 289 OFFCURVE",
"145 286 OFFCURVE",
"150 286 CURVE SMOOTH",
"152 286 OFFCURVE",
"154 286 OFFCURVE",
"154 288 CURVE SMOOTH",
"154 295 OFFCURVE",
"85 338 OFFCURVE",
"85 405 CURVE SMOOTH",
"85 515 OFFCURVE",
"245 567 OFFCURVE",
"331 582 CURVE SMOOTH",
"383 591 OFFCURVE",
"437 596 OFFCURVE",
"490 596 CURVE SMOOTH",
"510 596 OFFCURVE",
"529 595 OFFCURVE",
"549 594 CURVE",
"539 581 OFFCURVE",
"505 545 OFFCURVE",
"507 529 CURVE",
"484 503 OFFCURVE",
"464 474 OFFCURVE",
"443 446 CURVE SMOOTH",
"405 393 OFFCURVE",
"256 190 OFFCURVE",
"175 -4 CURVE",
"148 3 OFFCURVE",
"115 18 OFFCURVE",
"95 41 CURVE",
"85 46 OFFCURVE",
"78 48 OFFCURVE",
"72 48 CURVE SMOOTH",
"65 48 OFFCURVE",
"61 44 OFFCURVE",
"61 38 CURVE SMOOTH",
"61 33 OFFCURVE",
"65 25 OFFCURVE",
"71 18 CURVE",
"101 -3 OFFCURVE",
"141 -16 OFFCURVE",
"169 -22 CURVE",
"164 -38 OFFCURVE",
"161 -54 OFFCURVE",
"161 -70 CURVE SMOOTH",
"161 -99 OFFCURVE",
"174 -115 OFFCURVE",
"204 -115 CURVE SMOOTH"
);
},
{
closed = 1;
nodes = (
"242 240 OFFCURVE",
"270 245 OFFCURVE",
"300 249 CURVE SMOOTH",
"365 256 OFFCURVE",
"430 258 OFFCURVE",
"498 258 CURVE SMOOTH",
"501 258 OFFCURVE",
"509 260 OFFCURVE",
"509 265 CURVE SMOOTH",
"509 283 OFFCURVE",
"371 286 OFFCURVE",
"345 286 CURVE SMOOTH",
"294 286 OFFCURVE",
"242 283 OFFCURVE",
"190 277 CURVE",
"188 276 LINE",
"188 267 OFFCURVE",
"200 240 OFFCURVE",
"211 240 CURVE SMOOTH"
);
},
{
closed = 1;
nodes = (
"259 85 OFFCURVE",
"319 190 OFFCURVE",
"372 272 CURVE SMOOTH",
"390 299 LINE SMOOTH",
"456 399 OFFCURVE",
"531 495 OFFCURVE",
"610 587 CURVE",
"716 570 OFFCURVE",
"883 510 OFFCURVE",
"883 379 CURVE SMOOTH",
"883 233 OFFCURVE",
"672 121 OFFCURVE",
"561 70 CURVE SMOOTH",
"469 28 OFFCURVE",
"342 -11 OFFCURVE",
"239 -11 CURVE SMOOTH",
"233 -11 LINE"
);
}
);
width = 905;
}
);
unicode = 0110;
},
{
glyphname = E;
lastChange = "2021-07-22 18:30:38 +0000";
layers = (
{
anchors = (
{
name = bottom;
position = "{269, -33}";
},
{
name = ogonek;
position = "{587, 21}";
},
{
name = top;
position = "{667, 620}";
},
{
name = topleft;
position = "{20, 620}";
}
);
layerId = "5758FC1C-8DB2-4040-8B3F-38A5D3FE42F4";
paths = (
{
closed = 1;
nodes = (
"385 -39 OFFCURVE",
"659 21 OFFCURVE",
"719 96 CURVE SMOOTH",
"720 97 OFFCURVE",
"721 99 OFFCURVE",
"721 100 CURVE SMOOTH",
"721 103 OFFCURVE",
"720 105 OFFCURVE",
"720 107 CURVE SMOOTH",
"720 119 OFFCURVE",
"760 145 OFFCURVE",
"760 152 CURVE SMOOTH",
"760 153 OFFCURVE",
"760 155 OFFCURVE",
"759 155 CURVE SMOOTH",
"756 155 OFFCURVE",
"748 148 OFFCURVE",
"745 146 CURVE SMOOTH",
"629 58 OFFCURVE",
"468 -22 OFFCURVE",
"319 -22 CURVE SMOOTH",
"241 -22 OFFCURVE",
"150 2 OFFCURVE",
"123 85 CURVE",
"183 72 OFFCURVE",
"247 66 OFFCURVE",
"309 66 CURVE SMOOTH",
"311 66 OFFCURVE",
"338 67 OFFCURVE",
"338 73 CURVE SMOOTH",
"338 75 OFFCURVE",
"332 75 OFFCURVE",
"331 75 CURVE SMOOTH",
"325 75 OFFCURVE",
"319 74 OFFCURVE",
"312 74 CURVE SMOOTH",
"249 74 OFFCURVE",
"178 90 OFFCURVE",
"118 107 CURVE",
"116 117 OFFCURVE",
"115 127 OFFCURVE",
"115 137 CURVE SMOOTH",
"115 195 OFFCURVE",
"140 254 OFFCURVE",
"169 303 CURVE",
"178 305 OFFCURVE",
"187 307 OFFCURVE",
"197 309 CURVE SMOOTH",
"235 315 OFFCURVE",
"274 318 OFFCURVE",
"312 321 CURVE SMOOTH",
"383 327 OFFCURVE",
"454 331 OFFCURVE",
"525 335 CURVE SMOOTH",
"560 337 OFFCURVE",
"595 338 OFFCURVE",
"629 341 CURVE SMOOTH",
"634 341 OFFCURVE",
"660 346 OFFCURVE",
"660 352 CURVE SMOOTH",
"660 356 OFFCURVE",
"648 358 OFFCURVE",
"647 358 CURVE SMOOTH",
"629 362 OFFCURVE",
"608 363 OFFCURVE",
"588 363 CURVE SMOOTH",
"576 363 OFFCURVE",
"565 363 OFFCURVE",
"554 363 CURVE SMOOTH",
"452 363 OFFCURVE",
"349 357 OFFCURVE",
"248 350 CURVE SMOOTH",
"231 349 OFFCURVE",
"214 347 OFFCURVE",
"197 345 CURVE",
"296 481 OFFCURVE",
"474 596 OFFCURVE",
"647 596 CURVE SMOOTH",
"694 596 OFFCURVE",
"735 581 OFFCURVE",
"758 539 CURVE",
"747 521 OFFCURVE",
"721 482 OFFCURVE",
"721 461 CURVE SMOOTH",
"721 452 OFFCURVE",
"731 451 OFFCURVE",
"739 451 CURVE SMOOTH",
"748 451 OFFCURVE",
"756 454 OFFCURVE",
"762 461 CURVE SMOOTH",
"768 467 OFFCURVE",
"780 483 OFFCURVE",
"780 492 CURVE SMOOTH",
"780 497 OFFCURVE",
"782 502 OFFCURVE",
"785 506 CURVE",
"790 498 OFFCURVE",
"794 491 OFFCURVE",
"796 482 CURVE",
"797 480 OFFCURVE",
"797 478 OFFCURVE",
"799 478 CURVE",
"806 480 OFFCURVE",
"811 500 OFFCURVE",
"811 506 CURVE SMOOTH",
"811 517 OFFCURVE",
"799 539 OFFCURVE",
"794 549 CURVE",
"800 562 OFFCURVE",
"825 613 OFFCURVE",
"825 625 CURVE SMOOTH",
"825 629 OFFCURVE",
"825 637 OFFCURVE",
"819 637 CURVE SMOOTH",
"811 637 OFFCURVE",
"805 627 OFFCURVE",
"805 620 CURVE SMOOTH",
"805 609 OFFCURVE",
"786 580 OFFCURVE",
"779 570 CURVE",
"756 604 OFFCURVE",
"691 617 OFFCURVE",
"654 617 CURVE SMOOTH",
"650 617 OFFCURVE",
"647 617 OFFCURVE",
"643 616 CURVE",
"439 603 OFFCURVE",
"237 499 OFFCURVE",
"117 331 CURVE",
"66 319 OFFCURVE",
"-43 284 OFFCURVE",
"-43 216 CURVE SMOOTH",
"-43 170 OFFCURVE",
"9 130 OFFCURVE",
"47 112 CURVE",
"64 -2 OFFCURVE",
"188 -39 OFFCURVE",
"288 -39 CURVE SMOOTH"
);
},
{
closed = 1;
nodes = (
"20 145 OFFCURVE",
"-12 172 OFFCURVE",
"-12 201 CURVE SMOOTH",
"-12 243 OFFCURVE",
"54 270 OFFCURVE",
"86 281 CURVE",
"62 238 OFFCURVE",
"45 189 OFFCURVE",
"45 139 CURVE SMOOTH",
"45 133 LINE"
);
}
);
width = 709;
}
);
note = E;
unicode = 0045;
},
{
glyphname = F;
lastChange = "2021-07-22 18:30:38 +0000";
layers = (
{
layerId = "5758FC1C-8DB2-4040-8B3F-38A5D3FE42F4";
paths = (
{
closed = 1;
nodes = (
"239 -65 OFFCURVE",
"255 -63 OFFCURVE",
"270 -57 CURVE SMOOTH",
"402 -4 OFFCURVE",
"455 92 OFFCURVE",
"527 207 CURVE SMOOTH",
"532 216 OFFCURVE",
"537 224 OFFCURVE",
"542 233 CURVE",
"564 234 OFFCURVE",
"586 235 OFFCURVE",
"608 236 CURVE",
"613 237 OFFCURVE",
"638 239 OFFCURVE",
"638 243 CURVE SMOOTH",
"638 246 OFFCURVE",
"626 248 OFFCURVE",
"625 249 CURVE",
"602 254 OFFCURVE",
"578 255 OFFCURVE",
"554 255 CURVE",
"611 361 OFFCURVE",
"677 527 OFFCURVE",
"820 527 CURVE SMOOTH",
"840 527 OFFCURVE",
"863 524 OFFCURVE",
"882 518 CURVE",
"886 516 OFFCURVE",
"888 514 OFFCURVE",
"888 510 CURVE SMOOTH",
"888 487 OFFCURVE",
"851 441 OFFCURVE",
"851 416 CURVE SMOOTH",
"851 414 OFFCURVE",
"851 412 OFFCURVE",
"854 412 CURVE SMOOTH",
"859 412 OFFCURVE",
"867 423 OFFCURVE",
"870 427 CURVE SMOOTH",
"897 466 OFFCURVE",
"923 519 OFFCURVE",
"966 541 CURVE",
"972 543 OFFCURVE",
"977 545 OFFCURVE",
"977 552 CURVE SMOOTH",
"977 561 OFFCURVE",
"967 572 OFFCURVE",
"957 572 CURVE SMOOTH",
"946 572 OFFCURVE",
"939 546 OFFCURVE",
"905 546 CURVE SMOOTH",
"732 546 OFFCURVE",
"565 610 OFFCURVE",
"390 610 CURVE SMOOTH",
"282 610 OFFCURVE",
"147 587 OFFCURVE",
"112 467 CURVE",
"108 457 OFFCURVE",
"107 446 OFFCURVE",
"107 435 CURVE SMOOTH",
"107 356 OFFCURVE",
"192 309 OFFCURVE",
"257 287 CURVE SMOOTH",
"262 285 OFFCURVE",
"268 283 OFFCURVE",
"274 283 CURVE SMOOTH",
"276 283 OFFCURVE",
"279 283 OFFCURVE",
"279 286 CURVE SMOOTH",
"279 291 OFFCURVE",
"268 296 OFFCURVE",
"264 298 CURVE SMOOTH",
"205 324 OFFCURVE",
"132 379 OFFCURVE",
"132 449 CURVE SMOOTH",
"132 559 OFFCURVE",
"356 565 OFFCURVE",
"429 565 CURVE SMOOTH",
"528 565 OFFCURVE",
"654 556 OFFCURVE",
"750 531 CURVE",
"648 522 OFFCURVE",
"543 340 OFFCURVE",
"496 256 CURVE",
"395 255 OFFCURVE",
"8 250 OFFCURVE",
"8 123 CURVE SMOOTH",
"8 76 OFFCURVE",
"61 34 OFFCURVE",
"100 17 CURVE",
"108 -43 OFFCURVE",
"169 -65 OFFCURVE",
"223 -65 CURVE SMOOTH"
);
},
{
closed = 1;
nodes = (
"170 -46 OFFCURVE",
"143 -30 OFFCURVE",
"131 6 CURVE",
"171 -6 OFFCURVE",
"216 -11 OFFCURVE",
"257 -11 CURVE SMOOTH",
"260 -11 OFFCURVE",
"279 -10 OFFCURVE",
"279 -4 CURVE SMOOTH",
"279 -2 OFFCURVE",
"275 -2 OFFCURVE",
"274 -2 CURVE SMOOTH",
"269 -2 OFFCURVE",
"264 -3 OFFCURVE",
"260 -3 CURVE SMOOTH",
"221 -3 OFFCURVE",
"162 14 OFFCURVE",
"126 27 CURVE",
"125 35 OFFCURVE",
"124 44 OFFCURVE",
"124 52 CURVE SMOOTH",
"124 69 OFFCURVE",
"127 84 OFFCURVE",
"130 101 CURVE SMOOTH",
"130 103 OFFCURVE",
"130 106 OFFCURVE",
"130 109 CURVE SMOOTH",
"130 110 OFFCURVE",
"130 117 OFFCURVE",
"127 117 CURVE SMOOTH",
"111 117 OFFCURVE",
"100 49 OFFCURVE",
"100 38 CURVE",
"72 51 OFFCURVE",
"32 73 OFFCURVE",
"32 108 CURVE SMOOTH",
"32 208 OFFCURVE",
"395 224 OFFCURVE",
"481 229 CURVE",
"430 138 OFFCURVE",
"327 -46 OFFCURVE",
"207 -46 CURVE SMOOTH"
);
}
);
width = 608;
}
);
note = F;
unicode = 0046;
},
{
glyphname = G;
lastChange = "2021-07-22 18:30:38 +0000";
layers = (
{
anchors = (
{
name = bottom;
position = "{204, -34}";
},
{
name = top;
position = "{616, 620}";
}
);
layerId = "5758FC1C-8DB2-4040-8B3F-38A5D3FE42F4";
paths = (
{
closed = 1;
nodes = (
"377 -281 OFFCURVE",
"393 -279 OFFCURVE",
"408 -273 CURVE SMOOTH",
"578 -204 OFFCURVE",
"655 -15 OFFCURVE",
"737 135 CURVE SMOOTH",
"751 159 OFFCURVE",
"764 184 OFFCURVE",
"777 208 CURVE SMOOTH",
"787 227 OFFCURVE",
"797 247 OFFCURVE",
"809 265 CURVE SMOOTH",
"812 269 OFFCURVE",
"816 273 OFFCURVE",
"816 278 CURVE SMOOTH",
"816 287 OFFCURVE",
"802 288 OFFCURVE",
"796 288 CURVE SMOOTH",
"780 288 OFFCURVE",
"757 284 OFFCURVE",
"745 272 CURVE",
"695 278 OFFCURVE",
"644 280 OFFCURVE",
"594 280 CURVE SMOOTH",
"574 280 OFFCURVE",
"554 279 OFFCURVE",
"534 279 CURVE SMOOTH",
"437 277 OFFCURVE",
"364 269 OFFCURVE",
"328 168 CURVE SMOOTH",
"327 165 OFFCURVE",
"327 163 OFFCURVE",
"327 161 CURVE SMOOTH",
"327 158 OFFCURVE",
"328 156 OFFCURVE",
"330 156 CURVE SMOOTH",
"336 156 OFFCURVE",
"340 163 OFFCURVE",
"342 167 CURVE SMOOTH",
"348 179 OFFCURVE",
"353 187 OFFCURVE",
"363 196 CURVE SMOOTH",
"434 253 OFFCURVE",
"642 251 OFFCURVE",
"734 253 CURVE",
"731 242 LINE",
"715 206 OFFCURVE",
"702 168 OFFCURVE",
"687 132 CURVE",
"577 51 OFFCURVE",
"417 -22 OFFCURVE",
"279 -22 CURVE SMOOTH",
"176 -22 OFFCURVE",
"76 19 OFFCURVE",
"76 137 CURVE SMOOTH",
"76 263 OFFCURVE",
"184 396 OFFCURVE",
"278 470 CURVE SMOOTH",
"320 502 OFFCURVE",
"365 530 OFFCURVE",
"413 551 CURVE SMOOTH",
"472 577 OFFCURVE",
"532 591 OFFCURVE",
"596 595 CURVE",
"600 596 OFFCURVE",
"604 596 OFFCURVE",
"608 596 CURVE SMOOTH",
"654 596 OFFCURVE",
"695 581 OFFCURVE",
"719 539 CURVE",
"703 514 OFFCURVE",
"631 437 OFFCURVE",
"631 417 CURVE SMOOTH",
"631 410 OFFCURVE",
"668 405 OFFCURVE",
"674 405 CURVE SMOOTH",
"681 405 OFFCURVE",
"688 406 OFFCURVE",
"694 411 CURVE",
"714 433 OFFCURVE",
"731 479 OFFCURVE",
"745 506 CURVE",
"748 502 OFFCURVE",
"759 478 OFFCURVE",
"759 478 CURVE",
"767 482 OFFCURVE",
"771 498 OFFCURVE",
"771 506 CURVE SMOOTH",
"771 517 OFFCURVE",
"760 539 OFFCURVE",
"754 549 CURVE",
"760 562 OFFCURVE",
"786 613 OFFCURVE",
"786 625 CURVE SMOOTH",
"786 629 OFFCURVE",
"785 637 OFFCURVE",
"779 637 CURVE SMOOTH",
"772 637 OFFCURVE",
"766 627 OFFCURVE",
"766 620 CURVE SMOOTH",
"766 609 OFFCURVE",
"747 580 OFFCURVE",
"739 570 CURVE",
"717 604 OFFCURVE",
"652 617 OFFCURVE",
"614 617 CURVE SMOOTH",
"611 617 OFFCURVE",
"607 617 OFFCURVE",
"604 616 CURVE",
"530 611 OFFCURVE",
"460 596 OFFCURVE",
"391 569 CURVE SMOOTH",
"336 548 OFFCURVE",
"283 519 OFFCURVE",
"235 485 CURVE SMOOTH",
"131 411 OFFCURVE",
"5 275 OFFCURVE",
"5 139 CURVE SMOOTH",
"5 -6 OFFCURVE",
"152 -40 OFFCURVE",
"270 -40 CURVE SMOOTH",
"421 -40 OFFCURVE",
"553 14 OFFCURVE",
"673 102 CURVE",
"629 5 OFFCURVE",
"493 -268 OFFCURVE",
"370 -268 CURVE SMOOTH",
"319 -268 OFFCURVE",
"300 -201 OFFCURVE",
"300 -160 CURVE SMOOTH",
"300 -149 OFFCURVE",
"304 -139 OFFCURVE",
"304 -129 CURVE SMOOTH",
"304 -127 OFFCURVE",
"304 -123 OFFCURVE",
"300 -123 CURVE SMOOTH",
"283 -123 OFFCURVE",
"272 -190 OFFCURVE",
"272 -202 CURVE SMOOTH",
"272 -256 OFFCURVE",
"310 -281 OFFCURVE",
"361 -281 CURVE SMOOTH"
);
}
);
width = 787;
}
);
note = G;
unicode = 0047;
},
{
glyphname = H;
lastChange = "2021-07-22 18:30:38 +0000";
layers = (
{
anchors = (
{
name = bottom;
position = "{399, 0}";
},
{
name = center;
position = "{358, 310}";
},
{
name = top;
position = "{765, 620}";
},
{
name = topleft;
position = "{20, 620}";
}
);
layerId = "5758FC1C-8DB2-4040-8B3F-38A5D3FE42F4";
paths = (
{
closed = 1;
nodes = (
"588 -118 OFFCURVE",
"653 -105 OFFCURVE",
"653 -96 CURVE SMOOTH",
"653 -94 OFFCURVE",
"646 -94 OFFCURVE",
"645 -94 CURVE SMOOTH",
"634 -94 OFFCURVE",
"623 -99 OFFCURVE",
"611 -99 CURVE SMOOTH",
"596 -99 OFFCURVE",
"594 -81 OFFCURVE",
"594 -70 CURVE SMOOTH",
"594 15 OFFCURVE",
"682 172 OFFCURVE",
"727 245 CURVE",
"739 244 OFFCURVE",
"752 243 OFFCURVE",
"764 243 CURVE SMOOTH",
"768 243 OFFCURVE",
"786 247 OFFCURVE",
"786 252 CURVE SMOOTH",
"786 258 OFFCURVE",
"743 260 OFFCURVE",
"737 261 CURVE",
"795 351 OFFCURVE",
"859 438 OFFCURVE",
"926 521 CURVE SMOOTH",
"954 555 OFFCURVE",
"983 587 OFFCURVE",
"1011 620 CURVE",
"1012 622 OFFCURVE",
"1013 624 OFFCURVE",
"1013 625 CURVE SMOOTH",
"1013 633 OFFCURVE",
"997 634 OFFCURVE",
"993 634 CURVE SMOOTH",
"978 634 OFFCURVE",
"951 628 OFFCURVE",
"940 618 CURVE SMOOTH",
"936 614 OFFCURVE",
"934 609 OFFCURVE",
"931 605 CURVE SMOOTH",
"920 590 OFFCURVE",
"891 558 OFFCURVE",
"883 546 CURVE SMOOTH",
"880 541 OFFCURVE",
"878 536 OFFCURVE",
"878 530 CURVE SMOOTH",
"878 529 OFFCURVE",
"878 528 OFFCURVE",
"878 527 CURVE",
"812 443 OFFCURVE",
"750 353 OFFCURVE",
"692 263 CURVE",
"620 267 OFFCURVE",
"548 268 OFFCURVE",
"476 268 CURVE SMOOTH",
"453 268 LINE",
"486 314 OFFCURVE",
"606 483 OFFCURVE",
"606 537 CURVE SMOOTH",
"606 601 OFFCURVE",
"540 614 OFFCURVE",
"488 614 CURVE SMOOTH",
"394 614 OFFCURVE",
"274 574 OFFCURVE",
"193 528 CURVE SMOOTH",
"146 501 OFFCURVE",
"56 441 OFFCURVE",
"56 379 CURVE SMOOTH",
"56 322 OFFCURVE",
"137 303 OFFCURVE",
"181 295 CURVE",
"184 295 OFFCURVE",
"188 294 OFFCURVE",
"192 294 CURVE SMOOTH",
"193 294 OFFCURVE",
"201 294 OFFCURVE",
"201 298 CURVE SMOOTH",
"201 310 OFFCURVE",
"101 322 OFFCURVE",
"101 386 CURVE SMOOTH",
"101 437 OFFCURVE",
"167 483 OFFCURVE",
"205 506 CURVE SMOOTH",
"279 550 OFFCURVE",
"395 590 OFFCURVE",
"481 590 CURVE SMOOTH",
"513 590 OFFCURVE",
"565 584 OFFCURVE",
"565 542 CURVE SMOOTH",
"565 484 OFFCURVE",
"448 317 OFFCURVE",
"414 268 CURVE",
"313 266 OFFCURVE",
"14 258 OFFCURVE",
"14 115 CURVE SMOOTH",
"14 33 OFFCURVE",
"116 -30 OFFCURVE",
"188 -40 CURVE",
"184 -45 OFFCURVE",
"179 -53 OFFCURVE",
"179 -59 CURVE SMOOTH",
"179 -63 OFFCURVE",
"181 -66 OFFCURVE",
"185 -66 CURVE SMOOTH",
"195 -66 OFFCURVE",
"208 -50 OFFCURVE",
"214 -42 CURVE",
"218 -42 OFFCURVE",
"247 -41 OFFCURVE",
"247 -32 CURVE SMOOTH",
"247 -27 OFFCURVE",
"237 -27 OFFCURVE",
"234 -27 CURVE SMOOTH",
"227 -27 LINE",
"298 60 OFFCURVE",
"367 149 OFFCURVE",
"433 240 CURVE",
"498 245 OFFCURVE",
"564 247 OFFCURVE",
"629 247 CURVE SMOOTH",
"646 247 OFFCURVE",
"664 247 OFFCURVE",
"681 246 CURVE",
"637 178 OFFCURVE",
"532 8 OFFCURVE",
"532 -73 CURVE SMOOTH",
"532 -102 OFFCURVE",
"546 -118 OFFCURVE",
"576 -118 CURVE SMOOTH"
);
},
{
closed = 1;
nodes = (
"146 -12 OFFCURVE",
"38 39 OFFCURVE",
"38 104 CURVE SMOOTH",
"38 208 OFFCURVE",
"314 231 OFFCURVE",
"392 238 CURVE",
"329 150 OFFCURVE",
"263 64 OFFCURVE",
"200 -24 CURVE"
);
}
);
width = 716;
}
);
note = H;
unicode = 0048;
},
{
glyphname = I;
lastChange = "2021-07-22 18:30:38 +0000";
layers = (
{
anchors = (
{
name = bottom;
position = "{190, -104}";
},
{
name = ogonek;
position = "{232, -94}";
},
{
name = top;
position = "{621, 620}";
},
{
name = topleft;
position = "{20, 620}";
}
);
layerId = "5758FC1C-8DB2-4040-8B3F-38A5D3FE42F4";
paths = (
{
closed = 1;
nodes = (
"217 -118 OFFCURVE",
"281 -105 OFFCURVE",
"281 -96 CURVE SMOOTH",
"281 -94 OFFCURVE",
"275 -94 OFFCURVE",
"274 -94 CURVE SMOOTH",
"262 -94 OFFCURVE",
"251 -99 OFFCURVE",
"240 -99 CURVE SMOOTH",
"225 -99 OFFCURVE",
"223 -82 OFFCURVE",
"223 -70 CURVE SMOOTH",
"223 -61 OFFCURVE",
"224 -52 OFFCURVE",
"225 -43 CURVE",
"256 -46 OFFCURVE",
"286 -48 OFFCURVE",
"316 -48 CURVE SMOOTH",
"369 -48 OFFCURVE",
"442 -41 OFFCURVE",
"483 -4 CURVE SMOOTH",
"488 0 OFFCURVE",
"494 8 OFFCURVE",
"494 15 CURVE SMOOTH",
"494 16 OFFCURVE",
"494 18 OFFCURVE",
"492 18 CURVE SMOOTH",
"488 18 OFFCURVE",
"482 10 OFFCURVE",
"479 7 CURVE SMOOTH",
"454 -21 OFFCURVE",
"400 -23 OFFCURVE",
"364 -23 CURVE SMOOTH",
"320 -23 OFFCURVE",
"276 -18 OFFCURVE",
"233 -12 CURVE",
"280 166 OFFCURVE",
"465 414 OFFCURVE",
"584 556 CURVE",
"604 554 OFFCURVE",
"624 553 OFFCURVE",
"644 553 CURVE SMOOTH",
"680 553 OFFCURVE",
"748 558 OFFCURVE",
"772 589 CURVE",
"773 591 OFFCURVE",
"775 594 OFFCURVE",
"775 596 CURVE SMOOTH",
"775 598 OFFCURVE",
"774 599 OFFCURVE",
"773 599 CURVE SMOOTH",
"769 599 OFFCURVE",
"765 595 OFFCURVE",
"763 592 CURVE",
"744 575 OFFCURVE",
"695 575 OFFCURVE",
"671 575 CURVE SMOOTH",
"648 575 OFFCURVE",
"625 576 OFFCURVE",
"602 577 CURVE",
"608 584 OFFCURVE",
"641 620 OFFCURVE",
"641 625 CURVE SMOOTH",
"641 633 OFFCURVE",
"626 634 OFFCURVE",
"621 634 CURVE SMOOTH",
"607 634 OFFCURVE",
"579 628 OFFCURVE",
"569 618 CURVE SMOOTH",
"560 609 OFFCURVE",
"550 593 OFFCURVE",
"542 583 CURVE",
"463 591 OFFCURVE",
"382 609 OFFCURVE",
"303 609 CURVE SMOOTH",
"244 609 OFFCURVE",
"95 592 OFFCURVE",
"95 507 CURVE SMOOTH",
"95 419 OFFCURVE",
"264 381 OFFCURVE",
"327 371 CURVE",
"330 371 OFFCURVE",
"333 371 OFFCURVE",
"335 371 CURVE SMOOTH",
"337 371 OFFCURVE",
"346 371 OFFCURVE",
"346 375 CURVE SMOOTH",
"346 379 OFFCURVE",
"339 380 OFFCURVE",
"337 381 CURVE",
"315 384 OFFCURVE",
"295 387 OFFCURVE",
"274 393 CURVE SMOOTH",
"227 407 OFFCURVE",
"156 441 OFFCURVE",
"156 498 CURVE SMOOTH",
"156 573 OFFCURVE",
"269 589 OFFCURVE",
"323 589 CURVE SMOOTH",
"391 589 OFFCURVE",
"459 572 OFFCURVE",
"526 563 CURVE",
"518 553 OFFCURVE",
"505 540 OFFCURVE",
"506 527 CURVE",
"465 474 OFFCURVE",
"426 419 OFFCURVE",
"389 365 CURVE SMOOTH",
"316 260 OFFCURVE",
"218 115 OFFCURVE",
"176 -4 CURVE",
"132 1 OFFCURVE",
"87 8 OFFCURVE",
"43 8 CURVE SMOOTH",
"11 8 OFFCURVE",
"-33 -7 OFFCURVE",
"-33 -46 CURVE SMOOTH",
"-33 -78 OFFCURVE",
"3 -99 OFFCURVE",
"32 -99 CURVE SMOOTH",
"34 -99 OFFCURVE",
"39 -99 OFFCURVE",
"39 -96 CURVE SMOOTH",
"39 -89 OFFCURVE",
"-11 -85 OFFCURVE",
"-11 -61 CURVE SMOOTH",
"-11 -34 OFFCURVE",
"43 -30 OFFCURVE",
"61 -30 CURVE SMOOTH",
"96 -30 OFFCURVE",
"131 -34 OFFCURVE",
"165 -37 CURVE",
"163 -49 OFFCURVE",
"161 -61 OFFCURVE",
"161 -73 CURVE SMOOTH",
"161 -102 OFFCURVE",
"174 -118 OFFCURVE",
"204 -118 CURVE SMOOTH"
);
}
);
width = 469;
}
);
note = I;
unicode = 0049;
},
{
glyphname = J;
lastChange = "2021-07-22 18:30:38 +0000";
layers = (
{
anchors = (
{
name = bottom;
position = "{260, 0}";
},
{
name = top;
position = "{714, 581}";
}
);
layerId = "5758FC1C-8DB2-4040-8B3F-38A5D3FE42F4";
paths = (
{
closed = 1;
nodes = (
"208 -163 OFFCURVE",
"303 -89 OFFCURVE",
"369 0 CURVE SMOOTH",
"419 68 OFFCURVE",
"463 142 OFFCURVE",
"505 216 CURVE",
"511 216 OFFCURVE",
"557 213 OFFCURVE",
"557 221 CURVE SMOOTH",
"557 229 OFFCURVE",
"535 232 OFFCURVE",
"530 232 CURVE SMOOTH",
"514 232 LINE",
"569 329 OFFCURVE",
"623 427 OFFCURVE",
"688 518 CURVE",
"735 520 OFFCURVE",
"821 529 OFFCURVE",
"853 568 CURVE SMOOTH",
"854 569 OFFCURVE",
"856 573 OFFCURVE",
"856 575 CURVE SMOOTH",
"856 576 OFFCURVE",
"855 577 OFFCURVE",
"853 577 CURVE SMOOTH",
"849 577 OFFCURVE",
"846 573 OFFCURVE",
"843 571 CURVE",
"819 547 OFFCURVE",
"740 545 OFFCURVE",
"708 544 CURVE",
"712 549 OFFCURVE",
"729 569 OFFCURVE",
"729 574 CURVE SMOOTH",
"729 581 OFFCURVE",
"719 581 OFFCURVE",
"714 581 CURVE SMOOTH",
"700 581 OFFCURVE",
"673 574 OFFCURVE",
"664 564 CURVE SMOOTH",
"659 558 OFFCURVE",
"654 549 OFFCURVE",
"650 543 CURVE",
"604 543 OFFCURVE",
"558 545 OFFCURVE",
"511 545 CURVE SMOOTH",
"506 545 LINE SMOOTH",
"472 545 OFFCURVE",
"439 542 OFFCURVE",
"406 536 CURVE SMOOTH",
"359 528 OFFCURVE",
"247 498 OFFCURVE",
"247 435 CURVE SMOOTH",
"247 364 OFFCURVE",
"394 335 OFFCURVE",
"444 327 CURVE",
"447 327 OFFCURVE",
"450 326 OFFCURVE",
"452 326 CURVE SMOOTH",
"454 326 OFFCURVE",
"463 327 OFFCURVE",
"463 331 CURVE SMOOTH",
"463 335 OFFCURVE",
"456 336 OFFCURVE",
"454 336 CURVE SMOOTH",
"412 343 OFFCURVE",
"301 359 OFFCURVE",
"301 421 CURVE SMOOTH",
"301 472 OFFCURVE",
"379 503 OFFCURVE",
"419 513 CURVE SMOOTH",
"446 519 OFFCURVE",
"475 522 OFFCURVE",
"503 522 CURVE SMOOTH",
"546 522 OFFCURVE",
"589 518 OFFCURVE",
"632 517 CURVE",
"624 506 OFFCURVE",
"609 490 OFFCURVE",
"609 476 CURVE SMOOTH",
"609 475 OFFCURVE",
"609 474 OFFCURVE",
"610 472 CURVE",
"566 391 OFFCURVE",
"519 310 OFFCURVE",
"470 231 CURVE",
"365 227 OFFCURVE",
"255 209 OFFCURVE",
"157 170 CURVE SMOOTH",
"75 138 OFFCURVE",
"-72 66 OFFCURVE",
"-72 -40 CURVE SMOOTH",
"-72 -124 OFFCURVE",
"20 -163 OFFCURVE",
"92 -163 CURVE SMOOTH"
);
},
{
closed = 1;
nodes = (
"27 -138 OFFCURVE",
"-25 -107 OFFCURVE",
"-25 -48 CURVE SMOOTH",
"-25 44 OFFCURVE",
"92 114 OFFCURVE",
"163 148 CURVE SMOOTH",
"254 190 OFFCURVE",
"361 212 OFFCURVE",
"461 216 CURVE",
"422 154 OFFCURVE",
"382 93 OFFCURVE",
"339 35 CURVE SMOOTH",
"281 -44 OFFCURVE",
"187 -138 OFFCURVE",
"82 -138 CURVE SMOOTH"
);
}
);
width = 520;
}
);
note = J;
unicode = 004A;
},
{
glyphname = K;
lastChange = "2021-07-22 18:30:38 +0000";
layers = (
{
anchors = (
{
name = bottom;
position = "{496, -85}";
},
{
name = top;
position = "{846, 605}";
}
);
layerId = "5758FC1C-8DB2-4040-8B3F-38A5D3FE42F4";
paths = (
{
closed = 1;
nodes = (
"936 -103 OFFCURVE",
"959 -103 OFFCURVE",
"959 -91 CURVE SMOOTH",
"959 -80 OFFCURVE",
"917 -39 OFFCURVE",
"907 -39 CURVE SMOOTH",
"904 -39 OFFCURVE",
"903 -41 OFFCURVE",
"903 -43 CURVE SMOOTH",
"903 -53 OFFCURVE",
"927 -65 OFFCURVE",
"927 -76 CURVE SMOOTH",
"927 -82 OFFCURVE",
"920 -82 OFFCURVE",
"916 -82 CURVE SMOOTH",
"906 -82 OFFCURVE",
"894 -79 OFFCURVE",
"885 -76 CURVE SMOOTH",
"752 -35 OFFCURVE",
"614 64 OFFCURVE",
"508 151 CURVE",
"608 263 OFFCURVE",
"916 567 OFFCURVE",
"1065 567 CURVE SMOOTH",
"1084 567 OFFCURVE",
"1102 559 OFFCURVE",
"1102 538 CURVE SMOOTH",
"1102 509 OFFCURVE",
"1071 490 OFFCURVE",
"1071 484 CURVE SMOOTH",
"1071 483 OFFCURVE",
"1072 483 OFFCURVE",
"1073 483 CURVE SMOOTH",
"1092 483 OFFCURVE",
"1127 511 OFFCURVE",
"1133 529 CURVE SMOOTH",
"1135 534 OFFCURVE",
"1136 540 OFFCURVE",
"1136 546 CURVE SMOOTH",
"1136 583 OFFCURVE",
"1092 593 OFFCURVE",
"1063 593 CURVE SMOOTH",
"1056 593 OFFCURVE",
"1049 593 OFFCURVE",
"1042 592 CURVE SMOOTH",
"847 560 OFFCURVE",
"619 306 OFFCURVE",
"497 160 CURVE",
"476 178 LINE",
"529 257 OFFCURVE",
"577 339 OFFCURVE",
"627 419 CURVE SMOOTH",
"648 455 OFFCURVE",
"684 516 OFFCURVE",
"710 547 CURVE SMOOTH",
"715 553 OFFCURVE",
"731 569 OFFCURVE",
"731 578 CURVE SMOOTH",
"731 582 OFFCURVE",
"728 582 OFFCURVE",
"725 582 CURVE SMOOTH",
"705 582 OFFCURVE",
"685 581 OFFCURVE",
"665 581 CURVE SMOOTH",
"646 581 OFFCURVE",
"620 582 OFFCURVE",
"589 582 CURVE SMOOTH",
"445 582 OFFCURVE",
"206 571 OFFCURVE",
"206 448 CURVE SMOOTH",
"206 349 OFFCURVE",
"350 224 OFFCURVE",
"424 166 CURVE",
"374 88 OFFCURVE",
"264 -80 OFFCURVE",
"159 -80 CURVE SMOOTH",
"78 -80 OFFCURVE",
"54 2 OFFCURVE",
"54 69 CURVE SMOOTH",
"54 86 OFFCURVE",
"59 102 OFFCURVE",
"59 118 CURVE SMOOTH",
"59 119 OFFCURVE",
"59 127 OFFCURVE",
"56 127 CURVE SMOOTH",
"45 127 OFFCURVE",
"34 70 OFFCURVE",
"33 63 CURVE SMOOTH",
"32 52 OFFCURVE",
"31 42 OFFCURVE",
"31 31 CURVE SMOOTH",
"31 -52 OFFCURVE",
"77 -92 OFFCURVE",
"158 -92 CURVE SMOOTH",
"279 -92 OFFCURVE",
"390 55 OFFCURVE",
"452 144 CURVE",
"472 129 LINE",
"466 123 OFFCURVE",
"453 101 OFFCURVE",
"453 94 CURVE SMOOTH",
"453 93 OFFCURVE",
"454 92 OFFCURVE",
"454 92 CURVE",
"459 92 OFFCURVE",
"478 116 OFFCURVE",
"482 122 CURVE",
"580 51 OFFCURVE",
"807 -103 OFFCURVE",
"929 -103 CURVE SMOOTH"
);
},
{
closed = 1;
nodes = (
"389 254 OFFCURVE",
"256 365 OFFCURVE",
"256 446 CURVE SMOOTH",
"256 525 OFFCURVE",
"376 538 OFFCURVE",
"433 542 CURVE SMOOTH",
"475 544 OFFCURVE",
"517 545 OFFCURVE",
"559 545 CURVE SMOOTH",
"590 545 OFFCURVE",
"620 545 OFFCURVE",
"651 544 CURVE",
"642 531 OFFCURVE",
"609 492 OFFCURVE",
"609 476 CURVE SMOOTH",
"609 475 OFFCURVE",
"609 474 OFFCURVE",
"609 472 CURVE",
"585 437 OFFCURVE",
"564 399 OFFCURVE",
"542 362 CURVE SMOOTH",
"511 309 OFFCURVE",
"480 255 OFFCURVE",
"448 203 CURVE"
);
}
);
width = 719;
}
);
note = K;
unicode = 004B;
},
{
glyphname = L;
lastChange = "2021-07-22 18:30:38 +0000";
layers = (
{
anchors = (
{
name = bottom;
position = "{464, -75}";
},
{
name = center;
position = "{269, 310}";
},
{
name = top;
position = "{704, 620}";
},
{
name = topright;
position = "{858, 620}";
}
);
layerId = "5758FC1C-8DB2-4040-8B3F-38A5D3FE42F4";
paths = (
{
closed = 1;
nodes = (
"821 -128 OFFCURVE",
"834 -121 OFFCURVE",
"834 -103 CURVE SMOOTH",
"834 -79 OFFCURVE",
"791 1 OFFCURVE",
"778 1 CURVE SMOOTH",
"776 1 OFFCURVE",
"775 -1 OFFCURVE",
"775 -3 CURVE SMOOTH",
"775 -8 OFFCURVE",
"800 -45 OFFCURVE",
"800 -68 CURVE SMOOTH",
"800 -83 OFFCURVE",
"790 -87 OFFCURVE",
"777 -87 CURVE SMOOTH",
"768 -87 OFFCURVE",
"760 -86 OFFCURVE",
"752 -84 CURVE SMOOTH",
"633 -56 OFFCURVE",
"493 47 OFFCURVE",
"395 118 CURVE",
"417 170 OFFCURVE",
"437 222 OFFCURVE",
"458 274 CURVE SMOOTH",
"489 350 OFFCURVE",
"571 571 OFFCURVE",
"647 608 CURVE SMOOTH",
"656 612 OFFCURVE",
"666 615 OFFCURVE",
"676 615 CURVE SMOOTH",
"713 615 OFFCURVE",
"736 580 OFFCURVE",
"736 546 CURVE SMOOTH",
"736 535 OFFCURVE",
"730 526 OFFCURVE",
"730 515 CURVE SMOOTH",
"730 514 OFFCURVE",
"730 511 OFFCURVE",
"733 511 CURVE SMOOTH",
"736 511 OFFCURVE",
"742 517 OFFCURVE",
"744 519 CURVE SMOOTH",
"759 533 OFFCURVE",
"772 558 OFFCURVE",
"772 579 CURVE SMOOTH",
"772 583 OFFCURVE",
"771 587 OFFCURVE",
"770 591 CURVE SMOOTH",
"759 622 OFFCURVE",
"738 641 OFFCURVE",
"704 641 CURVE SMOOTH",
"534 641 OFFCURVE",
"404 276 OFFCURVE",
"353 148 CURVE",
"290 193 OFFCURVE",
"152 297 OFFCURVE",
"74 297 CURVE SMOOTH",
"15 297 OFFCURVE",
"-10 242 OFFCURVE",
"-10 189 CURVE SMOOTH",
"-10 179 OFFCURVE",
"-3 127 OFFCURVE",
"8 127 CURVE SMOOTH",
"14 127 OFFCURVE",
"15 140 OFFCURVE",
"15 143 CURVE SMOOTH",
"15 162 OFFCURVE",
"7 180 OFFCURVE",
"7 199 CURVE SMOOTH",
"7 231 OFFCURVE",
"20 255 OFFCURVE",
"54 255 CURVE SMOOTH",
"114 255 OFFCURVE",
"283 145 OFFCURVE",
"338 111 CURVE",
"317 60 OFFCURVE",
"257 -86 OFFCURVE",
"190 -86 CURVE SMOOTH",
"139 -86 OFFCURVE",
"101 -9 OFFCURVE",
"84 29 CURVE SMOOTH",
"62 78 OFFCURVE",
"45 163 OFFCURVE",
"45 217 CURVE SMOOTH",
"45 224 OFFCURVE",
"47 239 OFFCURVE",
"38 239 CURVE SMOOTH",
"26 239 OFFCURVE",
"25 206 OFFCURVE",
"25 199 CURVE SMOOTH",
"25 113 OFFCURVE",
"85 -124 OFFCURVE",
"193 -124 CURVE SMOOTH",
"277 -124 OFFCURVE",
"350 20 OFFCURVE",
"380 84 CURVE",
"461 32 OFFCURVE",
"715 -128 OFFCURVE",
"804 -128 CURVE SMOOTH"
);
}
);
width = 538;
}
);
note = L;
unicode = 004C;
},
{
glyphname = M;
lastChange = "2021-07-22 18:30:38 +0000";
layers = (
{
layerId = "5758FC1C-8DB2-4040-8B3F-38A5D3FE42F4";
paths = (
{
closed = 1;
nodes = (
"777 -115 OFFCURVE",
"838 -103 OFFCURVE",
"838 -94 CURVE SMOOTH",
"838 -92 OFFCURVE",
"830 -92 OFFCURVE",
"829 -92 CURVE SMOOTH",
"818 -92 OFFCURVE",
"808 -97 OFFCURVE",
"797 -97 CURVE SMOOTH",
"773 -97 OFFCURVE",
"772 -53 OFFCURVE",
"772 -37 CURVE SMOOTH",
"772 -28 OFFCURVE",
"772 -19 OFFCURVE",
"773 -9 CURVE SMOOTH",
"790 164 OFFCURVE",
"899 371 OFFCURVE",
"991 517 CURVE SMOOTH",
"1012 552 OFFCURVE",
"1035 584 OFFCURVE",
"1058 618 CURVE",
"1058 621 LINE SMOOTH",
"1058 631 OFFCURVE",
"1041 632 OFFCURVE",
"1035 632 CURVE SMOOTH",
"1019 632 OFFCURVE",
"999 627 OFFCURVE",
"987 616 CURVE",
"979 601 OFFCURVE",
"941 545 OFFCURVE",
"941 533 CURVE SMOOTH",
"941 531 OFFCURVE",
"941 528 OFFCURVE",
"942 526 CURVE",
"935 513 OFFCURVE",
"929 501 OFFCURVE",
"921 489 CURVE SMOOTH",
"870 408 OFFCURVE",
"624 108 OFFCURVE",
"533 108 CURVE SMOOTH",
"502 108 OFFCURVE",
"497 143 OFFCURVE",
"497 167 CURVE SMOOTH",
"497 253 OFFCURVE",
"505 349 OFFCURVE",
"528 432 CURVE SMOOTH",
"531 441 OFFCURVE",
"537 459 OFFCURVE",
"537 468 CURVE SMOOTH",
"537 475 OFFCURVE",
"533 476 OFFCURVE",
"527 476 CURVE SMOOTH",
"519 476 OFFCURVE",
"510 474 OFFCURVE",
"502 471 CURVE",
"507 481 OFFCURVE",
"520 507 OFFCURVE",
"520 516 CURVE SMOOTH",
"520 518 OFFCURVE",
"519 521 OFFCURVE",
"517 521 CURVE SMOOTH",
"508 521 OFFCURVE",
"498 500 OFFCURVE",
"495 494 CURVE SMOOTH",
"445 381 OFFCURVE",
"204 -61 OFFCURVE",
"81 -61 CURVE SMOOTH",
"24 -61 OFFCURVE",
"13 37 OFFCURVE",
"13 78 CURVE SMOOTH",
"13 130 OFFCURVE",
"21 185 OFFCURVE",
"36 234 CURVE SMOOTH",
"37 236 OFFCURVE",
"38 239 OFFCURVE",
"38 241 CURVE SMOOTH",
"38 244 OFFCURVE",
"37 248 OFFCURVE",
"33 248 CURVE SMOOTH",
"28 248 OFFCURVE",
"24 242 OFFCURVE",
"21 239 CURVE",
"-2 205 OFFCURVE",
"-10 108 OFFCURVE",
"-10 68 CURVE SMOOTH",
"-10 13 OFFCURVE",
"1 -107 OFFCURVE",
"78 -107 CURVE SMOOTH",
"187 -107 OFFCURVE",
"320 109 OFFCURVE",
"365 191 CURVE SMOOTH",
"406 267 OFFCURVE",
"443 344 OFFCURVE",
"479 422 CURVE",
"461 338 OFFCURVE",
"447 247 OFFCURVE",
"447 160 CURVE SMOOTH",
"447 120 OFFCURVE",
"451 55 OFFCURVE",
"505 55 CURVE SMOOTH",
"557 55 OFFCURVE",
"627 115 OFFCURVE",
"662 150 CURVE SMOOTH",
"690 177 OFFCURVE",
"716 207 OFFCURVE",
"741 237 CURVE SMOOTH",
"783 283 OFFCURVE",
"824 331 OFFCURVE",
"863 379 CURVE",
"812 278 OFFCURVE",
"710 67 OFFCURVE",
"710 -44 CURVE SMOOTH",
"710 -82 OFFCURVE",
"722 -115 OFFCURVE",
"766 -115 CURVE SMOOTH"
);
},
{
closed = 1;
nodes = (
"283 375 OFFCURVE",
"290 376 OFFCURVE",
"290 379 CURVE SMOOTH",
"290 382 OFFCURVE",
"284 383 OFFCURVE",
"282 384 CURVE",
"267 386 OFFCURVE",
"253 388 OFFCURVE",
"238 392 CURVE SMOOTH",
"202 403 OFFCURVE",
"149 429 OFFCURVE",
"149 474 CURVE SMOOTH",
"149 532 OFFCURVE",
"230 546 OFFCURVE",
"273 546 CURVE SMOOTH",
"291 546 OFFCURVE",
"310 544 OFFCURVE",
"328 541 CURVE SMOOTH",
"389 532 OFFCURVE",
"451 523 OFFCURVE",
"513 523 CURVE SMOOTH",
"547 523 OFFCURVE",
"620 527 OFFCURVE",
"642 556 CURVE SMOOTH",
"643 557 OFFCURVE",
"645 561 OFFCURVE",
"645 562 CURVE SMOOTH",
"645 563 OFFCURVE",
"644 564 OFFCURVE",
"643 564 CURVE SMOOTH",
"639 564 OFFCURVE",
"637 561 OFFCURVE",
"635 559 CURVE SMOOTH",
"619 544 OFFCURVE",
"579 544 OFFCURVE",
"559 544 CURVE SMOOTH",
"485 544 OFFCURVE",
"411 555 OFFCURVE",
"338 566 CURVE SMOOTH",
"311 570 OFFCURVE",
"282 573 OFFCURVE",
"254 573 CURVE SMOOTH",
"205 573 OFFCURVE",
"82 558 OFFCURVE",
"82 488 CURVE SMOOTH",
"82 415 OFFCURVE",
"222 384 OFFCURVE",
"274 376 CURVE SMOOTH",
"276 376 OFFCURVE",
"279 375 OFFCURVE",
"281 375 CURVE SMOOTH"
);
}
);
width = 884;
}
);
note = M;
unicode = 004D;
},
{
glyphname = N;
lastChange = "2021-07-22 18:30:38 +0000";
layers = (
{
anchors = (
{
name = bottom;
position = "{383, -75}";
},
{
name = top;
position = "{661, 605}";
}
);
layerId = "5758FC1C-8DB2-4040-8B3F-38A5D3FE42F4";
paths = (
{
closed = 1;
nodes = (
"149 -109 OFFCURVE",
"196 -74 OFFCURVE",
"228 -43 CURVE SMOOTH",
"295 22 OFFCURVE",
"405 244 OFFCURVE",
"446 333 CURVE",
"462 284 OFFCURVE",
"475 233 OFFCURVE",
"489 183 CURVE SMOOTH",
"508 116 OFFCURVE",
"546 -33 OFFCURVE",
"591 -84 CURVE SMOOTH",
"601 -95 OFFCURVE",
"611 -105 OFFCURVE",
"626 -105 CURVE SMOOTH",
"628 -105 LINE SMOOTH",
"658 -105 OFFCURVE",
"676 -66 OFFCURVE",
"684 -43 CURVE",
"684 -40 OFFCURVE",
"690 -21 OFFCURVE",
"690 -19 CURVE SMOOTH",
"690 -17 OFFCURVE",
"691 -14 OFFCURVE",
"687 -14 CURVE SMOOTH",
"678 -14 OFFCURVE",
"669 -67 OFFCURVE",
"638 -67 CURVE SMOOTH",
"636 -67 OFFCURVE",
"633 -67 OFFCURVE",
"631 -66 CURVE SMOOTH",
"570 -43 OFFCURVE",
"523 182 OFFCURVE",
"509 242 CURVE SMOOTH",
"497 291 OFFCURVE",
"485 340 OFFCURVE",
"471 389 CURVE",
"476 401 OFFCURVE",
"492 439 OFFCURVE",
"492 451 CURVE SMOOTH",
"492 452 OFFCURVE",
"492 455 OFFCURVE",
"490 455 CURVE SMOOTH",
"481 455 OFFCURVE",
"467 424 OFFCURVE",
"463 415 CURVE",
"448 465 OFFCURVE",
"417 565 OFFCURVE",
"352 565 CURVE SMOOTH",
"341 565 OFFCURVE",
"332 562 OFFCURVE",
"322 559 CURVE SMOOTH",
"313 556 OFFCURVE",
"303 549 OFFCURVE",
"295 543 CURVE SMOOTH",
"254 516 OFFCURVE",
"222 480 OFFCURVE",
"202 435 CURVE",
"202 433 OFFCURVE",
"201 431 OFFCURVE",
"201 429 CURVE SMOOTH",
"201 428 OFFCURVE",
"202 426 OFFCURVE",
"203 426 CURVE SMOOTH",
"224 426 OFFCURVE",
"259 532 OFFCURVE",
"320 532 CURVE SMOOTH",
"382 532 OFFCURVE",
"421 409 OFFCURVE",
"437 363 CURVE",
"387 266 OFFCURVE",
"215 -67 OFFCURVE",
"96 -67 CURVE SMOOTH",
"51 -67 OFFCURVE",
"34 -23 OFFCURVE",
"34 15 CURVE SMOOTH",
"34 113 OFFCURVE",
"111 191 OFFCURVE",
"188 239 CURVE SMOOTH",
"190 240 OFFCURVE",
"195 242 OFFCURVE",
"195 245 CURVE SMOOTH",
"195 247 OFFCURVE",
"190 248 OFFCURVE",
"189 248 CURVE SMOOTH",
"184 248 OFFCURVE",
"178 246 OFFCURVE",
"174 244 CURVE SMOOTH",
"85 200 OFFCURVE",
"13 110 OFFCURVE",
"13 8 CURVE SMOOTH",
"13 -46 OFFCURVE",
"39 -109 OFFCURVE",
"102 -109 CURVE SMOOTH"
);
},
{
closed = 1;
nodes = (
"618 4 OFFCURVE",
"621 17 OFFCURVE",
"622 21 CURVE SMOOTH",
"629 43 OFFCURVE",
"635 64 OFFCURVE",
"643 85 CURVE SMOOTH",
"697 230 OFFCURVE",
"816 429 OFFCURVE",
"929 534 CURVE SMOOTH",
"948 552 OFFCURVE",
"967 566 OFFCURVE",
"988 581 CURVE SMOOTH",
"1001 590 OFFCURVE",
"1011 602 OFFCURVE",
"1011 618 CURVE SMOOTH",
"1011 628 OFFCURVE",
"1005 636 OFFCURVE",
"994 636 CURVE SMOOTH",
"961 636 OFFCURVE",
"940 600 OFFCURVE",
"919 582 CURVE SMOOTH",
"898 564 OFFCURVE",
"869 560 OFFCURVE",
"843 560 CURVE SMOOTH",
"839 560 OFFCURVE",
"834 558 OFFCURVE",
"834 553 CURVE SMOOTH",
"834 549 OFFCURVE",
"838 547 OFFCURVE",
"841 547 CURVE SMOOTH",
"859 547 OFFCURVE",
"877 549 OFFCURVE",
"893 556 CURVE",
"764 416 OFFCURVE",
"661 204 OFFCURVE",
"605 23 CURVE SMOOTH",
"604 21 OFFCURVE",
"604 19 OFFCURVE",
"604 18 CURVE SMOOTH",
"604 14 OFFCURVE",
"606 4 OFFCURVE",
"612 4 CURVE SMOOTH"
);
}
);
width = 736;
}
);
note = N;
unicode = 004E;
},
{
color = 3;
glyphname = Eng;
lastChange = "2021-07-22 18:30:38 +0000";
layers = (
{
layerId = "5758FC1C-8DB2-4040-8B3F-38A5D3FE42F4";
paths = (
{
closed = 1;
nodes = (
"359 -440 OFFCURVE",
"429 -375 OFFCURVE",
"476 -297 CURVE SMOOTH",
"569 -143 OFFCURVE",
"782 340 OFFCURVE",
"929 534 CURVE SMOOTH",
"945 555 OFFCURVE",
"967 566 OFFCURVE",
"988 581 CURVE SMOOTH",
"1001 590 OFFCURVE",
"1011 602 OFFCURVE",
"1011 618 CURVE SMOOTH",
"1011 628 OFFCURVE",
"1005 636 OFFCURVE",
"994 636 CURVE SMOOTH",
"961 636 OFFCURVE",
"940 600 OFFCURVE",
"919 582 CURVE SMOOTH",
"898 564 OFFCURVE",
"869 560 OFFCURVE",
"843 560 CURVE SMOOTH",
"839 560 OFFCURVE",
"834 558 OFFCURVE",
"834 553 CURVE SMOOTH",
"834 549 OFFCURVE",
"838 547 OFFCURVE",
"841 547 CURVE SMOOTH",
"859 547 OFFCURVE",
"877 549 OFFCURVE",
"893 556 CURVE",
"776 447 OFFCURVE",
"645 35 OFFCURVE",
"454 -267 CURVE SMOOTH",
"411 -335 OFFCURVE",
"344 -418 OFFCURVE",
"267 -418 CURVE SMOOTH",
"227 -418 OFFCURVE",
"190 -391 OFFCURVE",
"190 -339 CURVE SMOOTH",
"190 -279 OFFCURVE",
"237 -221 OFFCURVE",
"283 -187 CURVE",
"298 -180 OFFCURVE",
"304 -175 OFFCURVE",
"304 -172 CURVE SMOOTH",
"304 -170 OFFCURVE",
"302 -169 OFFCURVE",
"298 -169 CURVE SMOOTH",
"293 -169 OFFCURVE",
"286 -170 OFFCURVE",
"277 -173 CURVE",
"220 -206 OFFCURVE",
"155 -261 OFFCURVE",
"155 -332 CURVE SMOOTH",
"155 -406 OFFCURVE",
"222 -440 OFFCURVE",
"275 -440 CURVE SMOOTH"
);
},
{
closed = 1;
nodes = (
"149 -109 OFFCURVE",
"196 -74 OFFCURVE",
"228 -43 CURVE SMOOTH",
"295 22 OFFCURVE",
"405 244 OFFCURVE",
"446 333 CURVE",
"462 284 OFFCURVE",
"475 233 OFFCURVE",
"489 183 CURVE SMOOTH",
"508 116 OFFCURVE",
"546 -33 OFFCURVE",
"591 -84 CURVE SMOOTH",
"601 -95 OFFCURVE",
"611 -103 OFFCURVE",
"626 -105 CURVE SMOOTH",
"628 -105 LINE SMOOTH",
"658 -106 OFFCURVE",
"676 -66 OFFCURVE",
"684 -43 CURVE",
"684 -40 OFFCURVE",
"690 -21 OFFCURVE",
"690 -19 CURVE SMOOTH",
"690 -17 OFFCURVE",
"691 -14 OFFCURVE",
"687 -14 CURVE SMOOTH",
"678 -14 OFFCURVE",
"669 -67 OFFCURVE",
"638 -67 CURVE SMOOTH",
"636 -67 OFFCURVE",
"633 -67 OFFCURVE",
"631 -66 CURVE SMOOTH",
"570 -43 OFFCURVE",
"523 182 OFFCURVE",
"509 242 CURVE SMOOTH",
"497 291 OFFCURVE",
"485 340 OFFCURVE",
"471 389 CURVE",
"476 401 OFFCURVE",
"492 439 OFFCURVE",
"492 451 CURVE SMOOTH",
"492 452 OFFCURVE",
"492 455 OFFCURVE",
"490 455 CURVE SMOOTH",
"481 455 OFFCURVE",
"467 424 OFFCURVE",
"463 415 CURVE",
"448 465 OFFCURVE",
"417 565 OFFCURVE",
"352 565 CURVE SMOOTH",
"341 565 OFFCURVE",
"332 562 OFFCURVE",
"322 559 CURVE SMOOTH",
"313 556 OFFCURVE",
"303 549 OFFCURVE",
"295 543 CURVE SMOOTH",
"254 516 OFFCURVE",
"222 480 OFFCURVE",
"202 435 CURVE",
"202 433 OFFCURVE",
"201 431 OFFCURVE",
"201 429 CURVE SMOOTH",
"201 428 OFFCURVE",
"202 426 OFFCURVE",
"203 426 CURVE SMOOTH",
"224 426 OFFCURVE",
"259 532 OFFCURVE",
"320 532 CURVE SMOOTH",
"382 532 OFFCURVE",
"421 409 OFFCURVE",
"437 363 CURVE",
"387 266 OFFCURVE",
"215 -67 OFFCURVE",
"96 -67 CURVE SMOOTH",
"51 -67 OFFCURVE",
"34 -23 OFFCURVE",
"34 15 CURVE SMOOTH",
"34 113 OFFCURVE",
"111 191 OFFCURVE",
"188 239 CURVE SMOOTH",
"190 240 OFFCURVE",
"195 242 OFFCURVE",
"195 245 CURVE SMOOTH",
"195 247 OFFCURVE",
"190 248 OFFCURVE",
"189 248 CURVE SMOOTH",
"184 248 OFFCURVE",
"178 246 OFFCURVE",
"174 244 CURVE SMOOTH",
"85 200 OFFCURVE",
"13 110 OFFCURVE",
"13 8 CURVE SMOOTH",
"13 -46 OFFCURVE",
"39 -109 OFFCURVE",
"102 -109 CURVE SMOOTH"
);
}
);
width = 736;
}
);
unicode = 014A;
},
{
glyphname = O;
lastChange = "2021-07-22 18:30:38 +0000";
layers = (
{
anchors = (
{
name = bottom;
position = "{158, -46}";
},
{
name = center;
position = "{336, 310}";
},
{
name = ogonek;
position = "{202, -37}";
},
{
name = top;
position = "{612, 595}";
},
{
name = topleft;
position = "{20, 620}";
},
{
name = topright;
position = "{667, 501}";
}
);
layerId = "5758FC1C-8DB2-4040-8B3F-38A5D3FE42F4";
paths = (
{
closed = 1;
nodes = (
"397 -53 OFFCURVE",
"549 52 OFFCURVE",
"639 171 CURVE SMOOTH",
"684 231 OFFCURVE",
"728 310 OFFCURVE",
"728 387 CURVE SMOOTH",
"728 466 OFFCURVE",
"682 524 OFFCURVE",
"614 560 CURVE",
"652 557 OFFCURVE",
"686 547 OFFCURVE",
"720 530 CURVE",
"724 529 OFFCURVE",
"727 528 OFFCURVE",
"731 528 CURVE SMOOTH",
"736 528 OFFCURVE",
"741 531 OFFCURVE",
"741 536 CURVE SMOOTH",
"741 544 OFFCURVE",
"733 548 OFFCURVE",
"727 551 CURVE SMOOTH",
"685 570 OFFCURVE",
"628 579 OFFCURVE",
"582 579 CURVE SMOOTH",
"572 579 LINE",
"521 598 OFFCURVE",
"466 606 OFFCURVE",
"411 606 CURVE SMOOTH",
"293 606 OFFCURVE",
"111 558 OFFCURVE",
"111 410 CURVE SMOOTH",
"111 384 OFFCURVE",
"117 359 OFFCURVE",
"126 334 CURVE",
"77 273 OFFCURVE",
"26 185 OFFCURVE",
"26 104 CURVE SMOOTH",
"26 -21 OFFCURVE",
"139 -53 OFFCURVE",
"243 -53 CURVE SMOOTH"
);
},
{
closed = 1;
nodes = (
"153 -22 OFFCURVE",
"73 24 OFFCURVE",
"73 125 CURVE SMOOTH",
"73 189 OFFCURVE",
"107 254 OFFCURVE",
"143 305 CURVE",
"164 266 OFFCURVE",
"211 208 OFFCURVE",
"260 208 CURVE SMOOTH",
"298 208 OFFCURVE",
"311 246 OFFCURVE",
"311 278 CURVE SMOOTH",
"311 283 OFFCURVE",
"308 287 OFFCURVE",
"303 287 CURVE SMOOTH",
"298 287 OFFCURVE",
"295 283 OFFCURVE",
"295 279 CURVE SMOOTH",
"293 261 OFFCURVE",
"292 222 OFFCURVE",
"266 222 CURVE SMOOTH",
"226 222 OFFCURVE",
"178 302 OFFCURVE",
"165 333 CURVE",
"250 438 OFFCURVE",
"384 530 OFFCURVE",
"519 555 CURVE",
"606 522 OFFCURVE",
"676 455 OFFCURVE",
"676 356 CURVE SMOOTH",
"676 285 OFFCURVE",
"640 214 OFFCURVE",
"600 157 CURVE SMOOTH",
"524 50 OFFCURVE",
"376 -22 OFFCURVE",
"245 -22 CURVE SMOOTH"
);
},
{
closed = 1;
nodes = (
"153 383 OFFCURVE",
"151 399 OFFCURVE",
"151 414 CURVE SMOOTH",
"151 536 OFFCURVE",
"279 579 OFFCURVE",
"381 579 CURVE SMOOTH",
"414 579 OFFCURVE",
"448 575 OFFCURVE",
"480 567 CURVE",
"357 538 OFFCURVE",
"241 462 OFFCURVE",
"156 368 CURVE"
);
}
);
width = 672;
}
);
note = O;
unicode = 004F;
},
{
glyphname = OE;
lastChange = "2021-07-22 18:30:39 +0000";
layers = (
{
layerId = "5758FC1C-8DB2-4040-8B3F-38A5D3FE42F4";
paths = (
{
closed = 1;
nodes = (
"363 -53 OFFCURVE",
"487 14 OFFCURVE",
"572 96 CURVE",
"598 -7 OFFCURVE",
"718 -39 OFFCURVE",
"811 -39 CURVE SMOOTH",
"907 -39 OFFCURVE",
"1182 21 OFFCURVE",
"1242 96 CURVE SMOOTH",
"1243 97 OFFCURVE",
"1243 99 OFFCURVE",
"1243 100 CURVE SMOOTH",
"1243 103 OFFCURVE",
"1242 105 OFFCURVE",
"1242 107 CURVE SMOOTH",
"1242 119 OFFCURVE",
"1283 145 OFFCURVE",
"1283 152 CURVE SMOOTH",
"1283 153 OFFCURVE",
"1283 155 OFFCURVE",
"1282 155 CURVE SMOOTH",
"1278 155 OFFCURVE",
"1270 148 OFFCURVE",
"1268 146 CURVE SMOOTH",
"1151 58 OFFCURVE",
"991 -22 OFFCURVE",
"842 -22 CURVE SMOOTH",
"738 -22 OFFCURVE",
"638 19 OFFCURVE",
"638 137 CURVE SMOOTH",
"638 149 OFFCURVE",
"639 162 OFFCURVE",
"641 174 CURVE",
"671 215 OFFCURVE",
"698 259 OFFCURVE",
"714 308 CURVE",
"719 309 LINE SMOOTH",
"757 317 OFFCURVE",
"796 319 OFFCURVE",
"834 323 CURVE SMOOTH",
"905 328 OFFCURVE",
"977 333 OFFCURVE",
"1048 336 CURVE SMOOTH",
"1080 338 OFFCURVE",
"1120 337 OFFCURVE",
"1151 341 CURVE SMOOTH",
"1156 341 OFFCURVE",
"1183 346 OFFCURVE",
"1183 352 CURVE SMOOTH",
"1183 356 OFFCURVE",
"1171 358 OFFCURVE",
"1170 358 CURVE SMOOTH",
"1152 362 OFFCURVE",
"1131 363 OFFCURVE",
"1110 363 CURVE SMOOTH",
"1099 363 OFFCURVE",
"1088 363 OFFCURVE",
"1077 363 CURVE SMOOTH",
"975 363 OFFCURVE",
"872 357 OFFCURVE",
"770 350 CURVE SMOOTH",
"755 349 OFFCURVE",
"740 347 OFFCURVE",
"724 346 CURVE",
"726 354 LINE",
"826 486 OFFCURVE",
"1001 596 OFFCURVE",
"1170 596 CURVE SMOOTH",
"1216 596 OFFCURVE",
"1257 581 OFFCURVE",
"1281 539 CURVE",
"1270 521 OFFCURVE",
"1244 482 OFFCURVE",
"1244 461 CURVE SMOOTH",
"1244 452 OFFCURVE",
"1253 451 OFFCURVE",
"1261 451 CURVE SMOOTH",
"1271 451 OFFCURVE",
"1279 454 OFFCURVE",
"1285 461 CURVE SMOOTH",
"1290 467 OFFCURVE",
"1302 483 OFFCURVE",
"1302 492 CURVE SMOOTH",
"1302 497 OFFCURVE",
"1305 502 OFFCURVE",
"1307 506 CURVE",
"1311 502 OFFCURVE",
"1321 478 OFFCURVE",
"1321 478 CURVE",
"1329 481 OFFCURVE",
"1333 499 OFFCURVE",
"1333 506 CURVE SMOOTH",
"1333 517 OFFCURVE",
"1322 539 OFFCURVE",
"1316 549 CURVE",
"1323 562 OFFCURVE",
"1348 613 OFFCURVE",
"1348 625 CURVE SMOOTH",
"1348 629 OFFCURVE",
"1347 637 OFFCURVE",
"1341 637 CURVE SMOOTH",
"1334 637 OFFCURVE",
"1328 627 OFFCURVE",
"1328 620 CURVE SMOOTH",
"1328 609 OFFCURVE",
"1309 580 OFFCURVE",
"1301 570 CURVE",
"1279 604 OFFCURVE",
"1214 617 OFFCURVE",
"1176 617 CURVE SMOOTH",
"1173 617 OFFCURVE",
"1169 617 OFFCURVE",
"1166 616 CURVE",
"1001 606 OFFCURVE",
"845 538 OFFCURVE",
"724 426 CURVE",
"712 487 OFFCURVE",
"668 531 OFFCURVE",
"614 560 CURVE",
"620 560 OFFCURVE",
"646 558 OFFCURVE",
"646 564 CURVE SMOOTH",
"646 576 OFFCURVE",
"587 579 OFFCURVE",
"579 579 CURVE SMOOTH",
"572 579 LINE",
"521 598 OFFCURVE",
"466 606 OFFCURVE",
"411 606 CURVE SMOOTH",
"293 606 OFFCURVE",
"111 558 OFFCURVE",
"111 410 CURVE SMOOTH",
"111 384 OFFCURVE",
"117 359 OFFCURVE",
"126 334 CURVE",
"77 273 OFFCURVE",
"26 185 OFFCURVE",
"26 104 CURVE SMOOTH",
"26 -21 OFFCURVE",
"139 -53 OFFCURVE",
"243 -53 CURVE SMOOTH"
);
},
{
closed = 1;
nodes = (
"153 -22 OFFCURVE",
"73 24 OFFCURVE",
"73 125 CURVE SMOOTH",
"73 189 OFFCURVE",
"107 254 OFFCURVE",
"143 305 CURVE",
"147 298 OFFCURVE",
"160 275 OFFCURVE",
"170 275 CURVE SMOOTH",
"176 275 OFFCURVE",
"177 284 OFFCURVE",
"177 288 CURVE SMOOTH",
"177 302 OFFCURVE",
"170 320 OFFCURVE",
"165 333 CURVE",
"250 438 OFFCURVE",
"384 530 OFFCURVE",
"519 555 CURVE",
"599 525 OFFCURVE",
"667 465 OFFCURVE",
"675 376 CURVE",
"663 362 OFFCURVE",
"652 347 OFFCURVE",
"641 332 CURVE",
"628 330 OFFCURVE",
"527 307 OFFCURVE",
"527 289 CURVE SMOOTH",
"527 283 OFFCURVE",
"542 282 OFFCURVE",
"550 282 CURVE SMOOTH",
"551 282 OFFCURVE",
"553 282 OFFCURVE",
"553 282 CURVE SMOOTH",
"573 282 OFFCURVE",
"593 284 OFFCURVE",
"612 287 CURVE",
"587 243 OFFCURVE",
"567 191 OFFCURVE",
"567 139 CURVE SMOOTH",
"567 132 OFFCURVE",
"567 125 OFFCURVE",
"568 118 CURVE",
"489 35 OFFCURVE",
"360 -22 OFFCURVE",
"245 -22 CURVE SMOOTH"
);
},
{
closed = 1;
nodes = (
"153 383 OFFCURVE",
"151 399 OFFCURVE",
"151 414 CURVE SMOOTH",
"151 536 OFFCURVE",
"279 579 OFFCURVE",
"381 579 CURVE SMOOTH",
"414 579 OFFCURVE",
"448 575 OFFCURVE",
"480 567 CURVE",
"357 538 OFFCURVE",
"241 462 OFFCURVE",
"156 368 CURVE"
);
}
);
width = 1285;
}
);
note = OE;
unicode = 0152;
},
{
glyphname = P;
lastChange = "2021-07-22 18:30:39 +0000";
layers = (
{
layerId = "5758FC1C-8DB2-4040-8B3F-38A5D3FE42F4";
paths = (
{
closed = 1;
nodes = (
"193 -118 OFFCURVE",
"257 -105 OFFCURVE",
"257 -96 CURVE SMOOTH",
"257 -94 OFFCURVE",
"251 -94 OFFCURVE",
"250 -94 CURVE SMOOTH",
"239 -94 OFFCURVE",
"227 -99 OFFCURVE",
"216 -99 CURVE SMOOTH",
"201 -99 OFFCURVE",
"199 -82 OFFCURVE",
"199 -70 CURVE SMOOTH",
"199 -19 OFFCURVE",
"237 69 OFFCURVE",
"260 116 CURVE",
"280 113 OFFCURVE",
"300 111 OFFCURVE",
"321 111 CURVE SMOOTH",
"426 111 OFFCURVE",
"565 159 OFFCURVE",
"653 217 CURVE SMOOTH",
"716 260 OFFCURVE",
"804 333 OFFCURVE",
"804 417 CURVE SMOOTH",
"804 522 OFFCURVE",
"674 573 OFFCURVE",
"589 589 CURVE",
"594 595 OFFCURVE",
"618 620 OFFCURVE",
"618 625 CURVE SMOOTH",
"618 633 OFFCURVE",
"602 634 OFFCURVE",
"597 634 CURVE SMOOTH",
"583 634 OFFCURVE",
"555 628 OFFCURVE",
"545 618 CURVE SMOOTH",
"540 613 OFFCURVE",
"535 604 OFFCURVE",
"530 598 CURVE",
"507 600 OFFCURVE",
"483 602 OFFCURVE",
"459 602 CURVE SMOOTH",
"362 602 OFFCURVE",
"264 583 OFFCURVE",
"172 551 CURVE SMOOTH",
"121 533 OFFCURVE",
"12 487 OFFCURVE",
"12 420 CURVE SMOOTH",
"12 358 OFFCURVE",
"107 322 OFFCURVE",
"154 308 CURVE SMOOTH",
"156 307 OFFCURVE",
"159 307 OFFCURVE",
"161 307 CURVE SMOOTH",
"164 307 OFFCURVE",
"177 308 OFFCURVE",
"177 312 CURVE SMOOTH",
"177 316 OFFCURVE",
"170 318 OFFCURVE",
"168 319 CURVE SMOOTH",
"129 335 OFFCURVE",
"75 362 OFFCURVE",
"75 412 CURVE SMOOTH",
"75 476 OFFCURVE",
"165 519 OFFCURVE",
"215 537 CURVE SMOOTH",
"299 568 OFFCURVE",
"392 585 OFFCURVE",
"482 585 CURVE SMOOTH",
"495 585 OFFCURVE",
"507 585 OFFCURVE",
"519 584 CURVE",
"510 572 OFFCURVE",
"481 542 OFFCURVE",
"483 527 CURVE",
"435 467 OFFCURVE",
"391 404 OFFCURVE",
"349 341 CURVE",
"288 318 OFFCURVE",
"163 262 OFFCURVE",
"163 184 CURVE SMOOTH",
"163 154 OFFCURVE",
"189 136 OFFCURVE",
"214 127 CURVE",
"187 78 OFFCURVE",
"137 -16 OFFCURVE",
"137 -73 CURVE SMOOTH",
"137 -102 OFFCURVE",
"151 -118 OFFCURVE",
"181 -118 CURVE SMOOTH"
);
},
{
closed = 1;
nodes = (
"212 158 OFFCURVE",
"201 172 OFFCURVE",
"201 190 CURVE SMOOTH",
"201 242 OFFCURVE",
"291 298 OFFCURVE",
"333 317 CURVE",
"296 262 OFFCURVE",
"260 206 OFFCURVE",
"226 148 CURVE"
);
},
{
closed = 1;
nodes = (
"301 125 OFFCURVE",
"284 127 OFFCURVE",
"267 131 CURVE",
"305 205 OFFCURVE",
"349 275 OFFCURVE",
"397 343 CURVE",
"418 350 OFFCURVE",
"440 356 OFFCURVE",
"463 362 CURVE SMOOTH",
"474 365 OFFCURVE",
"486 367 OFFCURVE",
"497 370 CURVE SMOOTH",
"500 371 OFFCURVE",
"507 375 OFFCURVE",
"507 380 CURVE SMOOTH",
"507 382 OFFCURVE",
"505 382 OFFCURVE",
"503 382 CURVE SMOOTH",
"485 382 OFFCURVE",
"428 366 OFFCURVE",
"409 360 CURVE",
"462 435 OFFCURVE",
"519 508 OFFCURVE",
"579 578 CURVE",
"651 566 OFFCURVE",
"768 529 OFFCURVE",
"768 438 CURVE SMOOTH",
"768 288 OFFCURVE",
"452 125 OFFCURVE",
"318 125 CURVE SMOOTH"
);
}
);
width = 671;
}
);
note = P;
unicode = 0050;
},
{
glyphname = Thorn;
lastChange = "2021-07-22 18:30:39 +0000";
layers = (
{
layerId = "5758FC1C-8DB2-4040-8B3F-38A5D3FE42F4";
paths = (
{
closed = 1;
nodes = (
"51 -109 OFFCURVE",
"49 -92 OFFCURVE",
"49 -74 CURVE SMOOTH",
"49 -16 OFFCURVE",
"68 65 OFFCURVE",
"129 184 CURVE",
"152 168 OFFCURVE",
"185 165 OFFCURVE",
"216 165 CURVE SMOOTH",
"301 165 OFFCURVE",
"458 230 OFFCURVE",
"474 355 CURVE SMOOTH",
"482 428 OFFCURVE",
"421 501 OFFCURVE",
"307 501 CURVE",
"314 511 OFFCURVE",
"356 557 OFFCURVE",
"347 563 CURVE SMOOTH",
"341 567 OFFCURVE",
"335 569 OFFCURVE",
"329 569 CURVE SMOOTH",
"284 569 OFFCURVE",
"220 470 OFFCURVE",
"131 279 CURVE",
"15 8 OFFCURVE",
"10 -6 OFFCURVE",
"10 -58 CURVE SMOOTH",
"10 -87 OFFCURVE",
"18 -123 OFFCURVE",
"54 -123 CURVE"
);
},
{
closed = 1;
nodes = (
"202 188 OFFCURVE",
"161 196 OFFCURVE",
"147 220 CURVE",
"158 243 OFFCURVE",
"236 417 OFFCURVE",
"264 459 CURVE",
"345 459 OFFCURVE",
"437 432 OFFCURVE",
"437 359 CURVE SMOOTH",
"437 273 OFFCURVE",
"304 188 OFFCURVE",
"229 188 CURVE SMOOTH"
);
}
);
width = 375;
}
);
unicode = 00DE;
},
{
glyphname = Q;
lastChange = "2021-07-22 18:30:39 +0000";
layers = (
{
layerId = "5758FC1C-8DB2-4040-8B3F-38A5D3FE42F4";
paths = (
{
closed = 1;
nodes = (
"670 -198 OFFCURVE",
"708 -186 OFFCURVE",
"708 -144 CURVE SMOOTH",
"708 -133 OFFCURVE",
"698 -86 OFFCURVE",
"685 -86 CURVE SMOOTH",
"682 -86 OFFCURVE",
"680 -88 OFFCURVE",
"680 -91 CURVE SMOOTH",
"680 -100 OFFCURVE",
"686 -109 OFFCURVE",
"686 -120 CURVE SMOOTH",
"686 -159 OFFCURVE",
"648 -175 OFFCURVE",
"615 -175 CURVE SMOOTH",
"518 -175 OFFCURVE",
"398 -73 OFFCURVE",
"338 -4 CURVE",
"418 23 OFFCURVE",
"488 75 OFFCURVE",
"539 142 CURVE SMOOTH",
"581 197 OFFCURVE",
"615 263 OFFCURVE",
"615 333 CURVE SMOOTH",
"615 409 OFFCURVE",
"576 473 OFFCURVE",
"523 524 CURVE",
"558 515 OFFCURVE",
"587 500 OFFCURVE",
"617 480 CURVE SMOOTH",
"620 478 OFFCURVE",
"624 476 OFFCURVE",
"628 476 CURVE SMOOTH",
"632 476 OFFCURVE",
"635 478 OFFCURVE",
"635 483 CURVE SMOOTH",
"635 490 OFFCURVE",
"629 495 OFFCURVE",
"624 499 CURVE SMOOTH",
"589 522 OFFCURVE",
"539 539 OFFCURVE",
"499 545 CURVE",
"444 587 OFFCURVE",
"350 607 OFFCURVE",
"282 607 CURVE SMOOTH",
"182 607 OFFCURVE",
"86 568 OFFCURVE",
"86 453 CURVE SMOOTH",
"86 424 OFFCURVE",
"92 395 OFFCURVE",
"100 368 CURVE",
"52 310 OFFCURVE",
"9 230 OFFCURVE",
"9 154 CURVE SMOOTH",
"9 33 OFFCURVE",
"113 -23 OFFCURVE",
"221 -23 CURVE SMOOTH",
"248 -23 OFFCURVE",
"276 -20 OFFCURVE",
"302 -14 CURVE",
"376 -95 OFFCURVE",
"522 -198 OFFCURVE",
"635 -198 CURVE SMOOTH"
);
},
{
closed = 1;
nodes = (
"141 4 OFFCURVE",
"51 55 OFFCURVE",
"51 166 CURVE SMOOTH",
"51 224 OFFCURVE",
"77 282 OFFCURVE",
"110 330 CURVE",
"148 215 OFFCURVE",
"206 99 OFFCURVE",
"284 6 CURVE",
"270 5 OFFCURVE",
"256 4 OFFCURVE",
"241 4 CURVE SMOOTH"
);
},
{
closed = 1;
nodes = (
"241 118 OFFCURVE",
"185 242 OFFCURVE",
"137 365 CURVE",
"212 453 OFFCURVE",
"328 525 OFFCURVE",
"445 531 CURVE",
"521 486 OFFCURVE",
"574 411 OFFCURVE",
"574 320 CURVE SMOOTH",
"574 253 OFFCURVE",
"545 188 OFFCURVE",
"506 134 CURVE SMOOTH",
"462 74 OFFCURVE",
"396 33 OFFCURVE",
"324 14 CURVE"
);
},
{
closed = 1;
nodes = (
"123 413 OFFCURVE",
"122 430 OFFCURVE",
"122 447 CURVE SMOOTH",
"122 539 OFFCURVE",
"181 582 OFFCURVE",
"268 582 CURVE SMOOTH",
"318 582 OFFCURVE",
"369 568 OFFCURVE",
"414 547 CURVE",
"304 536 OFFCURVE",
"202 476 OFFCURVE",
"127 397 CURVE"
);
}
);
width = 636;
}
);
note = Q;
unicode = 0051;
},
{
glyphname = R;
lastChange = "2021-07-22 18:30:39 +0000";
layers = (
{
anchors = (
{
name = bottom;
position = "{537, -75}";
},
{
name = top;
position = "{810, 560}";
}
);
layerId = "5758FC1C-8DB2-4040-8B3F-38A5D3FE42F4";
paths = (
{
closed = 1;
nodes = (
"285 -118 OFFCURVE",
"350 -105 OFFCURVE",
"350 -96 CURVE SMOOTH",
"350 -94 OFFCURVE",
"343 -94 OFFCURVE",
"342 -94 CURVE SMOOTH",
"331 -94 OFFCURVE",
"320 -99 OFFCURVE",
"308 -99 CURVE SMOOTH",
"293 -99 OFFCURVE",
"291 -82 OFFCURVE",
"291 -70 CURVE SMOOTH",
"291 -4 OFFCURVE",
"349 115 OFFCURVE",
"382 173 CURVE",
"395 172 OFFCURVE",
"408 171 OFFCURVE",
"421 171 CURVE SMOOTH",
"463 171 OFFCURVE",
"507 180 OFFCURVE",
"548 191 CURVE",
"601 123 OFFCURVE",
"748 -90 OFFCURVE",
"839 -90 CURVE SMOOTH",
"872 -90 OFFCURVE",
"882 -61 OFFCURVE",
"882 -33 CURVE SMOOTH",
"882 -26 OFFCURVE",
"881 9 OFFCURVE",
"874 9 CURVE SMOOTH",
"870 9 OFFCURVE",
"869 6 OFFCURVE",
"869 4 CURVE SMOOTH",
"869 -15 OFFCURVE",
"872 -63 OFFCURVE",
"843 -63 CURVE SMOOTH",
"834 -63 OFFCURVE",
"825 -58 OFFCURVE",
"818 -53 CURVE SMOOTH",
"761 -16 OFFCURVE",
"642 146 OFFCURVE",
"593 205 CURVE",
"678 234 OFFCURVE",
"835 311 OFFCURVE",
"835 414 CURVE SMOOTH",
"835 497 OFFCURVE",
"734 550 OFFCURVE",
"668 574 CURVE",
"673 581 OFFCURVE",
"710 620 OFFCURVE",
"710 625 CURVE SMOOTH",
"710 633 OFFCURVE",
"695 634 OFFCURVE",
"690 634 CURVE SMOOTH",
"675 634 OFFCURVE",
"648 628 OFFCURVE",
"637 618 CURVE SMOOTH",
"630 611 OFFCURVE",
"623 598 OFFCURVE",
"616 590 CURVE",
"549 607 OFFCURVE",
"480 615 OFFCURVE",
"411 615 CURVE SMOOTH",
"323 615 OFFCURVE",
"235 602 OFFCURVE",
"151 575 CURVE SMOOTH",
"106 560 OFFCURVE",
"5 520 OFFCURVE",
"5 461 CURVE SMOOTH",
"5 407 OFFCURVE",
"93 376 OFFCURVE",
"134 364 CURVE",
"136 363 OFFCURVE",
"139 363 OFFCURVE",
"141 363 CURVE SMOOTH",
"143 363 OFFCURVE",
"155 364 OFFCURVE",
"155 368 CURVE SMOOTH",
"155 371 OFFCURVE",
"148 373 OFFCURVE",
"147 374 CURVE",
"113 387 OFFCURVE",
"62 410 OFFCURVE",
"62 454 CURVE SMOOTH",
"62 510 OFFCURVE",
"146 548 OFFCURVE",
"190 562 CURVE SMOOTH",
"267 589 OFFCURVE",
"351 600 OFFCURVE",
"432 600 CURVE SMOOTH",
"492 600 OFFCURVE",
"551 594 OFFCURVE",
"609 581 CURVE",
"599 569 OFFCURVE",
"573 542 OFFCURVE",
"575 527 CURVE",
"530 470 OFFCURVE",
"488 410 OFFCURVE",
"447 350 CURVE",
"435 356 OFFCURVE",
"422 359 OFFCURVE",
"408 359 CURVE SMOOTH",
"356 359 OFFCURVE",
"298 291 OFFCURVE",
"298 241 CURVE SMOOTH",
"298 239 OFFCURVE",
"298 236 OFFCURVE",
"301 236 CURVE SMOOTH",
"322 236 OFFCURVE",
"316 326 OFFCURVE",
"379 326 CURVE SMOOTH",
"394 326 OFFCURVE",
"409 320 OFFCURVE",
"422 313 CURVE",
"396 274 OFFCURVE",
"371 235 OFFCURVE",
"346 195 CURVE",
"320 205 OFFCURVE",
"280 226 OFFCURVE",
"280 259 CURVE SMOOTH",
"280 283 OFFCURVE",
"301 295 OFFCURVE",
"301 305 CURVE SMOOTH",
"301 309 OFFCURVE",
"298 310 OFFCURVE",
"295 310 CURVE SMOOTH",
"271 310 OFFCURVE",
"256 276 OFFCURVE",
"256 256 CURVE SMOOTH",
"256 214 OFFCURVE",
"305 192 OFFCURVE",
"338 182 CURVE",
"303 124 OFFCURVE",
"229 -4 OFFCURVE",
"229 -73 CURVE SMOOTH",
"229 -102 OFFCURVE",
"243 -118 OFFCURVE",
"273 -118 CURVE SMOOTH"
);
},
{
closed = 1;
nodes = (
"406 183 OFFCURVE",
"397 183 OFFCURVE",
"388 185 CURVE",
"409 221 OFFCURVE",
"431 256 OFFCURVE",
"454 291 CURVE",
"484 267 OFFCURVE",
"509 238 OFFCURVE",
"534 208 CURVE",
"499 196 OFFCURVE",
"453 183 OFFCURVE",
"415 183 CURVE SMOOTH"
);
},
{
closed = 1;
nodes = (
"546 261 OFFCURVE",
"515 297 OFFCURVE",
"479 328 CURVE",
"535 411 OFFCURVE",
"596 490 OFFCURVE",
"661 566 CURVE",
"718 546 OFFCURVE",
"801 504 OFFCURVE",
"801 434 CURVE SMOOTH",
"801 339 OFFCURVE",
"652 257 OFFCURVE",
"577 225 CURVE"
);
}
);
width = 802;
}
);
note = R;
unicode = 0052;
},
{
glyphname = S;
lastChange = "2021-07-22 18:30:39 +0000";
layers = (
{
anchors = (
{
name = bottom;
position = "{179, -88}";
},
{
name = top;
position = "{660, 620}";
}
);
layerId = "5758FC1C-8DB2-4040-8B3F-38A5D3FE42F4";
paths = (
{
closed = 1;
nodes = (
"285 -100 OFFCURVE",
"353 -84 OFFCURVE",
"416 -58 CURVE SMOOTH",
"503 -22 OFFCURVE",
"691 76 OFFCURVE",
"691 187 CURVE SMOOTH",
"691 274 OFFCURVE",
"572 320 OFFCURVE",
"505 342 CURVE SMOOTH",
"461 356 OFFCURVE",
"369 379 OFFCURVE",
"369 439 CURVE SMOOTH",
"369 512 OFFCURVE",
"477 561 OFFCURVE",
"535 577 CURVE SMOOTH",
"565 586 OFFCURVE",
"595 591 OFFCURVE",
"626 591 CURVE SMOOTH",
"671 591 OFFCURVE",
"723 579 OFFCURVE",
"749 539 CURVE",
"737 518 OFFCURVE",
"675 443 OFFCURVE",
"675 429 CURVE SMOOTH",
"675 418 OFFCURVE",
"707 414 OFFCURVE",
"716 414 CURVE SMOOTH",
"722 414 OFFCURVE",
"729 415 OFFCURVE",
"734 420 CURVE SMOOTH",
"753 442 OFFCURVE",
"763 482 OFFCURVE",
"775 508 CURVE",
"778 505 OFFCURVE",
"790 482 OFFCURVE",
"790 482 CURVE",
"797 485 OFFCURVE",
"799 500 OFFCURVE",
"799 506 CURVE SMOOTH",
"799 518 OFFCURVE",
"788 538 OFFCURVE",
"781 548 CURVE",
"785 558 OFFCURVE",
"805 607 OFFCURVE",
"805 616 CURVE SMOOTH",
"805 620 OFFCURVE",
"805 630 OFFCURVE",
"798 630 CURVE SMOOTH",
"790 630 OFFCURVE",
"788 620 OFFCURVE",
"787 614 CURVE SMOOTH",
"784 598 OFFCURVE",
"775 582 OFFCURVE",
"766 568 CURVE",
"737 607 OFFCURVE",
"677 616 OFFCURVE",
"632 616 CURVE SMOOTH",
"527 616 OFFCURVE",
"315 552 OFFCURVE",
"315 421 CURVE SMOOTH",
"315 418 OFFCURVE",
"315 415 OFFCURVE",
"316 412 CURVE",
"321 368 OFFCURVE",
"391 351 OFFCURVE",
"426 341 CURVE SMOOTH",
"449 333 OFFCURVE",
"473 327 OFFCURVE",
"495 318 CURVE SMOOTH",
"547 299 OFFCURVE",
"620 263 OFFCURVE",
"620 198 CURVE SMOOTH",
"620 94 OFFCURVE",
"439 -4 OFFCURVE",
"354 -32 CURVE SMOOTH",
"305 -47 OFFCURVE",
"252 -59 OFFCURVE",
"201 -59 CURVE SMOOTH",
"142 -59 OFFCURVE",
"57 -38 OFFCURVE",
"57 36 CURVE SMOOTH",
"57 101 OFFCURVE",
"125 154 OFFCURVE",
"177 182 CURVE SMOOTH",
"194 192 OFFCURVE",
"212 199 OFFCURVE",
"230 207 CURVE SMOOTH",
"234 209 OFFCURVE",
"244 213 OFFCURVE",
"244 219 CURVE SMOOTH",
"244 222 OFFCURVE",
"239 223 OFFCURVE",
"237 223 CURVE SMOOTH",
"225 223 OFFCURVE",
"210 216 OFFCURVE",
"200 211 CURVE SMOOTH",
"135 178 OFFCURVE",
"15 104 OFFCURVE",
"15 19 CURVE SMOOTH",
"15 -74 OFFCURVE",
"145 -100 OFFCURVE",
"216 -100 CURVE SMOOTH"
);
}
);
width = 721;
}
);
note = S;
unicode = 0053;
},
{
color = 3;
glyphname = Germandbls;
lastChange = "2021-07-22 18:30:39 +0000";
layers = (
{
layerId = "5758FC1C-8DB2-4040-8B3F-38A5D3FE42F4";
paths = (
{
closed = 1;
nodes = (
"-123 -183 OFFCURVE",
"-114 -181 OFFCURVE",
"-107 -177 CURVE SMOOTH",
"-34 -133 OFFCURVE",
"44 25 OFFCURVE",
"99 124 CURVE SMOOTH",
"184 280 OFFCURVE",
"259 414 OFFCURVE",
"329 498 CURVE SMOOTH",
"376 556 OFFCURVE",
"416 591 OFFCURVE",
"476 591 CURVE SMOOTH",
"506 591 OFFCURVE",
"531 563 OFFCURVE",
"531 517 CURVE SMOOTH",
"531 478 OFFCURVE",
"513 427 OFFCURVE",
"466 370 CURVE SMOOTH",
"445 344 OFFCURVE",
"406 321 OFFCURVE",
"387 310 CURVE",
"368 312 OFFCURVE",
"352 313 OFFCURVE",
"342 312 CURVE SMOOTH",
"305 308 OFFCURVE",
"281 294 OFFCURVE",
"281 284 CURVE SMOOTH",
"281 277 OFFCURVE",
"291 272 OFFCURVE",
"313 272 CURVE SMOOTH",
"340 272 OFFCURVE",
"370 278 OFFCURVE",
"397 289 CURVE",
"458 282 OFFCURVE",
"488 250 OFFCURVE",
"488 207 CURVE SMOOTH",
"488 179 OFFCURVE",
"476 147 OFFCURVE",
"453 113 CURVE SMOOTH",
"406 45 OFFCURVE",
"256 -39 OFFCURVE",
"163 -39 CURVE SMOOTH",
"143 -39 OFFCURVE",
"121 -31 OFFCURVE",
"125 -7 CURVE SMOOTH",
"133 38 OFFCURVE",
"205 85 OFFCURVE",
"241 105 CURVE SMOOTH",
"258 114 OFFCURVE",
"277 122 OFFCURVE",
"299 128 CURVE",
"308 132 OFFCURVE",
"313 139 OFFCURVE",
"313 145 CURVE SMOOTH",
"313 149 OFFCURVE",
"310 152 OFFCURVE",
"304 152 CURVE SMOOTH",
"302 152 OFFCURVE",
"300 152 OFFCURVE",
"297 151 CURVE SMOOTH",
"279 145 OFFCURVE",
"262 139 OFFCURVE",
"248 133 CURVE SMOOTH",
"194 110 OFFCURVE",
"86 49 OFFCURVE",
"74 -18 CURVE SMOOTH",
"67 -56 OFFCURVE",
"105 -66 OFFCURVE",
"137 -66 CURVE SMOOTH",
"323 -66 OFFCURVE",
"537 81 OFFCURVE",
"556 194 CURVE SMOOTH",
"557 199 OFFCURVE",
"557 203 OFFCURVE",
"557 207 CURVE SMOOTH",
"557 246 OFFCURVE",
"527 270 OFFCURVE",
"496 286 CURVE SMOOTH",
"484 291 OFFCURVE",
"447 300 OFFCURVE",
"412 307 CURVE",
"515 367 OFFCURVE",
"574 467 OFFCURVE",
"574 538 CURVE SMOOTH",
"574 586 OFFCURVE",
"548 620 OFFCURVE",
"490 620 CURVE SMOOTH",
"306 620 OFFCURVE",
"135 287 OFFCURVE",
"87 187 CURVE SMOOTH",
"37 85 OFFCURVE",
"-77 -130 OFFCURVE",
"-131 -168 CURVE SMOOTH",
"-137 -172 OFFCURVE",
"-140 -176 OFFCURVE",
"-140 -178 CURVE SMOOTH",
"-140 -181 OFFCURVE",
"-136 -183 OFFCURVE",
"-130 -183 CURVE SMOOTH"
);
}
);
width = 540;
}
);
unicode = 1E9E;
},
{
glyphname = Schwa;
lastChange = "2021-07-22 18:30:39 +0000";
layers = (
{
layerId = "5758FC1C-8DB2-4040-8B3F-38A5D3FE42F4";
paths = (
{
closed = 1;
nodes = (
"124 -41 OFFCURVE",
"131 -41 OFFCURVE",
"139 -40 CURVE SMOOTH",
"324 -16 OFFCURVE",
"521 249 OFFCURVE",
"569 447 CURVE SMOOTH",
"577 480 OFFCURVE",
"581 508 OFFCURVE",
"581 530 CURVE SMOOTH",
"581 587 OFFCURVE",
"553 608 OFFCURVE",
"488 608 CURVE SMOOTH",
"473 608 OFFCURVE",
"456 607 OFFCURVE",
"437 605 CURVE SMOOTH",
"318 592 OFFCURVE",
"121 427 OFFCURVE",
"93 327 CURVE SMOOTH",
"91 321 OFFCURVE",
"95 316 OFFCURVE",
"97 316 CURVE SMOOTH",
"98 316 OFFCURVE",
"99 316 OFFCURVE",
"99 317 CURVE SMOOTH",
"168 457 OFFCURVE",
"353 578 OFFCURVE",
"452 578 CURVE SMOOTH",
"492 578 OFFCURVE",
"518 559 OFFCURVE",
"518 514 CURVE SMOOTH",
"518 443 OFFCURVE",
"478 340 OFFCURVE",
"454 291 CURVE",
"351 291 OFFCURVE",
"243 267 OFFCURVE",
"161 208 CURVE SMOOTH",
"81 150 OFFCURVE",
"38 78 OFFCURVE",
"38 27 CURVE SMOOTH",
"38 -13 OFFCURVE",
"64 -41 OFFCURVE",
"117 -41 CURVE SMOOTH"
);
},
{
closed = 1;
nodes = (
"97 -5 OFFCURVE",
"82 13 OFFCURVE",
"82 39 CURVE SMOOTH",
"82 114 OFFCURVE",
"203 257 OFFCURVE",
"437 267 CURVE",
"365 136 OFFCURVE",
"288 75 OFFCURVE",
"242 41 CURVE SMOOTH",
"192 8 OFFCURVE",
"154 -5 OFFCURVE",
"128 -5 CURVE SMOOTH"
);
}
);
width = 555;
}
);
unicode = 018F;
},
{
glyphname = T;
lastChange = "2021-07-22 18:30:39 +0000";
layers = (
{
anchors = (
{
name = bottom;
position = "{232, -99}";
},
{
name = center;
position = "{411, 310}";
},
{
name = top;
position = "{641, 620}";
}
);
layerId = "5758FC1C-8DB2-4040-8B3F-38A5D3FE42F4";
paths = (
{
closed = 1;
nodes = (
"251 -118 OFFCURVE",
"315 -105 OFFCURVE",
"315 -96 CURVE SMOOTH",
"315 -94 OFFCURVE",
"309 -94 OFFCURVE",
"308 -94 CURVE SMOOTH",
"296 -94 OFFCURVE",
"285 -99 OFFCURVE",
"274 -99 CURVE SMOOTH",
"259 -99 OFFCURVE",
"257 -82 OFFCURVE",
"257 -70 CURVE SMOOTH",
"257 -51 OFFCURVE",
"262 -30 OFFCURVE",
"267 -12 CURVE SMOOTH",
"322 178 OFFCURVE",
"495 410 OFFCURVE",
"622 561 CURVE",
"675 556 OFFCURVE",
"727 550 OFFCURVE",
"780 542 CURVE SMOOTH",
"802 538 OFFCURVE",
"827 535 OFFCURVE",
"848 528 CURVE SMOOTH",
"852 527 OFFCURVE",
"854 525 OFFCURVE",
"854 521 CURVE SMOOTH",
"854 498 OFFCURVE",
"817 452 OFFCURVE",
"817 427 CURVE SMOOTH",
"817 425 OFFCURVE",
"817 422 OFFCURVE",
"820 422 CURVE SMOOTH",
"825 422 OFFCURVE",
"833 434 OFFCURVE",
"836 438 CURVE SMOOTH",
"863 476 OFFCURVE",
"889 529 OFFCURVE",
"933 551 CURVE SMOOTH",
"938 554 OFFCURVE",
"943 556 OFFCURVE",
"943 563 CURVE SMOOTH",
"943 572 OFFCURVE",
"933 583 OFFCURVE",
"924 583 CURVE SMOOTH",
"912 583 OFFCURVE",
"905 556 OFFCURVE",
"871 556 CURVE SMOOTH",
"794 556 OFFCURVE",
"715 568 OFFCURVE",
"639 580 CURVE",
"644 586 OFFCURVE",
"675 620 OFFCURVE",
"675 625 CURVE SMOOTH",
"675 633 OFFCURVE",
"660 634 OFFCURVE",
"655 634 CURVE SMOOTH",
"641 634 OFFCURVE",
"613 628 OFFCURVE",
"603 618 CURVE SMOOTH",
"595 610 OFFCURVE",
"588 598 OFFCURVE",
"581 589 CURVE",
"498 604 OFFCURVE",
"416 617 OFFCURVE",
"332 617 CURVE SMOOTH",
"218 617 OFFCURVE",
"62 595 OFFCURVE",
"23 467 CURVE SMOOTH",
"20 457 OFFCURVE",
"18 446 OFFCURVE",
"18 435 CURVE SMOOTH",
"18 356 OFFCURVE",
"103 309 OFFCURVE",
"168 287 CURVE SMOOTH",
"174 285 OFFCURVE",
"180 283 OFFCURVE",
"186 283 CURVE SMOOTH",
"187 283 OFFCURVE",
"191 283 OFFCURVE",
"191 286 CURVE SMOOTH",
"191 291 OFFCURVE",
"179 296 OFFCURVE",
"175 298 CURVE SMOOTH",
"117 324 OFFCURVE",
"44 379 OFFCURVE",
"44 449 CURVE SMOOTH",
"44 566 OFFCURVE",
"346 570 OFFCURVE",
"420 570 CURVE SMOOTH",
"467 570 OFFCURVE",
"515 568 OFFCURVE",
"562 565 CURVE",
"554 555 OFFCURVE",
"539 541 OFFCURVE",
"540 527 CURVE",
"453 416 OFFCURVE",
"195 53 OFFCURVE",
"195 -73 CURVE SMOOTH",
"195 -102 OFFCURVE",
"209 -118 OFFCURVE",
"239 -118 CURVE SMOOTH"
);
}
);
width = 514;
}
);
note = T;
unicode = 0054;
},
{
glyphname = U;
lastChange = "2021-07-22 18:30:39 +0000";
layers = (
{
anchors = (
{
name = bottom;
position = "{359, -75}";
},
{
name = ogonek;
position = "{661, -193}";
},
{
name = top;
position = "{709, 620}";
},
{
name = topright;
position = "{895, 620}";
}
);
layerId = "5758FC1C-8DB2-4040-8B3F-38A5D3FE42F4";
paths = (
{
closed = 1;
nodes = (
"378 -75 OFFCURVE",
"419 -60 OFFCURVE",
"451 -39 CURVE SMOOTH",
"569 37 OFFCURVE",
"680 212 OFFCURVE",
"730 341 CURVE SMOOTH",
"739 363 OFFCURVE",
"756 413 OFFCURVE",
"756 436 CURVE SMOOTH",
"756 443 OFFCURVE",
"751 446 OFFCURVE",
"745 446 CURVE SMOOTH",
"740 446 OFFCURVE",
"737 444 OFFCURVE",
"736 440 CURVE SMOOTH",
"728 399 OFFCURVE",
"723 368 OFFCURVE",
"708 329 CURVE SMOOTH",
"662 205 OFFCURVE",
"551 52 OFFCURVE",
"433 -13 CURVE SMOOTH",
"410 -26 OFFCURVE",
"381 -39 OFFCURVE",
"354 -39 CURVE SMOOTH",
"321 -39 OFFCURVE",
"309 -17 OFFCURVE",
"309 14 CURVE SMOOTH",
"309 32 OFFCURVE",
"313 50 OFFCURVE",
"318 67 CURVE SMOOTH",
"355 198 OFFCURVE",
"543 427 OFFCURVE",
"543 544 CURVE SMOOTH",
"543 614 OFFCURVE",
"473 631 OFFCURVE",
"417 631 CURVE SMOOTH",
"320 631 OFFCURVE",
"201 588 OFFCURVE",
"120 537 CURVE SMOOTH",
"79 511 OFFCURVE",
"6 457 OFFCURVE",
"6 402 CURVE SMOOTH",
"6 340 OFFCURVE",
"98 320 OFFCURVE",
"145 312 CURVE",
"148 311 OFFCURVE",
"152 311 OFFCURVE",
"156 311 CURVE SMOOTH",
"158 311 OFFCURVE",
"165 311 OFFCURVE",
"165 314 CURVE SMOOTH",
"165 319 OFFCURVE",
"152 323 OFFCURVE",
"149 324 CURVE SMOOTH",
"110 338 OFFCURVE",
"54 360 OFFCURVE",
"54 410 CURVE SMOOTH",
"54 457 OFFCURVE",
"109 500 OFFCURVE",
"145 523 CURVE SMOOTH",
"217 568 OFFCURVE",
"326 610 OFFCURVE",
"411 610 CURVE SMOOTH",
"449 610 OFFCURVE",
"501 600 OFFCURVE",
"501 552 CURVE SMOOTH",
"501 549 OFFCURVE",
"501 545 OFFCURVE",
"500 542 CURVE",
"474 374 OFFCURVE",
"251 142 OFFCURVE",
"251 6 CURVE SMOOTH",
"251 -48 OFFCURVE",
"287 -75 OFFCURVE",
"339 -75 CURVE SMOOTH"
);
},
{
closed = 1;
nodes = (
"646 -210 OFFCURVE",
"701 -199 OFFCURVE",
"701 -191 CURVE SMOOTH",
"701 -188 OFFCURVE",
"694 -188 OFFCURVE",
"693 -188 CURVE SMOOTH",
"682 -188 OFFCURVE",
"672 -193 OFFCURVE",
"661 -193 CURVE SMOOTH",
"635 -193 OFFCURVE",
"637 -135 OFFCURVE",
"637 -119 CURVE SMOOTH",
"637 -114 OFFCURVE",
"637 -110 OFFCURVE",
"637 -105 CURVE SMOOTH",
"644 98 OFFCURVE",
"775 341 OFFCURVE",
"882 511 CURVE SMOOTH",
"905 547 OFFCURVE",
"929 582 OFFCURVE",
"953 618 CURVE",
"953 621 LINE SMOOTH",
"953 631 OFFCURVE",
"936 632 OFFCURVE",
"931 632 CURVE SMOOTH",
"915 632 OFFCURVE",
"895 627 OFFCURVE",
"882 616 CURVE",
"874 601 OFFCURVE",
"837 545 OFFCURVE",
"837 533 CURVE SMOOTH",
"837 531 OFFCURVE",
"837 528 OFFCURVE",
"837 526 CURVE",
"815 488 OFFCURVE",
"795 447 OFFCURVE",
"775 408 CURVE SMOOTH",
"712 281 OFFCURVE",
"580 4 OFFCURVE",
"580 -133 CURVE SMOOTH",
"580 -171 OFFCURVE",
"591 -210 OFFCURVE",
"636 -210 CURVE SMOOTH"
);
}
);
width = 756;
}
);
note = U;
unicode = 0055;
},
{
glyphname = V;
lastChange = "2021-07-22 18:30:39 +0000";
layers = (
{
layerId = "5758FC1C-8DB2-4040-8B3F-38A5D3FE42F4";
paths = (
{
closed = 1;
nodes = (
"303 -1 OFFCURVE",
"319 29 OFFCURVE",
"320 31 CURVE SMOOTH",
"349 83 OFFCURVE",
"382 133 OFFCURVE",
"416 182 CURVE SMOOTH",
"503 310 OFFCURVE",
"633 485 OFFCURVE",
"751 582 CURVE SMOOTH",
"779 604 OFFCURVE",
"809 625 OFFCURVE",
"843 637 CURVE SMOOTH",
"849 639 OFFCURVE",
"856 640 OFFCURVE",
"862 640 CURVE SMOOTH",
"879 640 OFFCURVE",
"889 631 OFFCURVE",
"889 614 CURVE SMOOTH",
"889 588 OFFCURVE",
"865 563 OFFCURVE",
"865 559 CURVE SMOOTH",
"865 558 OFFCURVE",
"864 556 OFFCURVE",
"865 556 CURVE SMOOTH",
"882 556 OFFCURVE",
"916 600 OFFCURVE",
"920 618 CURVE SMOOTH",
"921 622 OFFCURVE",
"921 626 OFFCURVE",
"921 630 CURVE SMOOTH",
"921 658 OFFCURVE",
"899 668 OFFCURVE",
"874 668 CURVE SMOOTH",
"856 668 OFFCURVE",
"837 664 OFFCURVE",
"821 657 CURVE SMOOTH",
"655 586 OFFCURVE",
"486 332 OFFCURVE",
"394 182 CURVE SMOOTH",
"365 134 OFFCURVE",
"336 87 OFFCURVE",
"309 38 CURVE SMOOTH",
"305 30 OFFCURVE",
"298 10 OFFCURVE",
"298 2 CURVE SMOOTH",
"298 1 OFFCURVE",
"298 -1 OFFCURVE",
"299 -1 CURVE SMOOTH"
);
},
{
closed = 1;
nodes = (
"262 -70 OFFCURVE",
"278 -51 OFFCURVE",
"283 -33 CURVE SMOOTH",
"289 -10 OFFCURVE",
"293 13 OFFCURVE",
"298 36 CURVE SMOOTH",
"317 141 OFFCURVE",
"329 248 OFFCURVE",
"329 355 CURVE SMOOTH",
"329 386 OFFCURVE",
"328 462 OFFCURVE",
"321 490 CURVE SMOOTH",
"319 502 OFFCURVE",
"291 529 OFFCURVE",
"279 529 CURVE SMOOTH",
"275 529 OFFCURVE",
"274 527 OFFCURVE",
"274 524 CURVE",
"275 521 LINE",
"280 456 OFFCURVE",
"289 391 OFFCURVE",
"289 326 CURVE SMOOTH",
"289 195 OFFCURVE",
"269 68 OFFCURVE",
"231 -58 CURVE",
"231 -59 OFFCURVE",
"231 -61 OFFCURVE",
"231 -62 CURVE SMOOTH",
"231 -68 OFFCURVE",
"237 -70 OFFCURVE",
"242 -70 CURVE SMOOTH"
);
},
{
closed = 1;
nodes = (
"241 349 OFFCURVE",
"250 350 OFFCURVE",
"250 354 CURVE SMOOTH",
"250 358 OFFCURVE",
"243 359 OFFCURVE",
"241 359 CURVE SMOOTH",
"219 363 OFFCURVE",
"198 366 OFFCURVE",
"177 372 CURVE SMOOTH",
"131 385 OFFCURVE",
"60 420 OFFCURVE",
"60 477 CURVE SMOOTH",
"60 551 OFFCURVE",
"173 568 OFFCURVE",
"227 568 CURVE SMOOTH",
"321 568 OFFCURVE",
"410 532 OFFCURVE",
"503 532 CURVE SMOOTH",
"536 532 OFFCURVE",
"580 538 OFFCURVE",
"600 568 CURVE SMOOTH",
"601 569 OFFCURVE",
"602 573 OFFCURVE",
"602 575 CURVE SMOOTH",
"602 576 OFFCURVE",
"602 577 OFFCURVE",
"600 577 CURVE SMOOTH",
"597 577 OFFCURVE",
"594 573 OFFCURVE",
"592 571 CURVE SMOOTH",
"577 553 OFFCURVE",
"543 553 OFFCURVE",
"522 553 CURVE SMOOTH",
"416 553 OFFCURVE",
"313 588 OFFCURVE",
"207 588 CURVE SMOOTH",
"148 588 OFFCURVE",
"-1 570 OFFCURVE",
"-1 486 CURVE SMOOTH",
"-1 398 OFFCURVE",
"168 360 OFFCURVE",
"231 350 CURVE SMOOTH",
"233 350 OFFCURVE",
"236 349 OFFCURVE",
"239 349 CURVE SMOOTH"
);
}
);
width = 508;
}
);
note = V;
unicode = 0056;
},
{
glyphname = W;
lastChange = "2021-07-22 18:30:39 +0000";
layers = (
{
anchors = (
{
name = bottom;
position = "{525, 0}";
},
{
name = top;
position = "{836, 557}";
}
);
layerId = "5758FC1C-8DB2-4040-8B3F-38A5D3FE42F4";
paths = (
{
closed = 1;
nodes = (
"847 -17 OFFCURVE",
"960 87 OFFCURVE",
"1017 164 CURVE SMOOTH",
"1044 201 OFFCURVE",
"1067 240 OFFCURVE",
"1085 282 CURVE SMOOTH",
"1106 333 OFFCURVE",
"1121 383 OFFCURVE",
"1121 438 CURVE SMOOTH",
"1121 444 LINE SMOOTH",
"1121 505 OFFCURVE",
"1084 556 OFFCURVE",
"1021 556 CURVE SMOOTH",
"1016 556 OFFCURVE",
"1012 552 OFFCURVE",
"1012 547 CURVE SMOOTH",
"1012 543 OFFCURVE",
"1016 539 OFFCURVE",
"1021 539 CURVE SMOOTH",
"1072 539 OFFCURVE",
"1099 513 OFFCURVE",
"1099 462 CURVE SMOOTH",
"1099 417 OFFCURVE",
"1078 363 OFFCURVE",
"1059 323 CURVE SMOOTH",
"1039 282 OFFCURVE",
"1016 243 OFFCURVE",
"990 205 CURVE SMOOTH",
"948 145 OFFCURVE",
"835 3 OFFCURVE",
"754 3 CURVE SMOOTH",
"698 3 OFFCURVE",
"690 77 OFFCURVE",
"690 119 CURVE SMOOTH",
"690 217 OFFCURVE",
"742 353 OFFCURVE",
"794 435 CURVE SMOOTH",
"805 451 OFFCURVE",
"816 465 OFFCURVE",
"828 480 CURVE",
"828 481 OFFCURVE",
"828 482 OFFCURVE",
"829 482 CURVE",
"826 490 OFFCURVE",
"811 492 OFFCURVE",
"805 492 CURVE SMOOTH",
"801 492 OFFCURVE",
"796 491 OFFCURVE",
"793 489 CURVE",
"739 471 OFFCURVE",
"629 395 OFFCURVE",
"586 356 CURVE SMOOTH",
"543 317 OFFCURVE",
"316 80 OFFCURVE",
"303 45 CURVE SMOOTH",
"300 36 OFFCURVE",
"294 19 OFFCURVE",
"294 8 CURVE SMOOTH",
"294 7 OFFCURVE",
"294 4 OFFCURVE",
"295 4 CURVE SMOOTH",
"300 4 OFFCURVE",
"309 24 OFFCURVE",
"309 25 CURVE",
"324 51 OFFCURVE",
"358 85 OFFCURVE",
"378 108 CURVE SMOOTH",
"443 179 OFFCURVE",
"679 430 OFFCURVE",
"760 455 CURVE",
"686 373 OFFCURVE",
"630 249 OFFCURVE",
"630 136 CURVE SMOOTH",
"630 62 OFFCURVE",
"657 -17 OFFCURVE",
"744 -17 CURVE SMOOTH"
);
},
{
closed = 1;
nodes = (
"222 -66 OFFCURVE",
"228 -59 OFFCURVE",
"232 -54 CURVE SMOOTH",
"255 -24 OFFCURVE",
"274 12 OFFCURVE",
"295 44 CURVE SMOOTH",
"349 132 OFFCURVE",
"529 435 OFFCURVE",
"529 528 CURVE SMOOTH",
"529 596 OFFCURVE",
"450 614 OFFCURVE",
"397 614 CURVE SMOOTH",
"306 614 OFFCURVE",
"193 576 OFFCURVE",
"117 528 CURVE SMOOTH",
"74 500 OFFCURVE",
"6 447 OFFCURVE",
"6 390 CURVE SMOOTH",
"6 325 OFFCURVE",
"96 304 OFFCURVE",
"146 295 CURVE",
"150 295 OFFCURVE",
"154 294 OFFCURVE",
"158 294 CURVE SMOOTH",
"159 294 OFFCURVE",
"166 294 OFFCURVE",
"166 297 CURVE SMOOTH",
"166 302 OFFCURVE",
"152 307 OFFCURVE",
"150 308 CURVE SMOOTH",
"109 322 OFFCURVE",
"49 345 OFFCURVE",
"49 397 CURVE SMOOTH",
"49 443 OFFCURVE",
"98 483 OFFCURVE",
"133 506 CURVE SMOOTH",
"201 552 OFFCURVE",
"311 590 OFFCURVE",
"394 590 CURVE SMOOTH",
"432 590 OFFCURVE",
"487 581 OFFCURVE",
"487 531 CURVE SMOOTH",
"487 416 OFFCURVE",
"273 76 OFFCURVE",
"212 -44 CURVE SMOOTH",
"210 -48 OFFCURVE",
"208 -52 OFFCURVE",
"208 -57 CURVE SMOOTH",
"208 -62 OFFCURVE",
"210 -66 OFFCURVE",
"215 -66 CURVE SMOOTH"
);
}
);
width = 1049;
}
);
note = W;
unicode = 0057;
},
{
glyphname = X;
lastChange = "2021-07-22 18:30:39 +0000";
layers = (
{
layerId = "5758FC1C-8DB2-4040-8B3F-38A5D3FE42F4";
paths = (
{
closed = 1;
nodes = (
"653 -110 OFFCURVE",
"672 -91 OFFCURVE",
"672 -60 CURVE SMOOTH",
"672 -48 OFFCURVE",
"665 -4 OFFCURVE",
"650 -4 CURVE SMOOTH",
"646 -4 OFFCURVE",
"643 -7 OFFCURVE",
"643 -10 CURVE SMOOTH",
"643 -18 OFFCURVE",
"662 -36 OFFCURVE",
"662 -56 CURVE SMOOTH",
"662 -66 OFFCURVE",
"655 -71 OFFCURVE",
"646 -71 CURVE SMOOTH",
"627 -71 OFFCURVE",
"609 -56 OFFCURVE",
"598 -43 CURVE SMOOTH",
"572 -13 OFFCURVE",
"553 27 OFFCURVE",
"534 61 CURVE SMOOTH",
"500 124 OFFCURVE",
"468 189 OFFCURVE",
"437 253 CURVE",
"503 332 OFFCURVE",
"568 413 OFFCURVE",
"632 494 CURVE SMOOTH",
"659 526 OFFCURVE",
"685 558 OFFCURVE",
"711 591 CURVE SMOOTH",
"713 594 OFFCURVE",
"716 597 OFFCURVE",
"716 601 CURVE SMOOTH",
"716 605 OFFCURVE",
"713 608 OFFCURVE",
"709 608 CURVE SMOOTH",
"705 608 OFFCURVE",
"701 604 OFFCURVE",
"698 601 CURVE SMOOTH",
"669 567 OFFCURVE",
"641 531 OFFCURVE",
"613 497 CURVE SMOOTH",
"552 421 OFFCURVE",
"491 345 OFFCURVE",
"427 272 CURVE",
"387 353 OFFCURVE",
"339 454 OFFCURVE",
"291 529 CURVE SMOOTH",
"269 563 OFFCURVE",
"235 594 OFFCURVE",
"192 594 CURVE SMOOTH",
"121 594 OFFCURVE",
"94 518 OFFCURVE",
"94 459 CURVE SMOOTH",
"94 406 OFFCURVE",
"111 343 OFFCURVE",
"134 296 CURVE SMOOTH",
"136 293 OFFCURVE",
"139 289 OFFCURVE",
"143 289 CURVE SMOOTH",
"148 289 OFFCURVE",
"149 294 OFFCURVE",
"149 298 CURVE SMOOTH",
"149 303 OFFCURVE",
"147 309 OFFCURVE",
"146 314 CURVE",
"129 362 OFFCURVE",
"113 412 OFFCURVE",
"113 464 CURVE SMOOTH",
"113 501 OFFCURVE",
"125 559 OFFCURVE",
"173 559 CURVE SMOOTH",
"192 559 OFFCURVE",
"208 550 OFFCURVE",
"221 538 CURVE SMOOTH",
"285 481 OFFCURVE",
"357 312 OFFCURVE",
"393 233 CURVE",
"332 164 OFFCURVE",
"156 -28 OFFCURVE",
"65 -28 CURVE SMOOTH",
"43 -28 OFFCURVE",
"28 -17 OFFCURVE",
"28 6 CURVE SMOOTH",
"28 48 OFFCURVE",
"75 91 OFFCURVE",
"107 112 CURVE SMOOTH",
"124 123 OFFCURVE",
"141 131 OFFCURVE",
"159 140 CURVE SMOOTH",
"161 141 OFFCURVE",
"163 142 OFFCURVE",
"163 144 CURVE SMOOTH",
"163 150 OFFCURVE",
"156 153 OFFCURVE",
"152 153 CURVE SMOOTH",
"150 153 OFFCURVE",
"149 152 OFFCURVE",
"148 152 CURVE",
"78 124 OFFCURVE",
"-11 55 OFFCURVE",
"-11 -28 CURVE SMOOTH",
"-11 -61 OFFCURVE",
"8 -84 OFFCURVE",
"43 -84 CURVE SMOOTH",
"150 -84 OFFCURVE",
"334 134 OFFCURVE",
"402 212 CURVE",
"441 125 OFFCURVE",
"479 31 OFFCURVE",
"530 -49 CURVE SMOOTH",
"550 -81 OFFCURVE",
"583 -110 OFFCURVE",
"623 -110 CURVE SMOOTH"
);
}
);
width = 498;
}
);
note = X;
unicode = 0058;
},
{
glyphname = Y;
lastChange = "2021-07-22 18:30:39 +0000";
layers = (
{
anchors = (
{
name = bottom;
position = "{567, 96}";
},
{
name = top;
position = "{475, 620}";
},
{
name = topleft;
position = "{20, 620}";
}
);
layerId = "5758FC1C-8DB2-4040-8B3F-38A5D3FE42F4";
paths = (
{
closed = 1;
nodes = (
"129 -326 OFFCURVE",
"252 -211 OFFCURVE",
"331 -104 CURVE SMOOTH",
"381 -36 OFFCURVE",
"423 39 OFFCURVE",
"464 113 CURVE",
"470 113 OFFCURVE",
"519 109 OFFCURVE",
"519 118 CURVE SMOOTH",
"519 126 OFFCURVE",
"494 128 OFFCURVE",
"487 128 CURVE SMOOTH",
"473 128 LINE",
"547 262 OFFCURVE",
"617 400 OFFCURVE",
"701 527 CURVE SMOOTH",
"719 553 OFFCURVE",
"737 577 OFFCURVE",
"756 602 CURVE SMOOTH",
"757 603 OFFCURVE",
"757 605 OFFCURVE",
"757 607 CURVE SMOOTH",
"757 619 OFFCURVE",
"736 622 OFFCURVE",
"728 622 CURVE SMOOTH",
"722 622 OFFCURVE",
"695 617 OFFCURVE",
"694 610 CURVE",
"693 611 OFFCURVE",
"691 612 OFFCURVE",
"689 612 CURVE SMOOTH",
"688 612 OFFCURVE",
"686 611 OFFCURVE",
"685 611 CURVE",
"574 542 OFFCURVE",
"380 294 OFFCURVE",
"300 181 CURVE",
"325 257 OFFCURVE",
"347 342 OFFCURVE",
"347 423 CURVE SMOOTH",
"347 510 OFFCURVE",
"314 630 OFFCURVE",
"207 630 CURVE SMOOTH",
"108 630 OFFCURVE",
"54 530 OFFCURVE",
"54 442 CURVE SMOOTH",
"54 385 OFFCURVE",
"86 279 OFFCURVE",
"122 234 CURVE SMOOTH",
"123 233 OFFCURVE",
"126 231 OFFCURVE",
"128 231 CURVE SMOOTH",
"133 231 OFFCURVE",
"137 235 OFFCURVE",
"137 239 CURVE SMOOTH",
"137 241 OFFCURVE",
"136 243 OFFCURVE",
"135 245 CURVE SMOOTH",
"109 284 OFFCURVE",
"89 392 OFFCURVE",
"89 440 CURVE SMOOTH",
"89 500 OFFCURVE",
"119 600 OFFCURVE",
"194 600 CURVE SMOOTH",
"275 600 OFFCURVE",
"289 477 OFFCURVE",
"289 419 CURVE SMOOTH",
"289 311 OFFCURVE",
"262 201 OFFCURVE",
"227 100 CURVE",
"99 69 OFFCURVE",
"-170 -40 OFFCURVE",
"-170 -199 CURVE SMOOTH",
"-170 -285 OFFCURVE",
"-89 -326 OFFCURVE",
"-13 -326 CURVE SMOOTH"
);
},
{
closed = 1;
nodes = (
"-84 -310 OFFCURVE",
"-127 -278 OFFCURVE",
"-127 -219 CURVE SMOOTH",
"-127 -98 OFFCURVE",
"31 0 OFFCURVE",
"126 44 CURVE SMOOTH",
"156 58 OFFCURVE",
"188 70 OFFCURVE",
"220 79 CURVE",
"217 72 OFFCURVE",
"215 64 OFFCURVE",
"215 57 CURVE SMOOTH",
"215 46 OFFCURVE",
"221 30 OFFCURVE",
"234 30 CURVE SMOOTH",
"263 30 OFFCURVE",
"266 83 OFFCURVE",
"273 93 CURVE",
"321 103 OFFCURVE",
"369 110 OFFCURVE",
"418 112 CURVE",
"381 50 OFFCURVE",
"344 -12 OFFCURVE",
"302 -69 CURVE SMOOTH",
"233 -163 OFFCURVE",
"102 -310 OFFCURVE",
"-28 -310 CURVE SMOOTH"
);
},
{
closed = 1;
nodes = (
"285 120 OFFCURVE",
"288 131 OFFCURVE",
"293 140 CURVE SMOOTH",
"344 244 OFFCURVE",
"586 505 OFFCURVE",
"679 585 CURVE",
"671 572 OFFCURVE",
"637 523 OFFCURVE",
"637 509 CURVE SMOOTH",
"637 508 OFFCURVE",
"637 506 OFFCURVE",
"638 505 CURVE",
"570 378 OFFCURVE",
"500 251 OFFCURVE",
"427 127 CURVE",
"378 125 OFFCURVE",
"329 120 OFFCURVE",
"281 111 CURVE"
);
}
);
width = 672;
}
);
note = Y;
unicode = 0059;
},
{
glyphname = Z;
lastChange = "2021-07-26 15:26:06 +0000";
layers = (
{
anchors = (
{
name = bottom;
position = "{331, -75}";
},
{
name = center;
position = "{331, 310}";
},
{
name = top;
position = "{679, 565}";
}
);
layerId = "5758FC1C-8DB2-4040-8B3F-38A5D3FE42F4";
paths = (
{
closed = 1;
nodes = (
"822 -149 OFFCURVE",
"846 -136 OFFCURVE",
"846 -102 CURVE SMOOTH",
"846 -89 OFFCURVE",
"830 -26 OFFCURVE",
"817 -26 CURVE SMOOTH",
"814 -26 OFFCURVE",
"812 -29 OFFCURVE",
"812 -32 CURVE SMOOTH",
"812 -40 OFFCURVE",
"821 -61 OFFCURVE",
"821 -78 CURVE SMOOTH",
"821 -105 OFFCURVE",
"804 -114 OFFCURVE",
"779 -114 CURVE SMOOTH",
"655 -114 OFFCURVE",
"453 -1 OFFCURVE",
"341 55 CURVE",
"405 125 OFFCURVE",
"469 196 OFFCURVE",
"535 264 CURVE",
"594 264 OFFCURVE",
"654 260 OFFCURVE",
"713 260 CURVE SMOOTH",
"718 260 OFFCURVE",
"744 266 OFFCURVE",
"744 271 CURVE SMOOTH",
"744 275 OFFCURVE",
"732 277 OFFCURVE",
"731 277 CURVE SMOOTH",
"679 290 OFFCURVE",
"616 292 OFFCURVE",
"563 293 CURVE",
"644 376 OFFCURVE",
"726 461 OFFCURVE",
"816 533 CURVE",
"837 536 OFFCURVE",
"912 551 OFFCURVE",
"912 579 CURVE SMOOTH",
"912 590 OFFCURVE",
"893 591 OFFCURVE",
"886 591 CURVE SMOOTH",
"850 591 OFFCURVE",
"830 570 OFFCURVE",
"802 551 CURVE",
"793 551 LINE SMOOTH",
"698 551 OFFCURVE",
"602 568 OFFCURVE",
"508 583 CURVE SMOOTH",
"475 588 OFFCURVE",
"441 591 OFFCURVE",
"407 591 CURVE SMOOTH",
"343 591 OFFCURVE",
"248 578 OFFCURVE",
"202 527 CURVE SMOOTH",
"190 514 OFFCURVE",
"182 498 OFFCURVE",
"182 479 CURVE SMOOTH",
"182 397 OFFCURVE",
"332 363 OFFCURVE",
"392 353 CURVE SMOOTH",
"394 353 OFFCURVE",
"397 353 OFFCURVE",
"400 353 CURVE SMOOTH",
"402 353 OFFCURVE",
"411 353 OFFCURVE",
"411 357 CURVE SMOOTH",
"411 361 OFFCURVE",
"405 362 OFFCURVE",
"403 363 CURVE",
"385 366 OFFCURVE",
"368 368 OFFCURVE",
"351 373 CURVE SMOOTH",
"307 385 OFFCURVE",
"241 415 OFFCURVE",
"241 470 CURVE SMOOTH",
"241 550 OFFCURVE",
"365 571 OFFCURVE",
"424 571 CURVE SMOOTH",
"451 571 OFFCURVE",
"477 569 OFFCURVE",
"503 565 CURVE SMOOTH",
"592 551 OFFCURVE",
"682 531 OFFCURVE",
"773 531 CURVE SMOOTH",
"782 531 LINE",
"685 460 OFFCURVE",
"594 378 OFFCURVE",
"508 293 CURVE",
"429 291 OFFCURVE",
"260 281 OFFCURVE",
"226 193 CURVE SMOOTH",
"225 190 OFFCURVE",
"224 188 OFFCURVE",
"224 185 CURVE SMOOTH",
"224 183 OFFCURVE",
"225 181 OFFCURVE",
"228 181 CURVE SMOOTH",
"233 181 OFFCURVE",
"237 188 OFFCURVE",
"239 192 CURVE SMOOTH",
"243 201 OFFCURVE",
"247 208 OFFCURVE",
"255 215 CURVE SMOOTH",
"300 256 OFFCURVE",
"420 262 OFFCURVE",
"478 264 CURVE",
"417 202 OFFCURVE",
"361 138 OFFCURVE",
"303 73 CURVE",
"249 99 OFFCURVE",
"173 134 OFFCURVE",
"112 134 CURVE SMOOTH",
"45 134 OFFCURVE",
"19 92 OFFCURVE",
"19 29 CURVE SMOOTH",
"19 18 OFFCURVE",
"20 -38 OFFCURVE",
"34 -38 CURVE SMOOTH",
"37 -38 OFFCURVE",
"38 -33 OFFCURVE",
"38 -31 CURVE SMOOTH",
"38 -18 OFFCURVE",
"31 -6 OFFCURVE",
"31 7 CURVE SMOOTH",
"31 51 OFFCURVE",
"59 84 OFFCURVE",
"104 84 CURVE SMOOTH",
"141 84 OFFCURVE",
"227 47 OFFCURVE",
"265 32 CURVE",
"234 0 OFFCURVE",
"160 -74 OFFCURVE",
"112 -74 CURVE SMOOTH",
"67 -74 OFFCURVE",
"65 -13 OFFCURVE",
"65 19 CURVE SMOOTH",
"65 25 OFFCURVE",
"65 28 OFFCURVE",
"64 34 CURVE SMOOTH",
"64 39 OFFCURVE",
"63 46 OFFCURVE",
"60 46 CURVE SMOOTH",
"53 46 OFFCURVE",
"52 -1 OFFCURVE",
"52 -11 CURVE SMOOTH",
"52 -51 OFFCURVE",
"60 -109 OFFCURVE",
"111 -109 CURVE SMOOTH",
"174 -109 OFFCURVE",
"263 -25 OFFCURVE",
"304 16 CURVE",
"451 -44 OFFCURVE",
"605 -116 OFFCURVE",
"762 -146 CURVE SMOOTH",
"772 -148 OFFCURVE",
"782 -149 OFFCURVE",
"791 -149 CURVE SMOOTH"
);
}
);
width = 661;
}
);
note = Z;
unicode = 005A;
},
{
glyphname = a;
lastChange = "2021-07-22 18:30:39 +0000";
layers = (
{
anchors = (
{
name = bottom;
position = "{100, 0}";
},
{
name = ogonek;
position = "{287, 10}";
},
{
name = top;
position = "{241, 280}";
}
);
layerId = "5758FC1C-8DB2-4040-8B3F-38A5D3FE42F4";
paths = (
{
closed = 1;
nodes = (
"258 -8 OFFCURVE",
"278 3 OFFCURVE",
"294 15 CURVE SMOOTH",
"306 24 OFFCURVE",
"344 56 OFFCURVE",
"344 74 CURVE SMOOTH",
"344 75 OFFCURVE",
"344 76 OFFCURVE",
"342 76 CURVE SMOOTH",
"337 76 OFFCURVE",
"296 22 OFFCURVE",
"262 22 CURVE SMOOTH",
"242 22 OFFCURVE",
"240 45 OFFCURVE",
"240 60 CURVE SMOOTH",
"240 102 OFFCURVE",
"256 180 OFFCURVE",
"275 216 CURVE",
"283 219 OFFCURVE",
"303 266 OFFCURVE",
"303 277 CURVE SMOOTH",
"303 284 OFFCURVE",
"299 287 OFFCURVE",
"292 287 CURVE SMOOTH",
"284 287 OFFCURVE",
"276 284 OFFCURVE",
"269 281 CURVE",
"255 283 OFFCURVE",
"241 286 OFFCURVE",
"228 286 CURVE SMOOTH",
"210 286 OFFCURVE",
"193 278 OFFCURVE",
"178 270 CURVE",
"96 277 OFFCURVE",
"3 89 OFFCURVE",
"3 19 CURVE SMOOTH",
"3 6 OFFCURVE",
"6 -7 OFFCURVE",
"22 -7 CURVE SMOOTH",
"79 -7 OFFCURVE",
"179 111 OFFCURVE",
"206 156 CURVE",
"199 124 OFFCURVE",
"193 90 OFFCURVE",
"193 57 CURVE SMOOTH",
"193 28 OFFCURVE",
"202 -8 OFFCURVE",
"238 -8 CURVE SMOOTH"
);
},
{
closed = 1;
nodes = (
"53 27 OFFCURVE",
"52 31 OFFCURVE",
"52 34 CURVE SMOOTH",
"52 39 OFFCURVE",
"54 43 OFFCURVE",
"55 47 CURVE SMOOTH",
"71 101 OFFCURVE",
"115 188 OFFCURVE",
"153 228 CURVE SMOOTH",
"169 246 OFFCURVE",
"196 262 OFFCURVE",
"221 262 CURVE SMOOTH",
"227 262 OFFCURVE",
"234 260 OFFCURVE",
"240 258 CURVE",
"197 173 OFFCURVE",
"160 96 OFFCURVE",
"80 39 CURVE SMOOTH",
"75 35 OFFCURVE",
"64 27 OFFCURVE",
"57 27 CURVE SMOOTH"
);
}
);
width = 319;
}
);
note = a;
unicode = 0061;
},
{
glyphname = ae;
lastChange = "2021-07-22 18:30:39 +0000";
layers = (
{
layerId = "5758FC1C-8DB2-4040-8B3F-38A5D3FE42F4";
paths = (
{
closed = 1;
nodes = (
"79 -7 OFFCURVE",
"179 111 OFFCURVE",
"206 156 CURVE",
"199 124 OFFCURVE",
"182 62 OFFCURVE",
"182 29 CURVE SMOOTH",
"182 14 OFFCURVE",
"184 5 OFFCURVE",
"190 -1 CURVE SMOOTH",
"193 -4 OFFCURVE",
"196 -5 OFFCURVE",
"200 -5 CURVE",
"205 -7 OFFCURVE",
"211 -7 OFFCURVE",
"218 -7 CURVE SMOOTH",
"279 -7 OFFCURVE",
"339 18 OFFCURVE",
"386 54 CURVE SMOOTH",
"398 63 OFFCURVE",
"423 90 OFFCURVE",
"423 106 CURVE SMOOTH",
"423 109 OFFCURVE",
"422 110 OFFCURVE",
"420 110 CURVE SMOOTH",
"415 110 OFFCURVE",
"343 16 OFFCURVE",
"275 16 CURVE SMOOTH",
"248 16 OFFCURVE",
"238 37 OFFCURVE",
"238 64 CURVE SMOOTH",
"238 91 OFFCURVE",
"248 123 OFFCURVE",
"262 147 CURVE",
"299 155 OFFCURVE",
"349 161 OFFCURVE",
"387 161 CURVE SMOOTH",
"399 161 OFFCURVE",
"411 158 OFFCURVE",
"423 158 CURVE SMOOTH",
"425 158 OFFCURVE",
"437 158 OFFCURVE",
"437 162 CURVE SMOOTH",
"437 169 OFFCURVE",
"404 176 OFFCURVE",
"398 177 CURVE",
"422 190 OFFCURVE",
"452 242 OFFCURVE",
"452 270 CURVE SMOOTH",
"452 287 OFFCURVE",
"441 295 OFFCURVE",
"425 295 CURVE SMOOTH",
"418 295 OFFCURVE",
"384 290 OFFCURVE",
"384 282 CURVE SMOOTH",
"384 278 OFFCURVE",
"391 277 OFFCURVE",
"394 277 CURVE SMOOTH",
"406 277 OFFCURVE",
"408 277 OFFCURVE",
"408 262 CURVE SMOOTH",
"408 235 OFFCURVE",
"393 200 OFFCURVE",
"378 179 CURVE",
"348 181 OFFCURVE",
"306 178 OFFCURVE",
"276 173 CURVE",
"290 196 OFFCURVE",
"329 242 OFFCURVE",
"352 257 CURVE SMOOTH",
"355 259 OFFCURVE",
"365 266 OFFCURVE",
"365 270 CURVE SMOOTH",
"365 273 OFFCURVE",
"360 273 OFFCURVE",
"358 273 CURVE SMOOTH",
"351 273 OFFCURVE",
"344 272 OFFCURVE",
"337 270 CURVE SMOOTH",
"321 265 OFFCURVE",
"307 257 OFFCURVE",
"293 247 CURVE",
"299 259 OFFCURVE",
"303 272 OFFCURVE",
"303 277 CURVE SMOOTH",
"303 284 OFFCURVE",
"299 287 OFFCURVE",
"292 287 CURVE SMOOTH",
"284 287 OFFCURVE",
"276 284 OFFCURVE",
"269 281 CURVE",
"255 283 OFFCURVE",
"241 286 OFFCURVE",
"228 286 CURVE SMOOTH",
"210 286 OFFCURVE",
"193 278 OFFCURVE",
"178 270 CURVE",
"96 277 OFFCURVE",
"3 89 OFFCURVE",
"3 19 CURVE SMOOTH",
"3 6 OFFCURVE",
"6 -7 OFFCURVE",
"22 -7 CURVE SMOOTH"
);
},
{
closed = 1;
nodes = (
"53 27 OFFCURVE",
"52 31 OFFCURVE",
"52 34 CURVE SMOOTH",
"52 39 OFFCURVE",
"54 43 OFFCURVE",
"55 47 CURVE SMOOTH",
"71 101 OFFCURVE",
"115 188 OFFCURVE",
"153 228 CURVE SMOOTH",
"169 246 OFFCURVE",
"196 262 OFFCURVE",
"221 262 CURVE SMOOTH",
"227 262 OFFCURVE",
"234 260 OFFCURVE",
"240 258 CURVE",
"197 173 OFFCURVE",
"160 96 OFFCURVE",
"80 39 CURVE SMOOTH",
"75 35 OFFCURVE",
"64 27 OFFCURVE",
"57 27 CURVE SMOOTH"
);
}
);
width = 399;
}
);
unicode = 00E6;
},
{
glyphname = b;
lastChange = "2021-07-22 18:30:39 +0000";
layers = (
{
layerId = "5758FC1C-8DB2-4040-8B3F-38A5D3FE42F4";
paths = (
{
closed = 1;
nodes = (
"98 -14 OFFCURVE",
"101 -5 OFFCURVE",
"116 3 CURVE SMOOTH",
"141 15 OFFCURVE",
"170 19 OFFCURVE",
"191 38 CURVE SMOOTH",
"226 69 OFFCURVE",
"261 133 OFFCURVE",
"279 176 CURVE",
"287 179 OFFCURVE",
"315 185 OFFCURVE",
"315 195 CURVE SMOOTH",
"315 197 OFFCURVE",
"313 198 OFFCURVE",
"311 198 CURVE SMOOTH",
"306 198 OFFCURVE",
"290 190 OFFCURVE",
"285 188 CURVE",
"294 211 OFFCURVE",
"306 247 OFFCURVE",
"306 271 CURVE SMOOTH",
"306 288 OFFCURVE",
"301 295 OFFCURVE",
"284 295 CURVE SMOOTH",
"224 295 OFFCURVE",
"120 160 OFFCURVE",
"84 114 CURVE",
"131 228 OFFCURVE",
"184 339 OFFCURVE",
"248 444 CURVE SMOOTH",
"279 495 OFFCURVE",
"313 543 OFFCURVE",
"347 592 CURVE",
"348 592 OFFCURVE",
"348 594 OFFCURVE",
"348 595 CURVE SMOOTH",
"348 604 OFFCURVE",
"328 605 OFFCURVE",
"322 605 CURVE SMOOTH",
"311 605 OFFCURVE",
"287 601 OFFCURVE",
"280 593 CURVE SMOOTH",
"275 587 OFFCURVE",
"248 545 OFFCURVE",
"243 536 CURVE SMOOTH",
"241 533 OFFCURVE",
"241 531 OFFCURVE",
"241 528 CURVE SMOOTH",
"241 523 OFFCURVE",
"242 518 OFFCURVE",
"244 514 CURVE",
"179 401 OFFCURVE",
"121 283 OFFCURVE",
"67 164 CURVE SMOOTH",
"48 124 OFFCURVE",
"19 64 OFFCURVE",
"8 22 CURVE",
"8 20 OFFCURVE",
"7 18 OFFCURVE",
"7 16 CURVE SMOOTH",
"7 6 OFFCURVE",
"16 -9 OFFCURVE",
"27 -9 CURVE SMOOTH",
"32 -9 OFFCURVE",
"34 -4 OFFCURVE",
"36 -1 CURVE",
"48 -10 OFFCURVE",
"64 -14 OFFCURVE",
"79 -14 CURVE SMOOTH"
);
},
{
closed = 1;
nodes = (
"73 8 OFFCURVE",
"61 16 OFFCURVE",
"52 28 CURVE",
"83 78 OFFCURVE",
"171 137 OFFCURVE",
"225 160 CURVE",
"203 114 OFFCURVE",
"146 8 OFFCURVE",
"88 8 CURVE SMOOTH"
);
},
{
closed = 1;
nodes = (
"113 128 OFFCURVE",
"215 255 OFFCURVE",
"248 255 CURVE SMOOTH",
"253 255 OFFCURVE",
"255 250 OFFCURVE",
"255 245 CURVE SMOOTH",
"255 229 OFFCURVE",
"237 189 OFFCURVE",
"230 173 CURVE",
"182 151 OFFCURVE",
"135 128 OFFCURVE",
"93 96 CURVE"
);
}
);
width = 270;
}
);
note = b;
unicode = 0062;
},
{
glyphname = c;
lastChange = "2021-07-22 18:30:39 +0000";
layers = (
{
anchors = (
{
name = bottom;
position = "{51, 0}";
},
{
name = top;
position = "{227, 280}";
}
);
layerId = "5758FC1C-8DB2-4040-8B3F-38A5D3FE42F4";
paths = (
{
closed = 1;
nodes = (
"105 -7 OFFCURVE",
"165 18 OFFCURVE",
"213 54 CURVE",
"224 64 OFFCURVE",
"250 90 OFFCURVE",
"250 106 CURVE SMOOTH",
"250 109 OFFCURVE",
"249 110 OFFCURVE",
"246 110 CURVE SMOOTH",
"241 110 OFFCURVE",
"170 16 OFFCURVE",
"102 16 CURVE SMOOTH",
"79 16 OFFCURVE",
"66 28 OFFCURVE",
"66 51 CURVE SMOOTH",
"66 99 OFFCURVE",
"141 229 OFFCURVE",
"179 257 CURVE SMOOTH",
"189 264 OFFCURVE",
"204 273 OFFCURVE",
"217 273 CURVE SMOOTH",
"233 273 OFFCURVE",
"234 257 OFFCURVE",
"234 244 CURVE SMOOTH",
"234 230 OFFCURVE",
"232 216 OFFCURVE",
"226 204 CURVE",
"225 203 OFFCURVE",
"224 200 OFFCURVE",
"224 199 CURVE SMOOTH",
"224 197 OFFCURVE",
"226 196 OFFCURVE",
"228 196 CURVE SMOOTH",
"255 196 OFFCURVE",
"279 234 OFFCURVE",
"279 259 CURVE SMOOTH",
"279 280 OFFCURVE",
"263 293 OFFCURVE",
"243 293 CURVE SMOOTH",
"215 293 OFFCURVE",
"190 278 OFFCURVE",
"164 270 CURVE SMOOTH",
"86 247 OFFCURVE",
"34 134 OFFCURVE",
"13 61 CURVE SMOOTH",
"10 51 OFFCURVE",
"9 40 OFFCURVE",
"9 29 CURVE SMOOTH",
"9 0 OFFCURVE",
"16 -7 OFFCURVE",
"45 -7 CURVE SMOOTH"
);
}
);
width = 233;
}
);
note = c;
unicode = 0063;
},
{
color = 11;
glyphname = ccedilla;
lastChange = "2021-07-22 18:30:39 +0000";
layers = (
{
layerId = "5758FC1C-8DB2-4040-8B3F-38A5D3FE42F4";
paths = (
{
closed = 1;
nodes = (
"9 -191 OFFCURVE",
"75 -170 OFFCURVE",
"75 -120 CURVE SMOOTH",
"75 -90 OFFCURVE",
"42 -70 OFFCURVE",
"42 -49 CURVE SMOOTH",
"42 -30 OFFCURVE",
"58 -10 OFFCURVE",
"76 -7 CURVE",
"76 -5 LINE",
"126 3 OFFCURVE",
"172 23 OFFCURVE",
"213 54 CURVE",
"224 64 OFFCURVE",
"250 90 OFFCURVE",
"250 106 CURVE SMOOTH",
"250 109 OFFCURVE",
"249 110 OFFCURVE",
"246 110 CURVE SMOOTH",
"241 110 OFFCURVE",
"170 16 OFFCURVE",
"102 16 CURVE SMOOTH",
"79 16 OFFCURVE",
"66 28 OFFCURVE",
"66 51 CURVE SMOOTH",
"66 99 OFFCURVE",
"141 229 OFFCURVE",
"179 257 CURVE SMOOTH",
"189 264 OFFCURVE",
"204 273 OFFCURVE",
"217 273 CURVE SMOOTH",
"233 273 OFFCURVE",
"234 257 OFFCURVE",
"234 244 CURVE SMOOTH",
"234 230 OFFCURVE",
"232 216 OFFCURVE",
"226 204 CURVE",
"225 203 OFFCURVE",
"224 200 OFFCURVE",
"224 199 CURVE SMOOTH",
"224 197 OFFCURVE",
"226 196 OFFCURVE",
"228 196 CURVE SMOOTH",
"255 196 OFFCURVE",
"279 234 OFFCURVE",
"279 259 CURVE SMOOTH",
"279 280 OFFCURVE",
"263 293 OFFCURVE",
"243 293 CURVE SMOOTH",
"215 293 OFFCURVE",
"190 278 OFFCURVE",
"164 270 CURVE SMOOTH",
"86 247 OFFCURVE",
"34 134 OFFCURVE",
"13 61 CURVE SMOOTH",
"10 51 OFFCURVE",
"9 40 OFFCURVE",
"9 29 CURVE SMOOTH",
"9 -2 OFFCURVE",
"18 -8 OFFCURVE",
"48 -7 CURVE",
"29 -17 OFFCURVE",
"17 -43 OFFCURVE",
"17 -64 CURVE SMOOTH",
"17 -86 OFFCURVE",
"46 -112 OFFCURVE",
"46 -129 CURVE SMOOTH",
"46 -183 OFFCURVE",
"4 -168 OFFCURVE",
"-30 -178 CURVE SMOOTH",
"-33 -179 OFFCURVE",
"-37 -181 OFFCURVE",
"-37 -184 CURVE SMOOTH",
"-37 -187 OFFCURVE",
"-35 -191 OFFCURVE",
"-31 -191 CURVE SMOOTH"
);
}
);
width = 224;
}
);
note = ccedilla;
unicode = 00E7;
},
{
glyphname = d;
lastChange = "2021-07-22 18:30:39 +0000";
layers = (
{
anchors = (
{
name = bottom;
position = "{121, 53}";
},
{
name = center;
position = "{337, 399}";
},
{
name = top;
position = "{486, 605}";
},
{
name = topright;
position = "{530, 607}";
}
);
layerId = "5758FC1C-8DB2-4040-8B3F-38A5D3FE42F4";
paths = (
{
closed = 1;
nodes = (
"260 -8 OFFCURVE",
"281 3 OFFCURVE",
"297 15 CURVE SMOOTH",
"309 24 OFFCURVE",
"346 56 OFFCURVE",
"346 74 CURVE SMOOTH",
"346 75 OFFCURVE",
"346 76 OFFCURVE",
"345 76 CURVE SMOOTH",
"340 76 OFFCURVE",
"299 22 OFFCURVE",
"265 22 CURVE SMOOTH",
"242 22 OFFCURVE",
"241 54 OFFCURVE",
"241 71 CURVE SMOOTH",
"241 112 OFFCURVE",
"255 159 OFFCURVE",
"269 197 CURVE SMOOTH",
"271 203 OFFCURVE",
"273 211 OFFCURVE",
"276 216 CURVE SMOOTH",
"286 233 OFFCURVE",
"300 246 OFFCURVE",
"300 267 CURVE",
"341 349 OFFCURVE",
"390 427 OFFCURVE",
"442 503 CURVE SMOOTH",
"462 533 OFFCURVE",
"485 562 OFFCURVE",
"505 592 CURVE",
"506 592 OFFCURVE",
"506 594 OFFCURVE",
"506 595 CURVE SMOOTH",
"506 604 OFFCURVE",
"486 605 OFFCURVE",
"480 605 CURVE SMOOTH",
"469 605 OFFCURVE",
"445 601 OFFCURVE",
"438 593 CURVE SMOOTH",
"433 587 OFFCURVE",
"406 545 OFFCURVE",
"401 536 CURVE SMOOTH",
"399 533 OFFCURVE",
"399 531 OFFCURVE",
"399 528 CURVE SMOOTH",
"399 523 OFFCURVE",
"400 518 OFFCURVE",
"402 514 CURVE",
"352 441 OFFCURVE",
"313 359 OFFCURVE",
"272 281 CURVE",
"258 283 OFFCURVE",
"244 286 OFFCURVE",
"229 286 CURVE SMOOTH",
"209 286 OFFCURVE",
"198 279 OFFCURVE",
"180 270 CURVE",
"98 277 OFFCURVE",
"6 89 OFFCURVE",
"6 19 CURVE SMOOTH",
"6 5 OFFCURVE",
"9 -7 OFFCURVE",
"25 -7 CURVE SMOOTH",
"69 -7 OFFCURVE",
"148 73 OFFCURVE",
"175 105 CURVE SMOOTH",
"192 125 OFFCURVE",
"207 146 OFFCURVE",
"220 169 CURVE",
"207 145 OFFCURVE",
"196 85 OFFCURVE",
"196 57 CURVE SMOOTH",
"196 28 OFFCURVE",
"204 -8 OFFCURVE",
"240 -8 CURVE SMOOTH"
);
},
{
closed = 1;
nodes = (
"56 27 OFFCURVE",
"55 31 OFFCURVE",
"55 34 CURVE SMOOTH",
"55 39 OFFCURVE",
"56 43 OFFCURVE",
"57 47 CURVE SMOOTH",
"74 102 OFFCURVE",
"117 187 OFFCURVE",
"155 228 CURVE SMOOTH",
"171 246 OFFCURVE",
"196 261 OFFCURVE",
"220 261 CURVE SMOOTH",
"229 261 OFFCURVE",
"237 259 OFFCURVE",
"244 255 CURVE",
"208 175 OFFCURVE",
"154 91 OFFCURVE",
"82 39 CURVE SMOOTH",
"77 35 OFFCURVE",
"67 27 OFFCURVE",
"60 27 CURVE SMOOTH"
);
}
);
width = 319;
}
);
note = d;
unicode = 0064;
},
{
glyphname = e;
lastChange = "2021-07-22 18:30:39 +0000";
layers = (
{
anchors = (
{
name = bottom;
position = "{59, 0}";
},
{
name = ogonek;
position = "{86, 10}";
},
{
name = top;
position = "{212, 280}";
}
);
layerId = "5758FC1C-8DB2-4040-8B3F-38A5D3FE42F4";
paths = (
{
closed = 1;
nodes = (
"103 -7 OFFCURVE",
"163 18 OFFCURVE",
"210 54 CURVE SMOOTH",
"222 63 OFFCURVE",
"247 90 OFFCURVE",
"247 106 CURVE SMOOTH",
"247 109 OFFCURVE",
"246 110 OFFCURVE",
"244 110 CURVE SMOOTH",
"239 110 OFFCURVE",
"167 16 OFFCURVE",
"99 16 CURVE SMOOTH",
"76 16 OFFCURVE",
"63 28 OFFCURVE",
"63 51 CURVE SMOOTH",
"63 80 OFFCURVE",
"84 123 OFFCURVE",
"98 147 CURVE",
"135 155 OFFCURVE",
"173 161 OFFCURVE",
"211 161 CURVE SMOOTH",
"223 161 OFFCURVE",
"235 158 OFFCURVE",
"247 158 CURVE SMOOTH",
"249 158 OFFCURVE",
"261 158 OFFCURVE",
"261 162 CURVE SMOOTH",
"261 169 OFFCURVE",
"228 176 OFFCURVE",
"222 177 CURVE",
"246 190 OFFCURVE",
"276 242 OFFCURVE",
"276 270 CURVE SMOOTH",
"276 287 OFFCURVE",
"265 295 OFFCURVE",
"249 295 CURVE SMOOTH",
"242 295 OFFCURVE",
"208 290 OFFCURVE",
"208 282 CURVE SMOOTH",
"208 278 OFFCURVE",
"215 277 OFFCURVE",
"218 277 CURVE SMOOTH",
"230 277 OFFCURVE",
"232 277 OFFCURVE",
"232 262 CURVE SMOOTH",
"232 235 OFFCURVE",
"217 200 OFFCURVE",
"202 179 CURVE",
"172 181 OFFCURVE",
"142 178 OFFCURVE",
"112 173 CURVE",
"126 196 OFFCURVE",
"154 240 OFFCURVE",
"176 257 CURVE SMOOTH",
"179 259 OFFCURVE",
"189 266 OFFCURVE",
"189 270 CURVE SMOOTH",
"189 273 OFFCURVE",
"184 273 OFFCURVE",
"182 273 CURVE SMOOTH",
"175 273 OFFCURVE",
"168 272 OFFCURVE",
"161 270 CURVE SMOOTH",
"119 258 OFFCURVE",
"86 220 OFFCURVE",
"64 184 CURVE SMOOTH",
"58 174 OFFCURVE",
"54 163 OFFCURVE",
"47 153 CURVE SMOOTH",
"44 149 OFFCURVE",
"38 145 OFFCURVE",
"38 139 CURVE SMOOTH",
"38 138 OFFCURVE",
"39 137 OFFCURVE",
"39 136 CURVE",
"26 108 OFFCURVE",
"6 61 OFFCURVE",
"6 29 CURVE SMOOTH",
"6 0 OFFCURVE",
"13 -7 OFFCURVE",
"42 -7 CURVE SMOOTH"
);
}
);
width = 223;
}
);
note = e;
unicode = 0065;
},
{
glyphname = schwa;
lastChange = "2021-07-22 18:30:23 +0000";
layers = (
{
layerId = "5758FC1C-8DB2-4040-8B3F-38A5D3FE42F4";
paths = (
{
closed = 1;
nodes = (
"120 -76 OFFCURVE",
"130 -75 OFFCURVE",
"141 -73 CURVE SMOOTH",
"304 -41 OFFCURVE",
"395 110 OFFCURVE",
"395 238 CURVE SMOOTH",
"395 322 OFFCURVE",
"367 351 OFFCURVE",
"290 351 CURVE SMOOTH",
"277 351 OFFCURVE",
"263 350 OFFCURVE",
"247 349 CURVE SMOOTH",
"148 340 OFFCURVE",
"19 233 OFFCURVE",
"18 167 CURVE SMOOTH",
"18 163 OFFCURVE",
"21 160 OFFCURVE",
"24 160 CURVE SMOOTH",
"24 160 OFFCURVE",
"25 160 OFFCURVE",
"25 161 CURVE SMOOTH",
"51 252 OFFCURVE",
"181 331 OFFCURVE",
"265 331 CURVE SMOOTH",
"299 331 OFFCURVE",
"326 319 OFFCURVE",
"336 289 CURVE SMOOTH",
"342 271 OFFCURVE",
"345 251 OFFCURVE",
"345 230 CURVE SMOOTH",
"345 197 OFFCURVE",
"339 164 OFFCURVE",
"333 144 CURVE",
"245 144 OFFCURVE",
"159 128 OFFCURVE",
"103 89 CURVE SMOOTH",
"58 58 OFFCURVE",
"36 19 OFFCURVE",
"36 -13 CURVE SMOOTH",
"36 -49 OFFCURVE",
"62 -76 OFFCURVE",
"110 -76 CURVE SMOOTH"
);
},
{
closed = 1;
nodes = (
"90 -50 OFFCURVE",
"72 -31 OFFCURVE",
"72 -6 CURVE SMOOTH",
"72 45 OFFCURVE",
"146 123 OFFCURVE",
"324 128 CURVE",
"293 42 OFFCURVE",
"241 3 OFFCURVE",
"210 -20 CURVE SMOOTH",
"175 -41 OFFCURVE",
"146 -50 OFFCURVE",
"124 -50 CURVE SMOOTH"
);
}
);
width = 415;
}
);
unicode = 0259;
},
{
glyphname = f;
lastChange = "2021-07-22 18:30:39 +0000";
layers = (
{
layerId = "5758FC1C-8DB2-4040-8B3F-38A5D3FE42F4";
paths = (
{
closed = 1;
nodes = (
"64 -326 OFFCURVE",
"155 -265 OFFCURVE",
"175 -201 CURVE SMOOTH",
"182 -179 OFFCURVE",
"184 -155 OFFCURVE",
"184 -132 CURVE SMOOTH",
"184 -43 OFFCURVE",
"144 63 OFFCURVE",
"99 140 CURVE",
"100 143 LINE",
"144 152 OFFCURVE",
"190 160 OFFCURVE",
"235 160 CURVE SMOOTH",
"245 160 OFFCURVE",
"254 158 OFFCURVE",
"264 158 CURVE SMOOTH",
"266 158 OFFCURVE",
"279 158 OFFCURVE",
"279 162 CURVE SMOOTH",
"279 165 OFFCURVE",
"271 168 OFFCURVE",
"270 169 CURVE",
"239 182 OFFCURVE",
"190 184 OFFCURVE",
"157 184 CURVE SMOOTH",
"145 184 OFFCURVE",
"133 184 OFFCURVE",
"121 183 CURVE",
"176 291 OFFCURVE",
"239 395 OFFCURVE",
"306 495 CURVE SMOOTH",
"329 528 OFFCURVE",
"352 559 OFFCURVE",
"375 592 CURVE",
"376 592 OFFCURVE",
"376 594 OFFCURVE",
"376 595 CURVE SMOOTH",
"376 604 OFFCURVE",
"356 605 OFFCURVE",
"350 605 CURVE SMOOTH",
"339 605 OFFCURVE",
"315 601 OFFCURVE",
"307 593 CURVE SMOOTH",
"303 588 OFFCURVE",
"275 544 OFFCURVE",
"270 536 CURVE",
"269 533 OFFCURVE",
"269 531 OFFCURVE",
"269 528 CURVE SMOOTH",
"269 523 OFFCURVE",
"270 518 OFFCURVE",
"271 514 CURVE",
"199 408 OFFCURVE",
"137 295 OFFCURVE",
"80 180 CURVE",
"73 179 LINE",
"69 185 OFFCURVE",
"64 193 OFFCURVE",
"56 193 CURVE SMOOTH",
"53 193 OFFCURVE",
"48 191 OFFCURVE",
"48 187 CURVE SMOOTH",
"48 184 OFFCURVE",
"53 178 OFFCURVE",
"54 175 CURVE",
"44 167 OFFCURVE",
"35 149 OFFCURVE",
"35 137 CURVE SMOOTH",
"35 134 OFFCURVE",
"35 130 OFFCURVE",
"38 128 CURVE",
"57 133 LINE",
"16 47 OFFCURVE",
"-74 -147 OFFCURVE",
"-74 -241 CURVE SMOOTH",
"-74 -289 OFFCURVE",
"-54 -326 OFFCURVE",
"-2 -326 CURVE SMOOTH"
);
},
{
closed = 1;
nodes = (
"-16 -305 OFFCURVE",
"-21 -260 OFFCURVE",
"-21 -235 CURVE SMOOTH",
"-21 -126 OFFCURVE",
"39 15 OFFCURVE",
"86 112 CURVE",
"117 42 OFFCURVE",
"148 -51 OFFCURVE",
"148 -128 CURVE SMOOTH",
"148 -154 OFFCURVE",
"144 -181 OFFCURVE",
"133 -204 CURVE SMOOTH",
"116 -240 OFFCURVE",
"63 -305 OFFCURVE",
"19 -305 CURVE SMOOTH"
);
}
);
width = 247;
}
);
note = f;
unicode = 0066;
},
{
glyphname = g;
lastChange = "2021-07-22 18:30:39 +0000";
layers = (
{
anchors = (
{
name = bottom;
position = "{-142, -326}";
},
{
name = top;
position = "{237, 280}";
}
);
layerId = "5758FC1C-8DB2-4040-8B3F-38A5D3FE42F4";
paths = (
{
closed = 1;
nodes = (
"10 -334 OFFCURVE",
"121 -177 OFFCURVE",
"174 -48 CURVE",
"177 -48 LINE SMOOTH",
"179 -48 OFFCURVE",
"230 -51 OFFCURVE",
"230 -44 CURVE SMOOTH",
"230 -38 OFFCURVE",
"210 -34 OFFCURVE",
"206 -34 CURVE SMOOTH",
"197 -34 OFFCURVE",
"188 -34 OFFCURVE",
"179 -35 CURVE",
"206 33 OFFCURVE",
"232 101 OFFCURVE",
"259 168 CURVE SMOOTH",
"273 202 OFFCURVE",
"287 238 OFFCURVE",
"305 270 CURVE SMOOTH",
"317 291 LINE",
"317 291 OFFCURVE",
"318 292 OFFCURVE",
"318 293 CURVE SMOOTH",
"318 300 OFFCURVE",
"308 301 OFFCURVE",
"304 301 CURVE SMOOTH",
"290 301 OFFCURVE",
"274 295 OFFCURVE",
"264 286 CURVE",
"263 283 LINE",
"252 284 OFFCURVE",
"241 286 OFFCURVE",
"230 286 CURVE SMOOTH",
"213 286 OFFCURVE",
"196 278 OFFCURVE",
"180 270 CURVE",
"99 277 OFFCURVE",
"6 89 OFFCURVE",
"6 19 CURVE SMOOTH",
"6 6 OFFCURVE",
"9 -7 OFFCURVE",
"25 -7 CURVE SMOOTH",
"82 -7 OFFCURVE",
"182 111 OFFCURVE",
"209 156 CURVE",
"202 129 OFFCURVE",
"192 102 OFFCURVE",
"182 76 CURVE SMOOTH",
"169 38 OFFCURVE",
"154 1 OFFCURVE",
"140 -36 CURVE",
"60 -41 OFFCURVE",
"-35 -56 OFFCURVE",
"-109 -87 CURVE SMOOTH",
"-169 -112 OFFCURVE",
"-271 -166 OFFCURVE",
"-271 -242 CURVE SMOOTH",
"-271 -306 OFFCURVE",
"-200 -334 OFFCURVE",
"-146 -334 CURVE SMOOTH"
);
},
{
closed = 1;
nodes = (
"-190 -313 OFFCURVE",
"-231 -292 OFFCURVE",
"-231 -247 CURVE SMOOTH",
"-231 -183 OFFCURVE",
"-150 -131 OFFCURVE",
"-101 -106 CURVE SMOOTH",
"-33 -71 OFFCURVE",
"58 -54 OFFCURVE",
"134 -49 CURVE",
"86 -151 OFFCURVE",
"-20 -313 OFFCURVE",
"-150 -313 CURVE SMOOTH"
);
},
{
closed = 1;
nodes = (
"56 27 OFFCURVE",
"55 31 OFFCURVE",
"55 34 CURVE SMOOTH",
"55 39 OFFCURVE",
"56 43 OFFCURVE",
"58 47 CURVE",
"74 101 OFFCURVE",
"118 188 OFFCURVE",
"156 228 CURVE SMOOTH",
"172 246 OFFCURVE",
"199 262 OFFCURVE",
"223 262 CURVE SMOOTH",
"230 262 OFFCURVE",
"237 260 OFFCURVE",
"243 258 CURVE",
"199 173 OFFCURVE",
"163 96 OFFCURVE",
"83 39 CURVE SMOOTH",
"77 35 OFFCURVE",
"67 27 OFFCURVE",
"60 27 CURVE SMOOTH"
);
}
);
width = 258;
}
);
note = g;
unicode = 0067;
},
{
glyphname = h;
lastChange = "2021-07-22 18:30:39 +0000";
layers = (
{
anchors = (
{
name = bottom;
position = "{129, 0}";
},
{
name = center;
position = "{154, 340}";
},
{
name = top;
position = "{329, 605}";
}
);
layerId = "5758FC1C-8DB2-4040-8B3F-38A5D3FE42F4";
paths = (
{
closed = 1;
nodes = (
"3 -22 OFFCURVE",
"49 -2 OFFCURVE",
"54 5 CURVE SMOOTH",
"59 13 OFFCURVE",
"57 22 OFFCURVE",
"59 30 CURVE SMOOTH",
"62 42 OFFCURVE",
"208 199 OFFCURVE",
"227 219 CURVE",
"210 174 OFFCURVE",
"191 115 OFFCURVE",
"191 66 CURVE SMOOTH",
"191 32 OFFCURVE",
"201 0 OFFCURVE",
"241 0 CURVE SMOOTH",
"282 0 OFFCURVE",
"327 38 OFFCURVE",
"348 71 CURVE SMOOTH",
"350 74 OFFCURVE",
"354 80 OFFCURVE",
"354 84 CURVE SMOOTH",
"354 85 OFFCURVE",
"354 87 OFFCURVE",
"352 87 CURVE SMOOTH",
"344 87 OFFCURVE",
"294 26 OFFCURVE",
"257 26 CURVE SMOOTH",
"237 26 OFFCURVE",
"236 54 OFFCURVE",
"236 68 CURVE SMOOTH",
"236 120 OFFCURVE",
"250 152 OFFCURVE",
"263 199 CURVE",
"275 206 OFFCURVE",
"285 242 OFFCURVE",
"285 256 CURVE SMOOTH",
"285 261 OFFCURVE",
"285 272 OFFCURVE",
"278 272 CURVE SMOOTH",
"276 272 OFFCURVE",
"274 272 OFFCURVE",
"273 271 CURVE",
"272 271 OFFCURVE",
"272 271 OFFCURVE",
"272 271 CURVE",
"272 272 OFFCURVE",
"274 272 OFFCURVE",
"272 272 CURVE SMOOTH",
"265 272 OFFCURVE",
"253 263 OFFCURVE",
"247 259 CURVE",
"244 258 OFFCURVE",
"240 257 OFFCURVE",
"238 255 CURVE SMOOTH",
"179 197 OFFCURVE",
"129 130 OFFCURVE",
"69 73 CURVE",
"123 224 OFFCURVE",
"196 368 OFFCURVE",
"285 501 CURVE SMOOTH",
"306 532 OFFCURVE",
"328 562 OFFCURVE",
"349 592 CURVE",
"350 592 OFFCURVE",
"350 594 OFFCURVE",
"350 595 CURVE SMOOTH",
"350 604 OFFCURVE",
"329 605 OFFCURVE",
"324 605 CURVE SMOOTH",
"313 605 OFFCURVE",
"289 601 OFFCURVE",
"281 593 CURVE",
"277 587 OFFCURVE",
"250 545 OFFCURVE",
"244 536 CURVE",
"243 533 OFFCURVE",
"243 531 OFFCURVE",
"243 528 CURVE SMOOTH",
"243 523 OFFCURVE",
"244 518 OFFCURVE",
"245 514 CURVE",
"143 363 OFFCURVE",
"83 188 OFFCURVE",
"10 22 CURVE SMOOTH",
"7 16 OFFCURVE",
"-7 -14 OFFCURVE",
"-7 -21 CURVE",
"-7 -21 OFFCURVE",
"-7 -22 OFFCURVE",
"-6 -22 CURVE SMOOTH"
);
}
);
width = 307;
}
);
note = h;
unicode = 0068;
},
{
glyphname = i;
lastChange = "2021-07-22 18:30:39 +0000";
layers = (
{
components = (
{
name = idotless;
}
);
layerId = "5758FC1C-8DB2-4040-8B3F-38A5D3FE42F4";
paths = (
{
closed = 1;
nodes = (
"157 324 OFFCURVE",
"207 351 OFFCURVE",
"207 373 CURVE SMOOTH",
"207 377 OFFCURVE",
"205 378 OFFCURVE",
"202 378 CURVE SMOOTH",
"200 378 OFFCURVE",
"198 378 OFFCURVE",
"196 377 CURVE SMOOTH",
"177 371 OFFCURVE",
"159 368 OFFCURVE",
"140 365 CURVE SMOOTH",
"133 364 OFFCURVE",
"133 345 OFFCURVE",
"133 341 CURVE SMOOTH",
"133 338 OFFCURVE",
"133 324 OFFCURVE",
"137 324 CURVE SMOOTH"
);
}
);
width = 142;
}
);
note = i;
unicode = 0069;
},
{
glyphname = idotless;
lastChange = "2021-07-22 18:10:28 +0000";
layers = (
{
anchors = (
{
name = bottom;
position = "{66, 0}";
},
{
name = ogonek;
position = "{85, 10}";
},
{
name = top;
position = "{129, 272}";
}
);
layerId = "5758FC1C-8DB2-4040-8B3F-38A5D3FE42F4";
paths = (
{
closed = 1;
nodes = (
"98 0 OFFCURVE",
"149 39 OFFCURVE",
"174 71 CURVE SMOOTH",
"177 74 OFFCURVE",
"182 81 OFFCURVE",
"182 86 CURVE",
"182 86 OFFCURVE",
"182 87 OFFCURVE",
"181 87 CURVE SMOOTH",
"172 87 OFFCURVE",
"113 26 OFFCURVE",
"76 26 CURVE SMOOTH",
"57 26 OFFCURVE",
"46 35 OFFCURVE",
"46 54 CURVE SMOOTH",
"46 102 OFFCURVE",
"90 157 OFFCURVE",
"108 200 CURVE",
"122 206 OFFCURVE",
"141 248 OFFCURVE",
"141 263 CURVE SMOOTH",
"141 267 OFFCURVE",
"140 273 OFFCURVE",
"135 273 CURVE SMOOTH",
"133 273 OFFCURVE",
"131 272 OFFCURVE",
"130 271 CURVE",
"130 272 OFFCURVE",
"129 272 OFFCURVE",
"129 272 CURVE",
"129 272 OFFCURVE",
"131 273 OFFCURVE",
"130 273 CURVE SMOOTH",
"119 273 OFFCURVE",
"95 265 OFFCURVE",
"89 256 CURVE SMOOTH",
"82 244 OFFCURVE",
"76 231 OFFCURVE",
"70 219 CURVE SMOOTH",
"55 191 OFFCURVE",
"40 163 OFFCURVE",
"28 134 CURVE SMOOTH",
"17 109 OFFCURVE",
"7 78 OFFCURVE",
"7 50 CURVE SMOOTH",
"7 18 OFFCURVE",
"23 0 OFFCURVE",
"56 0 CURVE SMOOTH"
);
}
);
width = 142;
}
);
unicode = 0131;
},
{
glyphname = j;
lastChange = "2021-07-22 18:30:39 +0000";
layers = (
{
components = (
{
name = jdotless;
}
);
layerId = "5758FC1C-8DB2-4040-8B3F-38A5D3FE42F4";
paths = (
{
closed = 1;
nodes = (
"187 335 OFFCURVE",
"237 363 OFFCURVE",
"237 384 CURVE SMOOTH",
"237 387 OFFCURVE",
"235 389 OFFCURVE",
"232 389 CURVE SMOOTH",
"230 389 OFFCURVE",
"228 388 OFFCURVE",
"226 388 CURVE",
"207 382 OFFCURVE",
"189 379 OFFCURVE",
"170 375 CURVE SMOOTH",
"164 374 OFFCURVE",
"163 356 OFFCURVE",
"163 351 CURVE SMOOTH",
"163 348 OFFCURVE",
"163 335 OFFCURVE",
"168 335 CURVE SMOOTH"
);
}
);
width = 151;
}
);
note = j;
unicode = 006A;
},
{
color = 3;
glyphname = jdotless;
lastChange = "2021-07-22 18:30:23 +0000";
layers = (
{
anchors = (
{
name = bottom;
position = "{76, -326}";
},
{
name = top;
position = "{168, 271}";
}
);
layerId = "5758FC1C-8DB2-4040-8B3F-38A5D3FE42F4";
paths = (
{
closed = 1;
nodes = (
"-143 -334 OFFCURVE",
"-62 -270 OFFCURVE",
"-13 -183 CURVE SMOOTH",
"11 -139 OFFCURVE",
"30 -94 OFFCURVE",
"49 -48 CURVE",
"52 -48 LINE SMOOTH",
"55 -48 OFFCURVE",
"106 -51 OFFCURVE",
"106 -44 CURVE SMOOTH",
"106 -38 OFFCURVE",
"86 -34 OFFCURVE",
"82 -34 CURVE SMOOTH",
"73 -34 OFFCURVE",
"64 -34 OFFCURVE",
"55 -35 CURVE",
"78 24 OFFCURVE",
"102 83 OFFCURVE",
"126 142 CURVE SMOOTH",
"140 174 OFFCURVE",
"153 209 OFFCURVE",
"169 241 CURVE SMOOTH",
"173 248 OFFCURVE",
"177 254 OFFCURVE",
"182 261 CURVE",
"182 262 OFFCURVE",
"182 263 OFFCURVE",
"182 264 CURVE SMOOTH",
"182 270 OFFCURVE",
"172 271 OFFCURVE",
"168 271 CURVE SMOOTH",
"155 271 OFFCURVE",
"137 266 OFFCURVE",
"128 256 CURVE SMOOTH",
"112 239 OFFCURVE",
"119 234 OFFCURVE",
"114 215 CURVE SMOOTH",
"103 175 OFFCURVE",
"85 135 OFFCURVE",
"70 96 CURVE SMOOTH",
"53 52 OFFCURVE",
"37 6 OFFCURVE",
"15 -36 CURVE",
"-65 -41 OFFCURVE",
"-151 -55 OFFCURVE",
"-226 -87 CURVE SMOOTH",
"-282 -110 OFFCURVE",
"-388 -164 OFFCURVE",
"-388 -237 CURVE SMOOTH",
"-388 -306 OFFCURVE",
"-302 -334 OFFCURVE",
"-246 -334 CURVE SMOOTH"
);
},
{
closed = 1;
nodes = (
"-299 -314 OFFCURVE",
"-347 -292 OFFCURVE",
"-347 -244 CURVE SMOOTH",
"-347 -181 OFFCURVE",
"-265 -130 OFFCURVE",
"-217 -106 CURVE SMOOTH",
"-149 -71 OFFCURVE",
"-67 -54 OFFCURVE",
"9 -49 CURVE",
"-8 -84 OFFCURVE",
"-24 -119 OFFCURVE",
"-43 -153 CURVE SMOOTH",
"-86 -230 OFFCURVE",
"-161 -314 OFFCURVE",
"-257 -314 CURVE SMOOTH"
);
}
);
width = 151;
}
);
unicode = 0237;
},
{
glyphname = k;
lastChange = "2021-07-22 18:30:39 +0000";
layers = (
{
anchors = (
{
name = bottom;
position = "{107, 0}";
},
{
name = top;
position = "{342, 605}";
}
);
layerId = "5758FC1C-8DB2-4040-8B3F-38A5D3FE42F4";
paths = (
{
closed = 1;
nodes = (
"26 -15 OFFCURVE",
"60 17 OFFCURVE",
"60 44 CURVE SMOOTH",
"60 46 OFFCURVE",
"59 48 OFFCURVE",
"59 50 CURVE",
"73 73 OFFCURVE",
"89 96 OFFCURVE",
"107 116 CURVE",
"114 76 OFFCURVE",
"150 -4 OFFCURVE",
"198 -4 CURVE SMOOTH",
"244 -4 OFFCURVE",
"258 43 OFFCURVE",
"270 78 CURVE SMOOTH",
"271 81 OFFCURVE",
"272 84 OFFCURVE",
"272 87 CURVE SMOOTH",
"272 88 OFFCURVE",
"272 94 OFFCURVE",
"269 94 CURVE SMOOTH",
"261 94 OFFCURVE",
"243 25 OFFCURVE",
"209 25 CURVE SMOOTH",
"175 25 OFFCURVE",
"139 110 OFFCURVE",
"131 139 CURVE",
"173 176 OFFCURVE",
"231 215 OFFCURVE",
"280 244 CURVE SMOOTH",
"290 249 OFFCURVE",
"325 269 OFFCURVE",
"325 283 CURVE SMOOTH",
"325 291 OFFCURVE",
"313 292 OFFCURVE",
"308 292 CURVE SMOOTH",
"302 292 OFFCURVE",
"296 291 OFFCURVE",
"290 288 CURVE SMOOTH",
"247 265 OFFCURVE",
"164 191 OFFCURVE",
"126 156 CURVE",
"126 159 LINE SMOOTH",
"126 191 OFFCURVE",
"162 254 OFFCURVE",
"177 283 CURVE SMOOTH",
"223 367 OFFCURVE",
"271 451 OFFCURVE",
"324 531 CURVE SMOOTH",
"338 551 OFFCURVE",
"353 571 OFFCURVE",
"367 592 CURVE",
"367 592 OFFCURVE",
"368 594 OFFCURVE",
"368 595 CURVE SMOOTH",
"368 604 OFFCURVE",
"347 605 OFFCURVE",
"342 605 CURVE SMOOTH",
"331 605 OFFCURVE",
"307 601 OFFCURVE",
"299 593 CURVE",
"295 587 OFFCURVE",
"267 544 OFFCURVE",
"262 536 CURVE",
"261 533 OFFCURVE",
"260 531 OFFCURVE",
"260 528 CURVE SMOOTH",
"260 523 OFFCURVE",
"261 518 OFFCURVE",
"263 514 CURVE",
"203 421 OFFCURVE",
"154 319 OFFCURVE",
"109 217 CURVE",
"97 214 OFFCURVE",
"78 208 OFFCURVE",
"78 191 CURVE SMOOTH",
"78 184 OFFCURVE",
"83 168 OFFCURVE",
"84 160 CURVE",
"59 115 OFFCURVE",
"37 68 OFFCURVE",
"13 21 CURVE SMOOTH",
"7 11 OFFCURVE",
"0 1 OFFCURVE",
"-7 -10 CURVE",
"-7 -14 OFFCURVE",
"-4 -15 OFFCURVE",
"-1 -15 CURVE SMOOTH"
);
}
);
width = 256;
}
);
note = k;
unicode = 006B;
},
{
glyphname = kgreenlandic;
lastChange = "2021-07-22 18:30:39 +0000";
layers = (
{
layerId = "5758FC1C-8DB2-4040-8B3F-38A5D3FE42F4";
paths = (
{
closed = 1;
nodes = (
"26 -15 OFFCURVE",
"60 17 OFFCURVE",
"60 44 CURVE SMOOTH",
"60 46 OFFCURVE",
"59 48 OFFCURVE",
"59 50 CURVE",
"73 73 OFFCURVE",
"89 96 OFFCURVE",
"107 116 CURVE",
"114 76 OFFCURVE",
"150 -4 OFFCURVE",
"198 -4 CURVE SMOOTH",
"244 -4 OFFCURVE",
"258 43 OFFCURVE",
"270 78 CURVE SMOOTH",
"271 81 OFFCURVE",
"272 84 OFFCURVE",
"272 87 CURVE SMOOTH",
"272 88 OFFCURVE",
"272 94 OFFCURVE",
"269 94 CURVE SMOOTH",
"261 94 OFFCURVE",
"243 25 OFFCURVE",
"209 25 CURVE SMOOTH",
"175 25 OFFCURVE",
"139 110 OFFCURVE",
"131 139 CURVE",
"173 176 OFFCURVE",
"231 215 OFFCURVE",
"280 244 CURVE SMOOTH",
"290 249 OFFCURVE",
"325 269 OFFCURVE",
"325 283 CURVE SMOOTH",
"325 291 OFFCURVE",
"313 292 OFFCURVE",
"308 292 CURVE SMOOTH",
"302 292 OFFCURVE",
"296 291 OFFCURVE",
"290 288 CURVE SMOOTH",
"247 265 OFFCURVE",
"164 191 OFFCURVE",
"126 156 CURVE",
"126 159 LINE SMOOTH",
"126 191 OFFCURVE",
"162 254 OFFCURVE",
"177 283 CURVE",
"236 358 LINE",
"250 378 OFFCURVE",
"265 398 OFFCURVE",
"279 419 CURVE",
"279 419 OFFCURVE",
"280 421 OFFCURVE",
"280 422 CURVE SMOOTH",
"280 431 OFFCURVE",
"259 432 OFFCURVE",
"254 432 CURVE SMOOTH",
"243 432 OFFCURVE",
"219 428 OFFCURVE",
"211 420 CURVE",
"207 414 OFFCURVE",
"179 371 OFFCURVE",
"174 363 CURVE",
"173 360 OFFCURVE",
"172 358 OFFCURVE",
"172 355 CURVE SMOOTH",
"172 350 OFFCURVE",
"173 345 OFFCURVE",
"175 341 CURVE",
"109 217 LINE",
"97 214 OFFCURVE",
"78 208 OFFCURVE",
"78 191 CURVE SMOOTH",
"78 184 OFFCURVE",
"83 168 OFFCURVE",
"84 160 CURVE",
"59 115 OFFCURVE",
"37 68 OFFCURVE",
"13 21 CURVE SMOOTH",
"7 11 OFFCURVE",
"0 1 OFFCURVE",
"-7 -10 CURVE",
"-7 -14 OFFCURVE",
"-4 -15 OFFCURVE",
"-1 -15 CURVE SMOOTH"
);
}
);
width = 256;
}
);
unicode = 0138;
},
{
glyphname = l;
lastChange = "2021-07-22 18:30:39 +0000";
layers = (
{
anchors = (
{
name = bottom;
position = "{45, 0}";
},
{
name = center;
position = "{89, 303}";
},
{
name = top;
position = "{336, 605}";
},
{
name = topright;
position = "{427, 605}";
}
);
layerId = "5758FC1C-8DB2-4040-8B3F-38A5D3FE42F4";
paths = (
{
closed = 1;
nodes = (
"52 -2 OFFCURVE",
"58 -1 OFFCURVE",
"64 0 CURVE SMOOTH",
"99 8 OFFCURVE",
"150 37 OFFCURVE",
"174 65 CURVE SMOOTH",
"178 70 OFFCURVE",
"184 80 OFFCURVE",
"184 86 CURVE SMOOTH",
"184 88 OFFCURVE",
"184 90 OFFCURVE",
"182 90 CURVE SMOOTH",
"175 90 OFFCURVE",
"119 31 OFFCURVE",
"84 31 CURVE SMOOTH",
"72 31 OFFCURVE",
"69 39 OFFCURVE",
"69 50 CURVE SMOOTH",
"69 75 OFFCURVE",
"87 115 OFFCURVE",
"99 138 CURVE SMOOTH",
"160 262 OFFCURVE",
"227 383 OFFCURVE",
"304 499 CURVE SMOOTH",
"325 530 OFFCURVE",
"347 561 OFFCURVE",
"369 592 CURVE",
"370 592 OFFCURVE",
"370 594 OFFCURVE",
"370 595 CURVE SMOOTH",
"370 604 OFFCURVE",
"350 605 OFFCURVE",
"344 605 CURVE SMOOTH",
"333 605 OFFCURVE",
"309 601 OFFCURVE",
"302 593 CURVE SMOOTH",
"297 588 OFFCURVE",
"269 544 OFFCURVE",
"264 536 CURVE",
"263 533 OFFCURVE",
"263 531 OFFCURVE",
"263 528 CURVE SMOOTH",
"263 523 OFFCURVE",
"264 518 OFFCURVE",
"265 514 CURVE",
"181 390 OFFCURVE",
"84 222 OFFCURVE",
"30 82 CURVE SMOOTH",
"24 66 OFFCURVE",
"17 44 OFFCURVE",
"17 27 CURVE SMOOTH",
"17 8 OFFCURVE",
"26 -2 OFFCURVE",
"45 -2 CURVE SMOOTH"
);
}
);
width = 177;
}
);
note = l;
unicode = 006C;
},
{
glyphname = m;
lastChange = "2021-07-22 18:30:39 +0000";
layers = (
{
layerId = "5758FC1C-8DB2-4040-8B3F-38A5D3FE42F4";
paths = (
{
closed = 1;
nodes = (
"20 -15 OFFCURVE",
"56 2 OFFCURVE",
"61 12 CURVE SMOOTH",
"70 29 OFFCURVE",
"79 44 OFFCURVE",
"90 60 CURVE SMOOTH",
"108 87 OFFCURVE",
"217 229 OFFCURVE",
"246 229 CURVE SMOOTH",
"252 229 OFFCURVE",
"252 222 OFFCURVE",
"252 218 CURVE SMOOTH",
"252 170 OFFCURVE",
"198 63 OFFCURVE",
"180 13 CURVE",
"179 13 OFFCURVE",
"179 11 OFFCURVE",
"179 11 CURVE",
"179 7 OFFCURVE",
"185 6 OFFCURVE",
"187 6 CURVE SMOOTH",
"222 6 OFFCURVE",
"250 46 OFFCURVE",
"259 76 CURVE",
"298 112 OFFCURVE",
"337 151 OFFCURVE",
"371 193 CURVE",
"357 155 OFFCURVE",
"342 112 OFFCURVE",
"342 71 CURVE SMOOTH",
"342 32 OFFCURVE",
"357 0 OFFCURVE",
"401 0 CURVE SMOOTH",
"442 0 OFFCURVE",
"488 38 OFFCURVE",
"508 71 CURVE SMOOTH",
"510 74 OFFCURVE",
"514 81 OFFCURVE",
"514 85 CURVE SMOOTH",
"514 86 OFFCURVE",
"514 87 OFFCURVE",
"512 87 CURVE SMOOTH",
"504 87 OFFCURVE",
"454 26 OFFCURVE",
"417 26 CURVE SMOOTH",
"392 26 OFFCURVE",
"389 61 OFFCURVE",
"389 79 CURVE SMOOTH",
"389 109 OFFCURVE",
"395 140 OFFCURVE",
"402 168 CURVE",
"414 174 OFFCURVE",
"425 210 OFFCURVE",
"425 223 CURVE SMOOTH",
"425 238 OFFCURVE",
"419 243 OFFCURVE",
"404 243 CURVE SMOOTH",
"394 243 OFFCURVE",
"391 241 OFFCURVE",
"385 233 CURVE SMOOTH",
"356 191 OFFCURVE",
"299 136 OFFCURVE",
"260 102 CURVE",
"276 138 OFFCURVE",
"307 217 OFFCURVE",
"307 255 CURVE SMOOTH",
"307 264 OFFCURVE",
"305 277 OFFCURVE",
"293 277 CURVE SMOOTH",
"257 277 OFFCURVE",
"132 146 OFFCURVE",
"105 113 CURVE",
"113 142 OFFCURVE",
"175 279 OFFCURVE",
"175 286 CURVE SMOOTH",
"175 292 OFFCURVE",
"171 295 OFFCURVE",
"165 295 CURVE SMOOTH",
"155 295 OFFCURVE",
"131 285 OFFCURVE",
"126 277 CURVE SMOOTH",
"122 270 OFFCURVE",
"89 219 OFFCURVE",
"89 216 CURVE SMOOTH",
"89 211 OFFCURVE",
"100 215 OFFCURVE",
"100 211 CURVE",
"89 182 LINE SMOOTH",
"63 117 OFFCURVE",
"39 51 OFFCURVE",
"3 -10 CURVE",
"3 -14 OFFCURVE",
"6 -15 OFFCURVE",
"9 -15 CURVE SMOOTH"
);
}
);
width = 472;
}
);
note = m;
unicode = 006D;
},
{
glyphname = n;
lastChange = "2021-07-22 18:30:39 +0000";
layers = (
{
anchors = (
{
name = bottom;
position = "{140, 0}";
},
{
name = top;
position = "{272, 280}";
}
);
layerId = "5758FC1C-8DB2-4040-8B3F-38A5D3FE42F4";
paths = (
{
closed = 1;
nodes = (
"28 -15 OFFCURVE",
"64 2 OFFCURVE",
"69 12 CURVE SMOOTH",
"98 70 OFFCURVE",
"179 173 OFFCURVE",
"230 215 CURVE SMOOTH",
"235 219 OFFCURVE",
"247 229 OFFCURVE",
"254 229 CURVE SMOOTH",
"258 229 OFFCURVE",
"259 224 OFFCURVE",
"259 221 CURVE SMOOTH",
"259 210 OFFCURVE",
"253 193 OFFCURVE",
"250 183 CURVE SMOOTH",
"240 148 OFFCURVE",
"224 102 OFFCURVE",
"224 67 CURVE SMOOTH",
"224 27 OFFCURVE",
"244 0 OFFCURVE",
"286 0 CURVE SMOOTH",
"326 0 OFFCURVE",
"372 38 OFFCURVE",
"393 71 CURVE SMOOTH",
"395 74 OFFCURVE",
"398 81 OFFCURVE",
"398 85 CURVE SMOOTH",
"398 86 OFFCURVE",
"398 87 OFFCURVE",
"397 87 CURVE SMOOTH",
"388 87 OFFCURVE",
"338 26 OFFCURVE",
"301 26 CURVE SMOOTH",
"277 26 OFFCURVE",
"272 46 OFFCURVE",
"272 66 CURVE SMOOTH",
"272 106 OFFCURVE",
"292 167 OFFCURVE",
"303 207 CURVE SMOOTH",
"308 224 OFFCURVE",
"313 243 OFFCURVE",
"313 261 CURVE SMOOTH",
"313 268 OFFCURVE",
"312 278 OFFCURVE",
"302 278 CURVE SMOOTH",
"266 278 OFFCURVE",
"140 146 OFFCURVE",
"112 113 CURVE",
"122 133 OFFCURVE",
"191 275 OFFCURVE",
"191 286 CURVE SMOOTH",
"191 292 OFFCURVE",
"186 295 OFFCURVE",
"181 295 CURVE SMOOTH",
"171 295 OFFCURVE",
"147 285 OFFCURVE",
"141 277 CURVE SMOOTH",
"137 270 OFFCURVE",
"105 219 OFFCURVE",
"105 216 CURVE SMOOTH",
"105 211 OFFCURVE",
"115 215 OFFCURVE",
"115 211 CURVE SMOOTH",
"115 210 OFFCURVE",
"107 191 OFFCURVE",
"107 189 CURVE",
"79 121 OFFCURVE",
"48 54 OFFCURVE",
"11 -10 CURVE",
"10 -14 OFFCURVE",
"14 -15 OFFCURVE",
"17 -15 CURVE SMOOTH"
);
}
);
width = 356;
}
);
note = n;
unicode = 006E;
},
{
color = 3;
glyphname = eng;
lastChange = "2021-07-22 18:30:39 +0000";
layers = (
{
layerId = "5758FC1C-8DB2-4040-8B3F-38A5D3FE42F4";
paths = (
{
closed = 1;
nodes = (
"134 -230 OFFCURVE",
"256 70 OFFCURVE",
"312 261 CURVE SMOOTH",
"313 268 OFFCURVE",
"312 278 OFFCURVE",
"302 278 CURVE SMOOTH",
"266 278 OFFCURVE",
"140 146 OFFCURVE",
"112 113 CURVE",
"122 133 OFFCURVE",
"191 275 OFFCURVE",
"191 286 CURVE SMOOTH",
"191 292 OFFCURVE",
"186 295 OFFCURVE",
"181 295 CURVE SMOOTH",
"171 295 OFFCURVE",
"147 285 OFFCURVE",
"141 277 CURVE SMOOTH",
"137 270 OFFCURVE",
"105 219 OFFCURVE",
"105 216 CURVE SMOOTH",
"105 211 OFFCURVE",
"115 215 OFFCURVE",
"115 211 CURVE SMOOTH",
"115 210 OFFCURVE",
"107 191 OFFCURVE",
"107 189 CURVE",
"79 121 OFFCURVE",
"48 54 OFFCURVE",
"11 -10 CURVE",
"10 -14 OFFCURVE",
"14 -15 OFFCURVE",
"17 -15 CURVE SMOOTH",
"28 -15 OFFCURVE",
"64 2 OFFCURVE",
"69 12 CURVE SMOOTH",
"98 70 OFFCURVE",
"179 173 OFFCURVE",
"230 215 CURVE SMOOTH",
"235 219 OFFCURVE",
"247 229 OFFCURVE",
"254 229 CURVE SMOOTH",
"258 229 OFFCURVE",
"254 224 OFFCURVE",
"254 221 CURVE",
"205 78 OFFCURVE",
"107 -212 OFFCURVE",
"-28 -212 CURVE SMOOTH",
"-49 -212 OFFCURVE",
"-68 -201 OFFCURVE",
"-68 -176 CURVE SMOOTH",
"-68 -169 OFFCURVE",
"-66 -161 OFFCURVE",
"-63 -152 CURVE SMOOTH",
"-55 -130 OFFCURVE",
"-34 -111 OFFCURVE",
"-11 -95 CURVE SMOOTH",
"-2 -88 OFFCURVE",
"3 -82 OFFCURVE",
"3 -79 CURVE SMOOTH",
"3 -77 OFFCURVE",
"1 -76 OFFCURVE",
"-2 -76 CURVE SMOOTH",
"-6 -76 OFFCURVE",
"-12 -78 OFFCURVE",
"-20 -81 CURVE",
"-48 -99 OFFCURVE",
"-73 -122 OFFCURVE",
"-84 -148 CURVE SMOOTH",
"-89 -160 OFFCURVE",
"-91 -170 OFFCURVE",
"-91 -179 CURVE SMOOTH",
"-91 -215 OFFCURVE",
"-58 -230 OFFCURVE",
"-29 -230 CURVE SMOOTH"
);
}
);
width = 318;
}
);
unicode = 014B;
},
{
glyphname = o;
lastChange = "2021-07-26 15:24:08 +0000";
layers = (
{
anchors = (
{
name = bottom;
position = "{35, 0}";
},
{
name = center;
position = "{128, 140}";
},
{
name = ogonek;
position = "{72, 10}";
},
{
name = top;
position = "{216, 280}";
},
{
name = topright;
position = "{215, 280}";
}
);
layerId = "5758FC1C-8DB2-4040-8B3F-38A5D3FE42F4";
paths = (
{
closed = 1;
nodes = (
"87 -8 OFFCURVE",
"117 3 OFFCURVE",
"140 21 CURVE",
"152 7 OFFCURVE",
"167 -2 OFFCURVE",
"185 -2 CURVE SMOOTH",
"189 -2 OFFCURVE",
"195 -1 OFFCURVE",
"195 4 CURVE SMOOTH",
"195 7 OFFCURVE",
"190 8 OFFCURVE",
"187 8 CURVE SMOOTH",
"172 8 OFFCURVE",
"158 14 OFFCURVE",
"148 26 CURVE",
"199 68 OFFCURVE",
"280 187 OFFCURVE",
"280 254 CURVE SMOOTH",
"280 293 OFFCURVE",
"254 307 OFFCURVE",
"219 307 CURVE SMOOTH",
"181 307 OFFCURVE",
"109 284 OFFCURVE",
"109 237 CURVE SMOOTH",
"109 235 LINE",
"69 189 OFFCURVE",
"10 96 OFFCURVE",
"10 34 CURVE SMOOTH",
"10 1 OFFCURVE",
"27 -8 OFFCURVE",
"57 -8 CURVE SMOOTH"
);
},
{
closed = 1;
nodes = (
"73 17 OFFCURVE",
"66 40 OFFCURVE",
"66 60 CURVE SMOOTH",
"66 94 OFFCURVE",
"83 124 OFFCURVE",
"101 152 CURVE",
"101 113 OFFCURVE",
"110 65 OFFCURVE",
"131 32 CURVE",
"122 24 OFFCURVE",
"110 17 OFFCURVE",
"97 17 CURVE SMOOTH"
);
},
{
closed = 1;
nodes = (
"124 67 OFFCURVE",
"119 104 OFFCURVE",
"119 135 CURVE SMOOTH",
"119 156 OFFCURVE",
"121 178 OFFCURVE",
"127 198 CURVE",
"142 213 OFFCURVE",
"156 223 OFFCURVE",
"174 233 CURVE SMOOTH",
"176 234 OFFCURVE",
"176 236 OFFCURVE",
"176 238 CURVE SMOOTH",
"176 243 OFFCURVE",
"172 251 OFFCURVE",
"169 255 CURVE",
"176 269 OFFCURVE",
"192 284 OFFCURVE",
"208 284 CURVE SMOOTH",
"229 284 OFFCURVE",
"234 262 OFFCURVE",
"234 246 CURVE SMOOTH",
"234 186 OFFCURVE",
"182 80 OFFCURVE",
"139 39 CURVE"
);
}
);
width = 255;
}
);
note = o;
unicode = 006F;
},
{
glyphname = oslash;
lastChange = "2021-07-22 18:30:39 +0000";
layers = (
{
anchors = (
{
name = top;
position = "{210, 280}";
}
);
layerId = "5758FC1C-8DB2-4040-8B3F-38A5D3FE42F4";
paths = (
{
closed = 1;
nodes = (
"42 -75 OFFCURVE",
"56 -40 OFFCURVE",
"72 -7 CURVE",
"97 -4 OFFCURVE",
"121 6 OFFCURVE",
"140 21 CURVE SMOOTH",
"212 78 OFFCURVE",
"280 194 OFFCURVE",
"280 254 CURVE SMOOTH",
"280 267 OFFCURVE",
"277 278 OFFCURVE",
"272 286 CURVE",
"285 300 OFFCURVE",
"297 315 OFFCURVE",
"310 328 CURVE",
"314 338 OFFCURVE",
"307 344 OFFCURVE",
"298 344 CURVE SMOOTH",
"290 344 OFFCURVE",
"280 340 OFFCURVE",
"273 333 CURVE SMOOTH",
"265 326 OFFCURVE",
"256 316 OFFCURVE",
"245 304 CURVE",
"237 306 OFFCURVE",
"228 307 OFFCURVE",
"219 307 CURVE SMOOTH",
"181 307 OFFCURVE",
"109 284 OFFCURVE",
"109 237 CURVE SMOOTH",
"109 235 LINE",
"69 189 OFFCURVE",
"10 96 OFFCURVE",
"10 34 CURVE SMOOTH",
"10 4 OFFCURVE",
"24 -6 OFFCURVE",
"50 -8 CURVE",
"36 -37 OFFCURVE",
"28 -59 OFFCURVE",
"27 -71 CURVE SMOOTH",
"26 -96 OFFCURVE",
"25 -127 OFFCURVE",
"29 -110 CURVE"
);
},
{
closed = 1;
nodes = (
"92 16 OFFCURVE",
"88 17 OFFCURVE",
"85 18 CURVE",
"130 104 OFFCURVE",
"185 182 OFFCURVE",
"241 249 CURVE",
"241 246 LINE SMOOTH",
"241 186 OFFCURVE",
"172 29 OFFCURVE",
"97 17 CURVE SMOOTH"
);
},
{
closed = 1;
nodes = (
"67 42 OFFCURVE",
"66 51 OFFCURVE",
"66 60 CURVE SMOOTH",
"66 127 OFFCURVE",
"164 284 OFFCURVE",
"208 284 CURVE SMOOTH",
"215 284 OFFCURVE",
"220 282 OFFCURVE",
"225 278 CURVE",
"175 213 OFFCURVE",
"112 112 OFFCURVE",
"71 33 CURVE"
);
}
);
width = 255;
}
);
unicode = 00F8;
},
{
glyphname = oe;
lastChange = "2021-07-22 18:30:39 +0000";
layers = (
{
layerId = "5758FC1C-8DB2-4040-8B3F-38A5D3FE42F4";
paths = (
{
closed = 1;
nodes = (
"98 -8 OFFCURVE",
"140 22 OFFCURVE",
"170 50 CURVE",
"169 43 OFFCURVE",
"169 36 OFFCURVE",
"169 29 CURVE SMOOTH",
"169 0 OFFCURVE",
"176 -7 OFFCURVE",
"205 -7 CURVE SMOOTH",
"265 -7 OFFCURVE",
"325 18 OFFCURVE",
"373 54 CURVE",
"384 64 OFFCURVE",
"410 90 OFFCURVE",
"410 106 CURVE SMOOTH",
"410 109 OFFCURVE",
"409 110 OFFCURVE",
"406 110 CURVE SMOOTH",
"401 110 OFFCURVE",
"330 16 OFFCURVE",
"262 16 CURVE SMOOTH",
"239 16 OFFCURVE",
"226 28 OFFCURVE",
"226 51 CURVE SMOOTH",
"226 80 OFFCURVE",
"247 123 OFFCURVE",
"260 147 CURVE",
"297 155 OFFCURVE",
"336 161 OFFCURVE",
"373 161 CURVE SMOOTH",
"385 161 OFFCURVE",
"397 158 OFFCURVE",
"409 158 CURVE SMOOTH",
"411 158 OFFCURVE",
"424 158 OFFCURVE",
"424 162 CURVE SMOOTH",
"424 169 OFFCURVE",
"390 176 OFFCURVE",
"384 177 CURVE",
"408 190 OFFCURVE",
"439 242 OFFCURVE",
"439 270 CURVE SMOOTH",
"439 287 OFFCURVE",
"428 295 OFFCURVE",
"411 295 CURVE SMOOTH",
"404 295 OFFCURVE",
"370 290 OFFCURVE",
"370 282 CURVE SMOOTH",
"370 278 OFFCURVE",
"377 277 OFFCURVE",
"380 277 CURVE SMOOTH",
"392 277 OFFCURVE",
"394 277 OFFCURVE",
"394 262 CURVE SMOOTH",
"394 235 OFFCURVE",
"379 200 OFFCURVE",
"364 179 CURVE",
"334 181 OFFCURVE",
"304 178 OFFCURVE",
"274 173 CURVE",
"289 197 OFFCURVE",
"316 240 OFFCURVE",
"339 257 CURVE SMOOTH",
"341 259 OFFCURVE",
"352 266 OFFCURVE",
"352 270 CURVE SMOOTH",
"352 273 OFFCURVE",
"346 273 OFFCURVE",
"345 273 CURVE SMOOTH",
"321 273 OFFCURVE",
"296 260 OFFCURVE",
"279 246 CURVE",
"280 286 OFFCURVE",
"259 307 OFFCURVE",
"219 307 CURVE SMOOTH",
"181 307 OFFCURVE",
"108 284 OFFCURVE",
"109 237 CURVE SMOOTH",
"109 235 LINE",
"69 189 OFFCURVE",
"10 96 OFFCURVE",
"10 34 CURVE SMOOTH",
"10 2 OFFCURVE",
"26 -8 OFFCURVE",
"55 -8 CURVE SMOOTH"
);
},
{
closed = 1;
nodes = (
"74 17 OFFCURVE",
"65 33 OFFCURVE",
"65 54 CURVE SMOOTH",
"65 113 OFFCURVE",
"122 204 OFFCURVE",
"174 233 CURVE SMOOTH",
"176 234 OFFCURVE",
"176 236 OFFCURVE",
"176 238 CURVE SMOOTH",
"176 243 OFFCURVE",
"172 251 OFFCURVE",
"169 255 CURVE",
"176 269 OFFCURVE",
"192 284 OFFCURVE",
"208 284 CURVE SMOOTH",
"229 284 OFFCURVE",
"234 262 OFFCURVE",
"234 246 CURVE SMOOTH",
"234 219 OFFCURVE",
"219 177 OFFCURVE",
"208 152 CURVE",
"205 149 OFFCURVE",
"201 144 OFFCURVE",
"201 139 CURVE SMOOTH",
"201 138 OFFCURVE",
"201 137 OFFCURVE",
"202 136 CURVE",
"185 100 OFFCURVE",
"144 17 OFFCURVE",
"97 17 CURVE SMOOTH"
);
}
);
width = 382;
}
);
note = oe;
unicode = 0153;
},
{
glyphname = p;
lastChange = "2021-07-22 18:30:39 +0000";
layers = (
{
layerId = "5758FC1C-8DB2-4040-8B3F-38A5D3FE42F4";
paths = (
{
closed = 1;
nodes = (
"-18 -325 OFFCURVE",
"3 -314 OFFCURVE",
"19 -302 CURVE SMOOTH",
"31 -293 OFFCURVE",
"68 -260 OFFCURVE",
"68 -243 CURVE SMOOTH",
"68 -242 OFFCURVE",
"68 -241 OFFCURVE",
"67 -241 CURVE SMOOTH",
"62 -241 OFFCURVE",
"21 -295 OFFCURVE",
"-13 -295 CURVE SMOOTH",
"-36 -295 OFFCURVE",
"-37 -263 OFFCURVE",
"-37 -246 CURVE SMOOTH",
"-37 -170 OFFCURVE",
"16 -57 OFFCURVE",
"49 11 CURVE",
"70 -3 OFFCURVE",
"99 -6 OFFCURVE",
"124 -6 CURVE SMOOTH",
"193 -6 OFFCURVE",
"277 67 OFFCURVE",
"277 139 CURVE SMOOTH",
"277 191 OFFCURVE",
"243 256 OFFCURVE",
"215 299 CURVE",
"222 309 OFFCURVE",
"255 352 OFFCURVE",
"255 361 CURVE SMOOTH",
"255 364 OFFCURVE",
"253 366 OFFCURVE",
"251 366 CURVE SMOOTH",
"236 366 OFFCURVE",
"212 327 OFFCURVE",
"203 315 CURVE",
"198 323 OFFCURVE",
"169 363 OFFCURVE",
"160 363 CURVE SMOOTH",
"150 363 OFFCURVE",
"126 344 OFFCURVE",
"126 334 CURVE SMOOTH",
"126 331 OFFCURVE",
"127 331 OFFCURVE",
"129 329 CURVE",
"147 318 OFFCURVE",
"164 293 OFFCURVE",
"176 276 CURVE",
"137 221 OFFCURVE",
"101 164 OFFCURVE",
"68 106 CURVE",
"41 94 OFFCURVE",
"28 82 OFFCURVE",
"28 51 CURVE SMOOTH",
"28 46 OFFCURVE",
"28 41 OFFCURVE",
"30 36 CURVE",
"-6 -32 OFFCURVE",
"-82 -184 OFFCURVE",
"-82 -260 CURVE SMOOTH",
"-82 -289 OFFCURVE",
"-74 -325 OFFCURVE",
"-38 -325 CURVE SMOOTH"
);
},
{
closed = 1;
nodes = (
"113 14 OFFCURVE",
"78 21 OFFCURVE",
"65 42 CURVE",
"74 61 OFFCURVE",
"84 79 OFFCURVE",
"94 97 CURVE",
"103 102 OFFCURVE",
"125 108 OFFCURVE",
"125 122 CURVE SMOOTH",
"125 125 OFFCURVE",
"122 126 OFFCURVE",
"120 126 CURVE SMOOTH",
"116 126 OFFCURVE",
"111 124 OFFCURVE",
"108 122 CURVE",
"133 168 OFFCURVE",
"160 213 OFFCURVE",
"188 257 CURVE",
"212 216 OFFCURVE",
"238 158 OFFCURVE",
"238 109 CURVE SMOOTH",
"238 49 OFFCURVE",
"193 14 OFFCURVE",
"135 14 CURVE SMOOTH"
);
}
);
width = 280;
}
);
note = p;
unicode = 0070;
},
{
glyphname = thorn;
lastChange = "2021-07-22 18:30:23 +0000";
layers = (
{
layerId = "5758FC1C-8DB2-4040-8B3F-38A5D3FE42F4";
paths = (
{
closed = 1;
nodes = (
"14 -244 OFFCURVE",
"12 -229 OFFCURVE",
"12 -212 CURVE SMOOTH",
"12 -157 OFFCURVE",
"27 -81 OFFCURVE",
"76 30 CURVE",
"94 15 OFFCURVE",
"120 12 OFFCURVE",
"145 12 CURVE SMOOTH",
"212 12 OFFCURVE",
"338 73 OFFCURVE",
"350 189 CURVE SMOOTH",
"357 258 OFFCURVE",
"308 326 OFFCURVE",
"217 326 CURVE",
"223 335 OFFCURVE",
"307 518 OFFCURVE",
"300 524 CURVE SMOOTH",
"264 555 OFFCURVE",
"158 322 OFFCURVE",
"77 118 CURVE",
"-15 -135 OFFCURVE",
"-19 -148 OFFCURVE",
"-19 -196 CURVE SMOOTH",
"-19 -223 OFFCURVE",
"-13 -257 OFFCURVE",
"16 -257 CURVE"
);
},
{
closed = 1;
nodes = (
"134 33 OFFCURVE",
"101 41 OFFCURVE",
"90 63 CURVE",
"99 85 OFFCURVE",
"161 247 OFFCURVE",
"183 287 CURVE",
"247 287 OFFCURVE",
"320 261 OFFCURVE",
"320 194 CURVE SMOOTH",
"320 113 OFFCURVE",
"214 33 OFFCURVE",
"155 33 CURVE SMOOTH"
);
}
);
width = 376;
}
);
unicode = 00FE;
},
{
glyphname = q;
lastChange = "2021-07-22 18:30:39 +0000";
layers = (
{
layerId = "5758FC1C-8DB2-4040-8B3F-38A5D3FE42F4";
paths = (
{
closed = 1;
nodes = (
"120 -332 OFFCURVE",
"148 -315 OFFCURVE",
"168 -300 CURVE SMOOTH",
"220 -259 OFFCURVE",
"241 -198 OFFCURVE",
"241 -135 CURVE SMOOTH",
"241 -72 OFFCURVE",
"217 16 OFFCURVE",
"183 70 CURVE",
"202 112 OFFCURVE",
"223 153 OFFCURVE",
"249 193 CURVE SMOOTH",
"269 223 OFFCURVE",
"291 252 OFFCURVE",
"312 281 CURVE",
"312 282 OFFCURVE",
"313 284 OFFCURVE",
"313 285 CURVE SMOOTH",
"313 293 OFFCURVE",
"300 293 OFFCURVE",
"295 293 CURVE SMOOTH",
"283 293 OFFCURVE",
"269 290 OFFCURVE",
"259 283 CURVE",
"248 284 OFFCURVE",
"237 286 OFFCURVE",
"226 286 CURVE SMOOTH",
"208 286 OFFCURVE",
"191 278 OFFCURVE",
"176 270 CURVE",
"94 277 OFFCURVE",
"2 89 OFFCURVE",
"2 19 CURVE SMOOTH",
"2 6 OFFCURVE",
"5 -7 OFFCURVE",
"20 -7 CURVE SMOOTH",
"63 -7 OFFCURVE",
"139 71 OFFCURVE",
"165 101 CURVE",
"125 15 OFFCURVE",
"45 -172 OFFCURVE",
"45 -263 CURVE SMOOTH",
"45 -295 OFFCURVE",
"55 -332 OFFCURVE",
"94 -332 CURVE SMOOTH"
);
},
{
closed = 1;
nodes = (
"100 -306 OFFCURVE",
"98 -278 OFFCURVE",
"98 -265 CURVE SMOOTH",
"98 -178 OFFCURVE",
"143 -29 OFFCURVE",
"173 54 CURVE",
"193 4 OFFCURVE",
"213 -71 OFFCURVE",
"213 -125 CURVE SMOOTH",
"213 -146 OFFCURVE",
"210 -167 OFFCURVE",
"204 -188 CURVE SMOOTH",
"196 -218 OFFCURVE",
"158 -306 OFFCURVE",
"119 -306 CURVE SMOOTH"
);
},
{
closed = 1;
nodes = (
"52 27 OFFCURVE",
"50 31 OFFCURVE",
"50 34 CURVE SMOOTH",
"50 39 OFFCURVE",
"52 43 OFFCURVE",
"53 47 CURVE SMOOTH",
"70 101 OFFCURVE",
"113 188 OFFCURVE",
"151 228 CURVE SMOOTH",
"168 246 OFFCURVE",
"194 262 OFFCURVE",
"219 262 CURVE SMOOTH",
"226 262 OFFCURVE",
"232 260 OFFCURVE",
"238 258 CURVE",
"203 189 OFFCURVE",
"141 84 OFFCURVE",
"78 39 CURVE SMOOTH",
"73 35 OFFCURVE",
"62 27 OFFCURVE",
"56 27 CURVE SMOOTH"
);
}
);
width = 261;
}
);
note = q;
unicode = 0071;
},
{
glyphname = r;
lastChange = "2021-07-22 18:30:39 +0000";
layers = (
{
anchors = (
{
name = bottom;
position = "{43, 0}";
},
{
name = top;
position = "{240, 280}";
}
);
layerId = "5758FC1C-8DB2-4040-8B3F-38A5D3FE42F4";
paths = (
{
closed = 1;
nodes = (
"28 -15 OFFCURVE",
"73 4 OFFCURVE",
"78 15 CURVE SMOOTH",
"81 22 OFFCURVE",
"83 31 OFFCURVE",
"86 39 CURVE SMOOTH",
"93 62 OFFCURVE",
"103 84 OFFCURVE",
"118 105 CURVE SMOOTH",
"138 132 OFFCURVE",
"232 236 OFFCURVE",
"267 236 CURVE SMOOTH",
"274 236 OFFCURVE",
"280 224 OFFCURVE",
"280 217 CURVE SMOOTH",
"280 212 OFFCURVE",
"278 207 OFFCURVE",
"278 201 CURVE SMOOTH",
"278 196 OFFCURVE",
"282 195 OFFCURVE",
"286 195 CURVE SMOOTH",
"311 195 OFFCURVE",
"325 225 OFFCURVE",
"325 247 CURVE SMOOTH",
"325 263 OFFCURVE",
"322 282 OFFCURVE",
"301 282 CURVE SMOOTH",
"284 282 OFFCURVE",
"266 270 OFFCURVE",
"253 260 CURVE SMOOTH",
"205 222 OFFCURVE",
"158 177 OFFCURVE",
"119 130 CURVE",
"134 180 OFFCURVE",
"160 227 OFFCURVE",
"180 275 CURVE SMOOTH",
"181 278 OFFCURVE",
"183 282 OFFCURVE",
"183 286 CURVE SMOOTH",
"183 292 OFFCURVE",
"178 295 OFFCURVE",
"172 295 CURVE SMOOTH",
"163 295 OFFCURVE",
"138 285 OFFCURVE",
"133 277 CURVE SMOOTH",
"129 270 OFFCURVE",
"97 219 OFFCURVE",
"97 216 CURVE SMOOTH",
"97 211 OFFCURVE",
"107 215 OFFCURVE",
"107 211 CURVE",
"96 182 LINE SMOOTH",
"71 117 OFFCURVE",
"46 51 OFFCURVE",
"11 -10 CURVE",
"10 -14 OFFCURVE",
"14 -15 OFFCURVE",
"17 -15 CURVE SMOOTH"
);
}
);
width = 287;
}
);
note = r;
unicode = 0072;
},
{
glyphname = s;
lastChange = "2021-07-22 18:30:39 +0000";
layers = (
{
anchors = (
{
name = bottom;
position = "{76, 0}";
},
{
name = top;
position = "{199, 280}";
}
);
layerId = "5758FC1C-8DB2-4040-8B3F-38A5D3FE42F4";
paths = (
{
closed = 1;
nodes = (
"80 -23 OFFCURVE",
"134 -11 OFFCURVE",
"172 24 CURVE",
"186 26 OFFCURVE",
"199 29 OFFCURVE",
"213 31 CURVE SMOOTH",
"217 32 OFFCURVE",
"224 34 OFFCURVE",
"224 40 CURVE SMOOTH",
"224 43 OFFCURVE",
"220 43 OFFCURVE",
"218 43 CURVE SMOOTH",
"206 43 OFFCURVE",
"195 42 OFFCURVE",
"183 41 CURVE",
"190 52 OFFCURVE",
"197 64 OFFCURVE",
"197 77 CURVE SMOOTH",
"197 129 OFFCURVE",
"109 134 OFFCURVE",
"109 198 CURVE SMOOTH",
"109 238 OFFCURVE",
"151 263 OFFCURVE",
"188 263 CURVE SMOOTH",
"205 263 OFFCURVE",
"222 257 OFFCURVE",
"222 238 CURVE SMOOTH",
"222 227 OFFCURVE",
"215 216 OFFCURVE",
"215 206 CURVE SMOOTH",
"215 205 OFFCURVE",
"215 204 OFFCURVE",
"216 204 CURVE SMOOTH",
"217 204 OFFCURVE",
"218 204 OFFCURVE",
"219 204 CURVE",
"243 211 OFFCURVE",
"265 238 OFFCURVE",
"265 263 CURVE SMOOTH",
"265 283 OFFCURVE",
"251 293 OFFCURVE",
"232 293 CURVE SMOOTH",
"227 293 OFFCURVE",
"221 293 OFFCURVE",
"216 291 CURVE",
"155 278 OFFCURVE",
"98 251 OFFCURVE",
"68 194 CURVE SMOOTH",
"65 187 OFFCURVE",
"62 180 OFFCURVE",
"62 172 CURVE SMOOTH",
"62 112 OFFCURVE",
"161 91 OFFCURVE",
"161 49 CURVE SMOOTH",
"161 46 OFFCURVE",
"160 43 OFFCURVE",
"159 41 CURVE",
"117 37 OFFCURVE",
"53 28 OFFCURVE",
"16 7 CURVE",
"11 3 OFFCURVE",
"-3 -5 OFFCURVE",
"-3 -12 CURVE SMOOTH",
"-3 -23 OFFCURVE",
"23 -23 OFFCURVE",
"29 -23 CURVE SMOOTH"
);
}
);
width = 227;
}
);
note = s;
unicode = 0073;
},
{
glyphname = germandbls;
lastChange = "2021-07-22 18:30:39 +0000";
layers = (
{
layerId = "5758FC1C-8DB2-4040-8B3F-38A5D3FE42F4";
paths = (
{
closed = 1;
nodes = (
"5 -213 OFFCURVE",
"103 47 OFFCURVE",
"141 138 CURVE SMOOTH",
"157 176 OFFCURVE",
"173 212 OFFCURVE",
"189 249 CURVE SMOOTH",
"246 383 OFFCURVE",
"294 524 OFFCURVE",
"399 524 CURVE SMOOTH",
"436 524 OFFCURVE",
"465 489 OFFCURVE",
"465 428 CURVE SMOOTH",
"465 409 OFFCURVE",
"462 387 OFFCURVE",
"456 363 CURVE SMOOTH",
"453 352 OFFCURVE",
"448 338 OFFCURVE",
"444 324 CURVE",
"437 326 OFFCURVE",
"429 328 OFFCURVE",
"420 328 CURVE SMOOTH",
"413 328 OFFCURVE",
"406 327 OFFCURVE",
"399 326 CURVE",
"329 308 OFFCURVE",
"264 284 OFFCURVE",
"230 206 CURVE SMOOTH",
"227 199 OFFCURVE",
"224 180 OFFCURVE",
"224 172 CURVE SMOOTH",
"224 112 OFFCURVE",
"323 97 OFFCURVE",
"323 55 CURVE SMOOTH",
"323 29 OFFCURVE",
"240 10 OFFCURVE",
"179 10 CURVE SMOOTH",
"164 10 OFFCURVE",
"150 11 OFFCURVE",
"139 14 CURVE",
"134 10 OFFCURVE",
"135 4 OFFCURVE",
"141 0 CURVE SMOOTH",
"155 -11 OFFCURVE",
"180 -23 OFFCURVE",
"198 -23 CURVE SMOOTH",
"278 -23 OFFCURVE",
"359 13 OFFCURVE",
"359 77 CURVE SMOOTH",
"359 127 OFFCURVE",
"266 134 OFFCURVE",
"266 193 CURVE SMOOTH",
"266 252 OFFCURVE",
"324 288 OFFCURVE",
"367 288 CURVE SMOOTH",
"386 288 OFFCURVE",
"406 280 OFFCURVE",
"406 254 CURVE SMOOTH",
"406 249 OFFCURVE",
"410 247 OFFCURVE",
"416 247 CURVE SMOOTH",
"429 247 OFFCURVE",
"450 259 OFFCURVE",
"457 287 CURVE SMOOTH",
"458 293 OFFCURVE",
"459 298 OFFCURVE",
"459 302 CURVE",
"477 334 OFFCURVE",
"492 386 OFFCURVE",
"496 417 CURVE SMOOTH",
"497 427 OFFCURVE",
"498 436 OFFCURVE",
"498 445 CURVE SMOOTH",
"498 508 OFFCURVE",
"465 550 OFFCURVE",
"405 550 CURVE SMOOTH",
"235 550 OFFCURVE",
"141 250 OFFCURVE",
"103 159 CURVE SMOOTH",
"87 121 OFFCURVE",
"71 85 OFFCURVE",
"55 48 CURVE SMOOTH",
"32 -6 OFFCURVE",
"-29 -164 OFFCURVE",
"-87 -189 CURVE SMOOTH",
"-94 -192 OFFCURVE",
"-101 -194 OFFCURVE",
"-109 -194 CURVE SMOOTH",
"-137 -194 OFFCURVE",
"-154 -169 OFFCURVE",
"-154 -145 CURVE SMOOTH",
"-154 -137 OFFCURVE",
"-149 -131 OFFCURVE",
"-149 -123 CURVE",
"-149 -123 OFFCURVE",
"-149 -120 OFFCURVE",
"-152 -120 CURVE SMOOTH",
"-154 -120 OFFCURVE",
"-158 -125 OFFCURVE",
"-160 -126 CURVE SMOOTH",
"-174 -133 OFFCURVE",
"-181 -154 OFFCURVE",
"-181 -169 CURVE SMOOTH",
"-181 -172 OFFCURVE",
"-180 -174 OFFCURVE",
"-179 -177 CURVE SMOOTH",
"-171 -200 OFFCURVE",
"-148 -213 OFFCURVE",
"-123 -213 CURVE SMOOTH"
);
}
);
width = 447;
}
);
note = germandbls;
unicode = 00DF;
},
{
glyphname = t;
lastChange = "2021-07-22 18:30:39 +0000";
layers = (
{
anchors = (
{
name = bottom;
position = "{66, 4}";
},
{
name = center;
position = "{102, 194}";
},
{
name = top;
position = "{181, 376}";
},
{
name = topright;
position = "{280, 456}";
}
);
layerId = "5758FC1C-8DB2-4040-8B3F-38A5D3FE42F4";
paths = (
{
closed = 1;
nodes = (
"119 0 OFFCURVE",
"170 39 OFFCURVE",
"196 71 CURVE SMOOTH",
"198 74 OFFCURVE",
"203 81 OFFCURVE",
"203 86 CURVE",
"203 86 OFFCURVE",
"203 87 OFFCURVE",
"202 87 CURVE SMOOTH",
"194 87 OFFCURVE",
"134 26 OFFCURVE",
"97 26 CURVE SMOOTH",
"78 26 OFFCURVE",
"72 38 OFFCURVE",
"72 55 CURVE SMOOTH",
"72 108 OFFCURVE",
"128 213 OFFCURVE",
"154 260 CURVE",
"184 264 OFFCURVE",
"216 264 OFFCURVE",
"248 264 CURVE SMOOTH",
"256 264 OFFCURVE",
"265 265 OFFCURVE",
"265 271 CURVE SMOOTH",
"265 285 OFFCURVE",
"181 284 OFFCURVE",
"166 284 CURVE",
"171 293 OFFCURVE",
"214 369 OFFCURVE",
"214 376 CURVE SMOOTH",
"214 379 OFFCURVE",
"212 380 OFFCURVE",
"209 380 CURVE SMOOTH",
"200 380 OFFCURVE",
"174 367 OFFCURVE",
"164 364 CURVE SMOOTH",
"151 360 OFFCURVE",
"148 351 OFFCURVE",
"143 340 CURVE",
"120 317 OFFCURVE",
"96 296 OFFCURVE",
"69 279 CURVE SMOOTH",
"59 273 OFFCURVE",
"49 268 OFFCURVE",
"40 262 CURVE",
"37 261 OFFCURVE",
"34 258 OFFCURVE",
"34 254 CURVE SMOOTH",
"34 248 OFFCURVE",
"40 247 OFFCURVE",
"45 247 CURVE SMOOTH",
"62 247 OFFCURVE",
"90 253 OFFCURVE",
"109 255 CURVE",
"82 203 OFFCURVE",
"28 109 OFFCURVE",
"28 50 CURVE SMOOTH",
"28 18 OFFCURVE",
"44 0 OFFCURVE",
"77 0 CURVE SMOOTH"
);
},
{
closed = 1;
nodes = (
"101 289 OFFCURVE",
"115 300 OFFCURVE",
"130 310 CURVE",
"127 301 OFFCURVE",
"125 291 OFFCURVE",
"121 282 CURVE",
"110 281 OFFCURVE",
"99 280 OFFCURVE",
"87 278 CURVE"
);
}
);
width = 177;
}
);
note = t;
unicode = 0074;
},
{
glyphname = u;
lastChange = "2021-07-22 18:30:39 +0000";
layers = (
{
anchors = (
{
name = bottom;
position = "{134, 0}";
},
{
name = ogonek;
position = "{304, 10}";
},
{
name = top;
position = "{232, 280}";
},
{
name = topright;
position = "{262, 280}";
}
);
layerId = "5758FC1C-8DB2-4040-8B3F-38A5D3FE42F4";
paths = (
{
closed = 1;
nodes = (
"290 -8 OFFCURVE",
"311 3 OFFCURVE",
"327 15 CURVE SMOOTH",
"339 24 OFFCURVE",
"376 56 OFFCURVE",
"376 74 CURVE SMOOTH",
"376 75 OFFCURVE",
"376 76 OFFCURVE",
"375 76 CURVE SMOOTH",
"370 76 OFFCURVE",
"329 22 OFFCURVE",
"295 22 CURVE SMOOTH",
"272 22 OFFCURVE",
"272 50 OFFCURVE",
"272 67 CURVE SMOOTH",
"272 106 OFFCURVE",
"285 193 OFFCURVE",
"303 226 CURVE SMOOTH",
"310 239 OFFCURVE",
"343 270 OFFCURVE",
"343 281 CURVE SMOOTH",
"343 288 OFFCURVE",
"332 289 OFFCURVE",
"327 289 CURVE SMOOTH",
"316 289 OFFCURVE",
"293 284 OFFCURVE",
"283 278 CURVE SMOOTH",
"269 269 OFFCURVE",
"262 253 OFFCURVE",
"258 237 CURVE",
"258 235 OFFCURVE",
"256 228 OFFCURVE",
"255 226 CURVE SMOOTH",
"219 168 OFFCURVE",
"175 111 OFFCURVE",
"123 67 CURVE SMOOTH",
"114 59 OFFCURVE",
"93 42 OFFCURVE",
"80 42 CURVE SMOOTH",
"72 42 OFFCURVE",
"71 49 OFFCURVE",
"71 56 CURVE SMOOTH",
"71 86 OFFCURVE",
"106 161 OFFCURVE",
"122 188 CURVE SMOOTH",
"132 204 OFFCURVE",
"175 265 OFFCURVE",
"175 280 CURVE SMOOTH",
"175 284 OFFCURVE",
"173 286 OFFCURVE",
"170 286 CURVE SMOOTH",
"107 286 OFFCURVE",
"104 257 OFFCURVE",
"77 209 CURVE",
"77 208 OFFCURVE",
"76 206 OFFCURVE",
"76 204 CURVE SMOOTH",
"76 201 OFFCURVE",
"79 199 OFFCURVE",
"82 199 CURVE SMOOTH",
"84 199 LINE",
"60 154 OFFCURVE",
"22 95 OFFCURVE",
"22 43 CURVE SMOOTH",
"22 19 OFFCURVE",
"35 4 OFFCURVE",
"59 4 CURVE SMOOTH",
"109 4 OFFCURVE",
"209 133 OFFCURVE",
"240 173 CURVE",
"237 134 OFFCURVE",
"226 96 OFFCURVE",
"226 57 CURVE SMOOTH",
"226 28 OFFCURVE",
"234 -8 OFFCURVE",
"270 -8 CURVE SMOOTH"
);
}
);
width = 321;
}
);
note = u;
unicode = 0075;
},
{
glyphname = v;
lastChange = "2021-07-22 18:30:39 +0000";
layers = (
{
layerId = "5758FC1C-8DB2-4040-8B3F-38A5D3FE42F4";
paths = (
{
closed = 1;
nodes = (
"42 -13 OFFCURVE",
"61 0 OFFCURVE",
"67 12 CURVE SMOOTH",
"70 19 OFFCURVE",
"71 27 OFFCURVE",
"75 33 CURVE SMOOTH",
"82 47 OFFCURVE",
"93 61 OFFCURVE",
"102 74 CURVE SMOOTH",
"149 142 OFFCURVE",
"201 215 OFFCURVE",
"264 269 CURVE SMOOTH",
"279 282 OFFCURVE",
"297 296 OFFCURVE",
"316 302 CURVE SMOOTH",
"320 303 OFFCURVE",
"325 303 OFFCURVE",
"329 304 CURVE SMOOTH",
"336 306 OFFCURVE",
"341 310 OFFCURVE",
"341 318 CURVE SMOOTH",
"341 327 OFFCURVE",
"332 329 OFFCURVE",
"325 329 CURVE SMOOTH",
"322 329 OFFCURVE",
"319 329 OFFCURVE",
"317 329 CURVE SMOOTH",
"233 314 OFFCURVE",
"133 151 OFFCURVE",
"89 85 CURVE",
"99 126 OFFCURVE",
"104 169 OFFCURVE",
"104 212 CURVE SMOOTH",
"104 218 OFFCURVE",
"103 253 OFFCURVE",
"100 258 CURVE SMOOTH",
"96 267 OFFCURVE",
"72 269 OFFCURVE",
"64 269 CURVE SMOOTH",
"59 269 OFFCURVE",
"47 269 OFFCURVE",
"47 262 CURVE SMOOTH",
"47 254 OFFCURVE",
"50 245 OFFCURVE",
"50 237 CURVE SMOOTH",
"52 216 OFFCURVE",
"53 195 OFFCURVE",
"53 174 CURVE SMOOTH",
"53 125 OFFCURVE",
"48 75 OFFCURVE",
"35 27 CURVE SMOOTH",
"32 15 OFFCURVE",
"27 3 OFFCURVE",
"23 -8 CURVE",
"23 -9 OFFCURVE",
"23 -10 OFFCURVE",
"23 -11 CURVE SMOOTH",
"23 -12 OFFCURVE",
"27 -13 OFFCURVE",
"28 -13 CURVE SMOOTH"
);
}
);
width = 221;
}
);
note = v;
unicode = 0076;
},
{
glyphname = w;
lastChange = "2021-07-22 18:30:39 +0000";
layers = (
{
anchors = (
{
name = bottom;
position = "{136, 0}";
},
{
name = top;
position = "{296, 280}";
}
);
layerId = "5758FC1C-8DB2-4040-8B3F-38A5D3FE42F4";
paths = (
{
closed = 1;
nodes = (
"89 -2 OFFCURVE",
"193 130 OFFCURVE",
"226 173 CURVE",
"223 136 OFFCURVE",
"214 100 OFFCURVE",
"214 64 CURVE SMOOTH",
"214 31 OFFCURVE",
"225 0 OFFCURVE",
"262 0 CURVE SMOOTH",
"338 0 OFFCURVE",
"434 139 OFFCURVE",
"460 202 CURVE SMOOTH",
"469 225 OFFCURVE",
"475 250 OFFCURVE",
"475 274 CURVE SMOOTH",
"475 300 OFFCURVE",
"465 340 OFFCURVE",
"432 340 CURVE SMOOTH",
"428 340 OFFCURVE",
"423 338 OFFCURVE",
"423 333 CURVE SMOOTH",
"423 330 OFFCURVE",
"425 327 OFFCURVE",
"426 324 CURVE",
"436 306 OFFCURVE",
"440 289 OFFCURVE",
"440 269 CURVE SMOOTH",
"440 240 OFFCURVE",
"432 212 OFFCURVE",
"422 185 CURVE SMOOTH",
"405 144 OFFCURVE",
"337 26 OFFCURVE",
"285 26 CURVE SMOOTH",
"261 26 OFFCURVE",
"260 60 OFFCURVE",
"260 78 CURVE SMOOTH",
"260 114 OFFCURVE",
"272 195 OFFCURVE",
"289 226 CURVE SMOOTH",
"296 239 OFFCURVE",
"328 270 OFFCURVE",
"328 281 CURVE SMOOTH",
"328 288 OFFCURVE",
"318 289 OFFCURVE",
"313 289 CURVE SMOOTH",
"301 289 OFFCURVE",
"278 284 OFFCURVE",
"269 278 CURVE SMOOTH",
"254 269 OFFCURVE",
"248 252 OFFCURVE",
"244 237 CURVE",
"243 235 OFFCURVE",
"242 228 OFFCURVE",
"241 226 CURVE SMOOTH",
"206 168 OFFCURVE",
"159 108 OFFCURVE",
"107 64 CURVE SMOOTH",
"98 57 OFFCURVE",
"77 40 OFFCURVE",
"65 40 CURVE SMOOTH",
"57 40 OFFCURVE",
"55 47 OFFCURVE",
"55 54 CURVE SMOOTH",
"55 84 OFFCURVE",
"91 161 OFFCURVE",
"108 188 CURVE SMOOTH",
"118 204 OFFCURVE",
"161 265 OFFCURVE",
"161 280 CURVE SMOOTH",
"161 284 OFFCURVE",
"159 286 OFFCURVE",
"155 286 CURVE SMOOTH",
"93 286 OFFCURVE",
"89 257 OFFCURVE",
"63 209 CURVE",
"62 208 OFFCURVE",
"61 206 OFFCURVE",
"61 204 CURVE SMOOTH",
"61 201 OFFCURVE",
"64 199 OFFCURVE",
"67 199 CURVE SMOOTH",
"70 199 LINE",
"43 151 OFFCURVE",
"5 89 OFFCURVE",
"5 32 CURVE SMOOTH",
"5 11 OFFCURVE",
"13 -2 OFFCURVE",
"36 -2 CURVE SMOOTH"
);
}
);
width = 443;
}
);
note = w;
unicode = 0077;
},
{
glyphname = x;
lastChange = "2021-07-22 18:30:39 +0000";
layers = (
{
layerId = "5758FC1C-8DB2-4040-8B3F-38A5D3FE42F4";
paths = (
{
closed = 1;
nodes = (
"-32 -95 OFFCURVE",
"-31 -89 OFFCURVE",
"-30 -84 CURVE SMOOTH",
"-28 -74 OFFCURVE",
"-26 -67 OFFCURVE",
"-21 -58 CURVE SMOOTH",
"9 -4 OFFCURVE",
"107 77 OFFCURVE",
"154 123 CURVE",
"153 89 OFFCURVE",
"162 -9 OFFCURVE",
"192 -27 CURVE SMOOTH",
"199 -32 OFFCURVE",
"207 -35 OFFCURVE",
"216 -35 CURVE SMOOTH",
"256 -35 OFFCURVE",
"293 11 OFFCURVE",
"314 41 CURVE SMOOTH",
"324 56 OFFCURVE",
"329 74 OFFCURVE",
"329 91 CURVE SMOOTH",
"329 94 OFFCURVE",
"328 113 OFFCURVE",
"323 113 CURVE SMOOTH",
"319 113 OFFCURVE",
"316 102 OFFCURVE",
"316 100 CURVE",
"307 71 OFFCURVE",
"274 -9 OFFCURVE",
"237 -9 CURVE SMOOTH",
"201 -9 OFFCURVE",
"200 122 OFFCURVE",
"200 148 CURVE SMOOTH",
"200 158 LINE",
"244 198 OFFCURVE",
"292 236 OFFCURVE",
"341 269 CURVE",
"341 267 OFFCURVE",
"351 270 OFFCURVE",
"352 271 CURVE",
"360 275 OFFCURVE",
"371 295 OFFCURVE",
"371 305 CURVE SMOOTH",
"371 309 OFFCURVE",
"369 312 OFFCURVE",
"365 312 CURVE SMOOTH",
"361 312 OFFCURVE",
"358 310 OFFCURVE",
"355 309 CURVE SMOOTH",
"335 299 OFFCURVE",
"216 198 OFFCURVE",
"201 179 CURVE",
"202 195 OFFCURVE",
"201 293 OFFCURVE",
"180 293 CURVE SMOOTH",
"179 293 LINE SMOOTH",
"173 293 OFFCURVE",
"144 276 OFFCURVE",
"140 272 CURVE SMOOTH",
"133 264 OFFCURVE",
"132 253 OFFCURVE",
"132 243 CURVE SMOOTH",
"132 236 OFFCURVE",
"132 206 OFFCURVE",
"143 206 CURVE SMOOTH",
"145 206 OFFCURVE",
"148 207 OFFCURVE",
"149 208 CURVE",
"152 195 OFFCURVE",
"153 181 OFFCURVE",
"153 167 CURVE SMOOTH",
"153 159 OFFCURVE",
"152 152 OFFCURVE",
"152 144 CURVE",
"136 127 OFFCURVE",
"117 111 OFFCURVE",
"99 96 CURVE SMOOTH",
"69 69 OFFCURVE",
"39 41 OFFCURVE",
"11 13 CURVE SMOOTH",
"-4 -2 OFFCURVE",
"-19 -17 OFFCURVE",
"-30 -34 CURVE SMOOTH",
"-39 -47 OFFCURVE",
"-46 -63 OFFCURVE",
"-46 -79 CURVE SMOOTH",
"-46 -84 OFFCURVE",
"-46 -95 OFFCURVE",
"-38 -95 CURVE SMOOTH"
);
}
);
width = 304;
}
);
note = x;
unicode = 0078;
},
{
glyphname = y;
lastChange = "2021-07-22 18:30:39 +0000";
layers = (
{
anchors = (
{
name = bottom;
position = "{290, 0}";
},
{
name = top;
position = "{213, 280}";
}
);
layerId = "5758FC1C-8DB2-4040-8B3F-38A5D3FE42F4";
paths = (
{
closed = 1;
nodes = (
"28 -334 OFFCURVE",
"139 -177 OFFCURVE",
"192 -48 CURVE",
"199 -48 OFFCURVE",
"240 -52 OFFCURVE",
"240 -42 CURVE SMOOTH",
"240 -36 OFFCURVE",
"228 -35 OFFCURVE",
"217 -35 CURVE SMOOTH",
"211 -35 OFFCURVE",
"205 -35 OFFCURVE",
"203 -35 CURVE SMOOTH",
"197 -35 LINE",
"223 23 OFFCURVE",
"241 83 OFFCURVE",
"262 142 CURVE SMOOTH",
"270 168 OFFCURVE",
"280 203 OFFCURVE",
"292 226 CURVE SMOOTH",
"301 242 OFFCURVE",
"318 262 OFFCURVE",
"318 281 CURVE SMOOTH",
"318 288 OFFCURVE",
"314 291 OFFCURVE",
"308 291 CURVE SMOOTH",
"298 291 OFFCURVE",
"281 283 OFFCURVE",
"272 278 CURVE SMOOTH",
"250 264 OFFCURVE",
"253 242 OFFCURVE",
"242 223 CURVE SMOOTH",
"220 181 OFFCURVE",
"109 33 OFFCURVE",
"65 33 CURVE SMOOTH",
"57 33 OFFCURVE",
"55 40 OFFCURVE",
"55 47 CURVE SMOOTH",
"55 74 OFFCURVE",
"85 139 OFFCURVE",
"101 164 CURVE SMOOTH",
"111 180 OFFCURVE",
"154 241 OFFCURVE",
"154 257 CURVE SMOOTH",
"154 260 OFFCURVE",
"152 262 OFFCURVE",
"148 262 CURVE SMOOTH",
"85 262 OFFCURVE",
"82 233 OFFCURVE",
"56 186 CURVE SMOOTH",
"55 184 OFFCURVE",
"54 182 OFFCURVE",
"54 181 CURVE SMOOTH",
"54 177 OFFCURVE",
"57 175 OFFCURVE",
"60 175 CURVE",
"63 176 LINE",
"40 133 OFFCURVE",
"12 87 OFFCURVE",
"12 37 CURVE SMOOTH",
"12 18 OFFCURVE",
"18 -6 OFFCURVE",
"41 -6 CURVE SMOOTH",
"98 -6 OFFCURVE",
"192 125 OFFCURVE",
"227 170 CURVE",
"223 151 LINE SMOOTH",
"209 86 OFFCURVE",
"182 25 OFFCURVE",
"158 -36 CURVE",
"78 -41 OFFCURVE",
"-17 -56 OFFCURVE",
"-91 -87 CURVE SMOOTH",
"-151 -112 OFFCURVE",
"-253 -166 OFFCURVE",
"-253 -242 CURVE SMOOTH",
"-253 -306 OFFCURVE",
"-182 -334 OFFCURVE",
"-128 -334 CURVE SMOOTH"
);
},
{
closed = 1;
nodes = (
"-172 -313 OFFCURVE",
"-213 -292 OFFCURVE",
"-213 -247 CURVE SMOOTH",
"-213 -183 OFFCURVE",
"-132 -131 OFFCURVE",
"-82 -106 CURVE SMOOTH",
"-15 -71 OFFCURVE",
"77 -54 OFFCURVE",
"152 -49 CURVE",
"104 -151 OFFCURVE",
"-2 -313 OFFCURVE",
"-132 -313 CURVE SMOOTH"
);
}
);
width = 285;
}
);
note = y;
unicode = 0079;
},
{
glyphname = z;
lastChange = "2021-07-22 18:30:39 +0000";
layers = (
{
anchors = (
{
name = bottom;
position = "{122, 0}";
},
{
name = center;
position = "{150, 140}";
},
{
name = top;
position = "{236, 280}";
}
);
layerId = "5758FC1C-8DB2-4040-8B3F-38A5D3FE42F4";
paths = (
{
closed = 1;
nodes = (
"248 -38 OFFCURVE",
"297 20 OFFCURVE",
"297 35 CURVE SMOOTH",
"297 52 OFFCURVE",
"267 52 OFFCURVE",
"256 52 CURVE SMOOTH",
"215 52 OFFCURVE",
"123 43 OFFCURVE",
"84 34 CURVE",
"129 91 OFFCURVE",
"218 179 OFFCURVE",
"276 221 CURVE",
"294 224 OFFCURVE",
"330 249 OFFCURVE",
"330 268 CURVE SMOOTH",
"330 275 OFFCURVE",
"324 277 OFFCURVE",
"318 277 CURVE SMOOTH",
"300 277 OFFCURVE",
"282 276 OFFCURVE",
"263 276 CURVE SMOOTH",
"236 276 OFFCURVE",
"208 277 OFFCURVE",
"180 277 CURVE SMOOTH",
"165 277 OFFCURVE",
"150 277 OFFCURVE",
"136 273 CURVE",
"126 266 OFFCURVE",
"100 244 OFFCURVE",
"100 232 CURVE SMOOTH",
"100 230 OFFCURVE",
"101 228 OFFCURVE",
"102 227 CURVE",
"104 227 LINE SMOOTH",
"116 227 OFFCURVE",
"134 259 OFFCURVE",
"193 259 CURVE SMOOTH",
"208 259 OFFCURVE",
"223 258 OFFCURVE",
"238 255 CURVE SMOOTH",
"239 255 OFFCURVE",
"239 254 OFFCURVE",
"239 254 CURVE",
"239 236 OFFCURVE",
"48 62 OFFCURVE",
"23 31 CURVE SMOOTH",
"19 26 OFFCURVE",
"16 16 OFFCURVE",
"16 9 CURVE SMOOTH",
"16 6 OFFCURVE",
"17 3 OFFCURVE",
"18 0 CURVE",
"22 0 LINE SMOOTH",
"39 0 OFFCURVE",
"58 4 OFFCURVE",
"75 5 CURVE SMOOTH",
"125 10 OFFCURVE",
"176 15 OFFCURVE",
"226 15 CURVE SMOOTH",
"233 15 OFFCURVE",
"265 15 OFFCURVE",
"265 4 CURVE SMOOTH",
"265 -10 OFFCURVE",
"234 -22 OFFCURVE",
"234 -33 CURVE SMOOTH",
"234 -35 OFFCURVE",
"236 -38 OFFCURVE",
"238 -38 CURVE SMOOTH"
);
}
);
width = 300;
}
);
note = z;
unicode = 007A;
},
{
glyphname = ordfeminine;
lastChange = "2021-07-22 18:30:39 +0000";
layers = (
{
layerId = "5758FC1C-8DB2-4040-8B3F-38A5D3FE42F4";
paths = (
{
closed = 1;
nodes = (
"209 336 OFFCURVE",
"222 342 OFFCURVE",
"231 350 CURVE SMOOTH",
"238 355 OFFCURVE",
"261 375 OFFCURVE",
"261 385 CURVE",
"261 385 OFFCURVE",
"261 386 OFFCURVE",
"260 386 CURVE SMOOTH",
"257 386 OFFCURVE",
"232 354 OFFCURVE",
"212 354 CURVE SMOOTH",
"200 354 OFFCURVE",
"199 368 OFFCURVE",
"199 377 CURVE SMOOTH",
"199 402 OFFCURVE",
"209 448 OFFCURVE",
"220 470 CURVE",
"225 472 OFFCURVE",
"236 500 OFFCURVE",
"236 507 CURVE SMOOTH",
"236 511 OFFCURVE",
"234 513 OFFCURVE",
"230 513 CURVE SMOOTH",
"225 513 OFFCURVE",
"220 511 OFFCURVE",
"216 510 CURVE",
"208 511 OFFCURVE",
"200 512 OFFCURVE",
"191 512 CURVE SMOOTH",
"181 512 OFFCURVE",
"171 507 OFFCURVE",
"161 503 CURVE",
"112 507 OFFCURVE",
"57 394 OFFCURVE",
"57 352 CURVE SMOOTH",
"57 344 OFFCURVE",
"58 337 OFFCURVE",
"68 337 CURVE SMOOTH",
"102 337 OFFCURVE",
"162 407 OFFCURVE",
"178 434 CURVE",
"174 415 OFFCURVE",
"171 395 OFFCURVE",
"171 375 CURVE SMOOTH",
"171 357 OFFCURVE",
"176 336 OFFCURVE",
"197 336 CURVE SMOOTH"
);
},
{
closed = 1;
nodes = (
"87 357 OFFCURVE",
"86 359 OFFCURVE",
"86 361 CURVE SMOOTH",
"86 364 OFFCURVE",
"87 367 OFFCURVE",
"88 369 CURVE SMOOTH",
"98 401 OFFCURVE",
"124 453 OFFCURVE",
"146 478 CURVE SMOOTH",
"156 488 OFFCURVE",
"172 498 OFFCURVE",
"187 498 CURVE SMOOTH",
"191 498 OFFCURVE",
"195 497 OFFCURVE",
"199 495 CURVE",
"173 445 OFFCURVE",
"151 398 OFFCURVE",
"103 364 CURVE",
"99 362 OFFCURVE",
"93 357 OFFCURVE",
"89 357 CURVE SMOOTH"
);
}
);
width = 217;
}
);
note = ordfeminine;
unicode = 00AA;
},
{
glyphname = ordmasculine;
lastChange = "2021-07-22 18:30:39 +0000";
layers = (
{
layerId = "5758FC1C-8DB2-4040-8B3F-38A5D3FE42F4";
paths = (
{
closed = 1;
nodes = (
"100 327 OFFCURVE",
"118 334 OFFCURVE",
"132 344 CURVE",
"139 336 OFFCURVE",
"148 330 OFFCURVE",
"159 330 CURVE SMOOTH",
"161 330 OFFCURVE",
"165 331 OFFCURVE",
"165 334 CURVE SMOOTH",
"165 336 OFFCURVE",
"162 337 OFFCURVE",
"161 337 CURVE SMOOTH",
"151 337 OFFCURVE",
"143 340 OFFCURVE",
"137 347 CURVE",
"168 372 OFFCURVE",
"216 444 OFFCURVE",
"216 484 CURVE SMOOTH",
"216 507 OFFCURVE",
"201 516 OFFCURVE",
"179 516 CURVE SMOOTH",
"156 516 OFFCURVE",
"113 502 OFFCURVE",
"114 474 CURVE SMOOTH",
"114 472 LINE",
"90 445 OFFCURVE",
"54 389 OFFCURVE",
"54 352 CURVE SMOOTH",
"54 332 OFFCURVE",
"64 327 OFFCURVE",
"83 327 CURVE SMOOTH"
);
},
{
closed = 1;
nodes = (
"92 342 OFFCURVE",
"88 356 OFFCURVE",
"88 368 CURVE SMOOTH",
"88 388 OFFCURVE",
"98 406 OFFCURVE",
"109 423 CURVE",
"109 399 OFFCURVE",
"114 371 OFFCURVE",
"127 351 CURVE",
"121 346 OFFCURVE",
"114 342 OFFCURVE",
"106 342 CURVE SMOOTH"
);
},
{
closed = 1;
nodes = (
"123 372 OFFCURVE",
"120 394 OFFCURVE",
"120 413 CURVE SMOOTH",
"120 425 OFFCURVE",
"121 438 OFFCURVE",
"125 450 CURVE",
"133 459 OFFCURVE",
"142 465 OFFCURVE",
"152 471 CURVE",
"153 472 OFFCURVE",
"154 473 OFFCURVE",
"154 474 CURVE SMOOTH",
"154 478 OFFCURVE",
"152 482 OFFCURVE",
"150 485 CURVE",
"154 493 OFFCURVE",
"163 502 OFFCURVE",
"173 502 CURVE SMOOTH",
"185 502 OFFCURVE",
"188 489 OFFCURVE",
"188 479 CURVE SMOOTH",
"188 443 OFFCURVE",
"157 379 OFFCURVE",
"132 355 CURVE"
);
}
);
width = 185;
}
);
note = ordmasculine;
unicode = 00BA;
},
{
glyphname = pi;
lastChange = "2021-07-22 18:30:39 +0000";
layers = (
{
layerId = "5758FC1C-8DB2-4040-8B3F-38A5D3FE42F4";
paths = (
{
closed = 1;
nodes = (
"220 8 OFFCURVE",
"226 10 OFFCURVE",
"232 12 CURVE SMOOTH",
"263 24 OFFCURVE",
"301 108 OFFCURVE",
"310 140 CURVE",
"310 142 OFFCURVE",
"311 143 OFFCURVE",
"311 145 CURVE SMOOTH",
"311 146 OFFCURVE",
"310 148 OFFCURVE",
"309 148 CURVE SMOOTH",
"306 148 OFFCURVE",
"303 141 OFFCURVE",
"302 139 CURVE SMOOTH",
"289 108 OFFCURVE",
"277 70 OFFCURVE",
"254 46 CURVE SMOOTH",
"246 38 OFFCURVE",
"232 24 OFFCURVE",
"220 24 CURVE SMOOTH",
"200 24 OFFCURVE",
"199 67 OFFCURVE",
"199 81 CURVE SMOOTH",
"199 150 OFFCURVE",
"219 218 OFFCURVE",
"231 285 CURVE",
"268 282 OFFCURVE",
"292 293 OFFCURVE",
"315 322 CURVE SMOOTH",
"319 328 OFFCURVE",
"323 335 OFFCURVE",
"323 343 CURVE SMOOTH",
"323 345 OFFCURVE",
"323 349 OFFCURVE",
"320 349 CURVE SMOOTH",
"313 349 OFFCURVE",
"299 314 OFFCURVE",
"256 314 CURVE SMOOTH",
"204 314 OFFCURVE",
"163 355 OFFCURVE",
"111 355 CURVE SMOOTH",
"71 355 OFFCURVE",
"40 330 OFFCURVE",
"18 299 CURVE SMOOTH",
"13 293 OFFCURVE",
"10 286 OFFCURVE",
"10 278 CURVE SMOOTH",
"10 276 OFFCURVE",
"10 272 OFFCURVE",
"13 272 CURVE SMOOTH",
"22 272 OFFCURVE",
"35 316 OFFCURVE",
"99 316 CURVE SMOOTH",
"104 316 LINE",
"104 221 OFFCURVE",
"100 141 OFFCURVE",
"76 49 CURVE SMOOTH",
"76 48 OFFCURVE",
"76 47 OFFCURVE",
"76 47 CURVE",
"76 43 OFFCURVE",
"79 41 OFFCURVE",
"82 41 CURVE SMOOTH",
"85 41 OFFCURVE",
"87 43 OFFCURVE",
"88 45 CURVE SMOOTH",
"115 107 OFFCURVE",
"129 243 OFFCURVE",
"130 313 CURVE",
"155 308 OFFCURVE",
"178 298 OFFCURVE",
"201 291 CURVE",
"184 226 OFFCURVE",
"178 146 OFFCURVE",
"178 78 CURVE SMOOTH",
"178 53 OFFCURVE",
"178 8 OFFCURVE",
"213 8 CURVE SMOOTH"
);
}
);
width = 330;
}
);
note = pi;
unicode = 03C0;
},
{
glyphname = zero;
lastChange = "2021-07-22 18:30:39 +0000";
layers = (
{
layerId = "5758FC1C-8DB2-4040-8B3F-38A5D3FE42F4";
paths = (
{
closed = 1;
nodes = (
"212 -44 OFFCURVE",
"245 -37 OFFCURVE",
"277 -25 CURVE SMOOTH",
"400 23 OFFCURVE",
"490 137 OFFCURVE",
"490 272 CURVE SMOOTH",
"490 285 OFFCURVE",
"490 298 OFFCURVE",
"488 311 CURVE SMOOTH",
"476 395 OFFCURVE",
"398 444 OFFCURVE",
"317 444 CURVE SMOOTH",
"188 444 OFFCURVE",
"28 389 OFFCURVE",
"28 236 CURVE SMOOTH",
"28 213 OFFCURVE",
"33 190 OFFCURVE",
"42 169 CURVE",
"36 147 OFFCURVE",
"32 123 OFFCURVE",
"32 100 CURVE SMOOTH",
"32 10 OFFCURVE",
"87 -44 OFFCURVE",
"178 -44 CURVE SMOOTH"
);
},
{
closed = 1;
nodes = (
"96 -10 OFFCURVE",
"50 24 OFFCURVE",
"50 92 CURVE SMOOTH",
"50 110 OFFCURVE",
"53 127 OFFCURVE",
"58 143 CURVE",
"68 133 OFFCURVE",
"86 120 OFFCURVE",
"101 120 CURVE SMOOTH",
"103 120 OFFCURVE",
"106 120 OFFCURVE",
"106 122 CURVE SMOOTH",
"106 126 OFFCURVE",
"100 128 OFFCURVE",
"98 129 CURVE SMOOTH",
"82 138 OFFCURVE",
"74 146 OFFCURVE",
"65 162 CURVE",
"96 232 OFFCURVE",
"214 380 OFFCURVE",
"296 380 CURVE SMOOTH",
"299 380 OFFCURVE",
"313 381 OFFCURVE",
"313 385 CURVE SMOOTH",
"313 389 OFFCURVE",
"300 390 OFFCURVE",
"297 390 CURVE SMOOTH",
"271 390 OFFCURVE",
"245 382 OFFCURVE",
"221 371 CURVE SMOOTH",
"163 344 OFFCURVE",
"85 262 OFFCURVE",
"55 206 CURVE",
"53 210 OFFCURVE",
"53 214 OFFCURVE",
"53 219 CURVE SMOOTH",
"53 240 OFFCURVE",
"60 269 OFFCURVE",
"69 288 CURVE SMOOTH",
"114 381 OFFCURVE",
"217 427 OFFCURVE",
"317 427 CURVE SMOOTH",
"387 427 OFFCURVE",
"469 384 OFFCURVE",
"479 309 CURVE SMOOTH",
"480 300 OFFCURVE",
"480 291 OFFCURVE",
"480 282 CURVE SMOOTH",
"480 163 OFFCURVE",
"380 68 OFFCURVE",
"280 20 CURVE SMOOTH",
"243 2 OFFCURVE",
"202 -10 OFFCURVE",
"161 -10 CURVE SMOOTH"
);
}
);
width = 494;
}
);
note = zero;
unicode = 0030;
},
{
glyphname = one;
lastChange = "2021-07-22 18:30:39 +0000";
layers = (
{
layerId = "5758FC1C-8DB2-4040-8B3F-38A5D3FE42F4";
paths = (
{
closed = 1;
nodes = (
"155 -25 OFFCURVE",
"155 -19 OFFCURVE",
"155 -15 CURVE SMOOTH",
"155 -12 OFFCURVE",
"155 -9 OFFCURVE",
"155 -6 CURVE",
"181 -2 OFFCURVE",
"207 1 OFFCURVE",
"233 1 CURVE SMOOTH",
"241 1 OFFCURVE",
"249 0 OFFCURVE",
"257 0 CURVE SMOOTH",
"261 0 OFFCURVE",
"264 2 OFFCURVE",
"264 6 CURVE SMOOTH",
"264 15 OFFCURVE",
"226 16 OFFCURVE",
"209 16 CURVE SMOOTH",
"190 16 OFFCURVE",
"173 16 OFFCURVE",
"155 15 CURVE",
"175 126 OFFCURVE",
"223 260 OFFCURVE",
"277 358 CURVE SMOOTH",
"290 382 OFFCURVE",
"305 403 OFFCURVE",
"319 426 CURVE SMOOTH",
"322 430 OFFCURVE",
"323 435 OFFCURVE",
"323 441 CURVE SMOOTH",
"323 451 OFFCURVE",
"318 463 OFFCURVE",
"307 463 CURVE SMOOTH",
"306 463 OFFCURVE",
"305 463 OFFCURVE",
"304 463 CURVE SMOOTH",
"284 458 OFFCURVE",
"266 428 OFFCURVE",
"254 413 CURVE SMOOTH",
"228 381 OFFCURVE",
"195 356 OFFCURVE",
"164 328 CURVE SMOOTH",
"156 321 OFFCURVE",
"120 291 OFFCURVE",
"120 283 CURVE SMOOTH",
"120 279 OFFCURVE",
"124 278 OFFCURVE",
"126 278 CURVE SMOOTH",
"135 278 OFFCURVE",
"179 318 OFFCURVE",
"188 326 CURVE SMOOTH",
"208 343 OFFCURVE",
"232 354 OFFCURVE",
"254 368 CURVE",
"253 365 OFFCURVE",
"252 361 OFFCURVE",
"250 358 CURVE",
"240 332 OFFCURVE",
"229 305 OFFCURVE",
"219 279 CURVE SMOOTH",
"186 199 OFFCURVE",
"128 99 OFFCURVE",
"120 15 CURVE",
"85 13 OFFCURVE",
"49 12 OFFCURVE",
"14 12 CURVE SMOOTH",
"10 12 OFFCURVE",
"9 2 OFFCURVE",
"9 -1 CURVE SMOOTH",
"9 -5 OFFCURVE",
"11 -23 OFFCURVE",
"18 -23 CURVE SMOOTH",
"53 -23 OFFCURVE",
"87 -17 OFFCURVE",
"122 -11 CURVE",
"127 -22 OFFCURVE",
"139 -25 OFFCURVE",
"150 -25 CURVE SMOOTH"
);
}
);
width = 291;
}
);
note = one;
unicode = 0031;
},
{
glyphname = two;
lastChange = "2021-07-22 18:30:39 +0000";
layers = (
{
layerId = "5758FC1C-8DB2-4040-8B3F-38A5D3FE42F4";
paths = (
{
closed = 1;
nodes = (
"449 -51 OFFCURVE",
"522 -36 OFFCURVE",
"522 24 CURVE SMOOTH",
"522 73 OFFCURVE",
"473 103 OFFCURVE",
"430 111 CURVE SMOOTH",
"427 112 LINE SMOOTH",
"426 112 OFFCURVE",
"421 111 OFFCURVE",
"421 109 CURVE SMOOTH",
"421 107 OFFCURVE",
"424 107 OFFCURVE",
"425 106 CURVE",
"458 96 OFFCURVE",
"512 67 OFFCURVE",
"512 28 CURVE SMOOTH",
"512 -7 OFFCURVE",
"456 -15 OFFCURVE",
"430 -15 CURVE SMOOTH",
"359 -15 OFFCURVE",
"241 24 OFFCURVE",
"168 41 CURVE",
"264 85 OFFCURVE",
"502 212 OFFCURVE",
"502 332 CURVE SMOOTH",
"502 391 OFFCURVE",
"446 412 OFFCURVE",
"396 412 CURVE SMOOTH",
"339 412 OFFCURVE",
"253 383 OFFCURVE",
"217 338 CURVE",
"214 349 OFFCURVE",
"201 388 OFFCURVE",
"187 388 CURVE SMOOTH",
"184 388 OFFCURVE",
"182 386 OFFCURVE",
"182 384 CURVE SMOOTH",
"182 382 OFFCURVE",
"183 380 OFFCURVE",
"184 379 CURVE SMOOTH",
"197 362 OFFCURVE",
"199 346 OFFCURVE",
"199 325 CURVE SMOOTH",
"199 303 OFFCURVE",
"195 281 OFFCURVE",
"195 259 CURVE SMOOTH",
"195 254 OFFCURVE",
"196 245 OFFCURVE",
"202 245 CURVE SMOOTH",
"217 245 OFFCURVE",
"220 301 OFFCURVE",
"219 312 CURVE",
"247 367 OFFCURVE",
"335 400 OFFCURVE",
"393 400 CURVE SMOOTH",
"426 400 OFFCURVE",
"460 384 OFFCURVE",
"460 347 CURVE SMOOTH",
"460 287 OFFCURVE",
"393 219 OFFCURVE",
"349 184 CURVE SMOOTH",
"329 168 OFFCURVE",
"307 154 OFFCURVE",
"286 139 CURVE SMOOTH",
"239 109 OFFCURVE",
"191 79 OFFCURVE",
"141 54 CURVE",
"116 61 OFFCURVE",
"90 69 OFFCURVE",
"63 69 CURVE SMOOTH",
"42 69 OFFCURVE",
"13 60 OFFCURVE",
"13 33 CURVE SMOOTH",
"13 12 OFFCURVE",
"31 5 OFFCURVE",
"50 5 CURVE SMOOTH",
"80 5 OFFCURVE",
"116 19 OFFCURVE",
"144 30 CURVE",
"233 -2 OFFCURVE",
"303 -51 OFFCURVE",
"402 -51 CURVE SMOOTH"
);
},
{
closed = 1;
nodes = (
"42 15 OFFCURVE",
"29 18 OFFCURVE",
"29 29 CURVE SMOOTH",
"29 44 OFFCURVE",
"52 48 OFFCURVE",
"63 48 CURVE SMOOTH",
"80 48 OFFCURVE",
"95 43 OFFCURVE",
"111 39 CURVE",
"91 30 OFFCURVE",
"73 15 OFFCURVE",
"50 15 CURVE SMOOTH"
);
}
);
width = 533;
}
);
note = two;
unicode = 0032;
},
{
glyphname = three;
lastChange = "2021-07-22 18:30:39 +0000";
layers = (
{
layerId = "5758FC1C-8DB2-4040-8B3F-38A5D3FE42F4";
paths = (
{
closed = 1;
nodes = (
"299 -47 OFFCURVE",
"518 -3 OFFCURVE",
"518 133 CURVE SMOOTH",
"518 205 OFFCURVE",
"438 233 OFFCURVE",
"379 244 CURVE",
"433 254 OFFCURVE",
"530 280 OFFCURVE",
"530 349 CURVE SMOOTH",
"530 406 OFFCURVE",
"455 419 OFFCURVE",
"411 419 CURVE SMOOTH",
"371 419 OFFCURVE",
"314 409 OFFCURVE",
"282 384 CURVE",
"280 397 OFFCURVE",
"267 443 OFFCURVE",
"251 443 CURVE SMOOTH",
"248 443 OFFCURVE",
"246 442 OFFCURVE",
"246 439 CURVE SMOOTH",
"246 437 OFFCURVE",
"247 436 OFFCURVE",
"248 434 CURVE SMOOTH",
"260 417 OFFCURVE",
"263 402 OFFCURVE",
"263 381 CURVE SMOOTH",
"263 359 OFFCURVE",
"259 337 OFFCURVE",
"259 314 CURVE SMOOTH",
"259 308 OFFCURVE",
"260 300 OFFCURVE",
"268 300 CURVE SMOOTH",
"279 300 OFFCURVE",
"283 349 OFFCURVE",
"283 358 CURVE",
"301 394 OFFCURVE",
"376 403 OFFCURVE",
"412 403 CURVE SMOOTH",
"438 403 OFFCURVE",
"508 398 OFFCURVE",
"508 360 CURVE SMOOTH",
"508 308 OFFCURVE",
"384 270 OFFCURVE",
"342 263 CURVE SMOOTH",
"324 259 OFFCURVE",
"303 259 OFFCURVE",
"286 254 CURVE SMOOTH",
"277 251 OFFCURVE",
"270 248 OFFCURVE",
"270 237 CURVE SMOOTH",
"270 230 OFFCURVE",
"275 225 OFFCURVE",
"281 225 CURVE SMOOTH",
"340 225 OFFCURVE",
"473 214 OFFCURVE",
"473 132 CURVE SMOOTH",
"473 16 OFFCURVE",
"289 -35 OFFCURVE",
"198 -35 CURVE SMOOTH",
"148 -35 OFFCURVE",
"49 -19 OFFCURVE",
"49 48 CURVE SMOOTH",
"49 101 OFFCURVE",
"112 120 OFFCURVE",
"155 120 CURVE SMOOTH",
"186 120 OFFCURVE",
"216 115 OFFCURVE",
"246 105 CURVE SMOOTH",
"267 98 OFFCURVE",
"288 89 OFFCURVE",
"309 79 CURVE SMOOTH",
"324 72 LINE",
"325 72 OFFCURVE",
"331 73 OFFCURVE",
"331 75 CURVE SMOOTH",
"331 76 OFFCURVE",
"332 77 OFFCURVE",
"331 77 CURVE",
"328 80 OFFCURVE",
"312 90 OFFCURVE",
"308 92 CURVE SMOOTH",
"263 117 OFFCURVE",
"202 135 OFFCURVE",
"150 135 CURVE SMOOTH",
"99 135 OFFCURVE",
"18 112 OFFCURVE",
"18 48 CURVE SMOOTH",
"18 -30 OFFCURVE",
"140 -47 OFFCURVE",
"196 -47 CURVE SMOOTH"
);
}
);
width = 537;
}
);
note = three;
unicode = 0033;
},
{
glyphname = four;
lastChange = "2021-07-22 18:30:39 +0000";
layers = (
{
layerId = "5758FC1C-8DB2-4040-8B3F-38A5D3FE42F4";
paths = (
{
closed = 1;
nodes = (
"225 -44 OFFCURVE",
"295 -20 OFFCURVE",
"367 -20 CURVE SMOOTH",
"376 -20 OFFCURVE",
"384 -21 OFFCURVE",
"392 -21 CURVE SMOOTH",
"396 -21 OFFCURVE",
"398 -19 OFFCURVE",
"398 -15 CURVE SMOOTH",
"398 -6 OFFCURVE",
"361 -5 OFFCURVE",
"343 -5 CURVE SMOOTH",
"317 -5 OFFCURVE",
"290 -6 OFFCURVE",
"264 -6 CURVE",
"271 33 OFFCURVE",
"287 69 OFFCURVE",
"304 105 CURVE",
"339 98 OFFCURVE",
"375 92 OFFCURVE",
"410 92 CURVE SMOOTH",
"460 92 OFFCURVE",
"544 113 OFFCURVE",
"544 176 CURVE SMOOTH",
"544 226 OFFCURVE",
"486 259 OFFCURVE",
"442 259 CURVE SMOOTH",
"439 259 OFFCURVE",
"433 258 OFFCURVE",
"433 255 CURVE SMOOTH",
"433 254 OFFCURVE",
"436 253 OFFCURVE",
"437 253 CURVE SMOOTH",
"447 251 OFFCURVE",
"456 250 OFFCURVE",
"465 247 CURVE SMOOTH",
"490 238 OFFCURVE",
"533 213 OFFCURVE",
"533 182 CURVE SMOOTH",
"533 141 OFFCURVE",
"456 132 OFFCURVE",
"426 132 CURVE SMOOTH",
"391 132 OFFCURVE",
"356 135 OFFCURVE",
"321 139 CURVE",
"329 157 OFFCURVE",
"404 299 OFFCURVE",
"408 303 CURVE SMOOTH",
"413 308 OFFCURVE",
"418 311 OFFCURVE",
"423 315 CURVE SMOOTH",
"426 318 OFFCURVE",
"487 456 OFFCURVE",
"487 458 CURVE SMOOTH",
"487 465 OFFCURVE",
"476 466 OFFCURVE",
"471 466 CURVE SMOOTH",
"457 466 OFFCURVE",
"448 461 OFFCURVE",
"438 451 CURVE SMOOTH",
"421 433 OFFCURVE",
"404 414 OFFCURVE",
"387 396 CURVE SMOOTH",
"312 314 OFFCURVE",
"222 215 OFFCURVE",
"116 176 CURVE",
"92 181 OFFCURVE",
"69 186 OFFCURVE",
"45 186 CURVE SMOOTH",
"33 186 OFFCURVE",
"-2 181 OFFCURVE",
"-2 165 CURVE SMOOTH",
"-2 146 OFFCURVE",
"17 143 OFFCURVE",
"32 143 CURVE SMOOTH",
"56 143 OFFCURVE",
"79 149 OFFCURVE",
"101 156 CURVE",
"159 139 OFFCURVE",
"216 123 OFFCURVE",
"275 111 CURVE",
"260 73 OFFCURVE",
"247 34 OFFCURVE",
"241 -7 CURVE",
"210 -8 OFFCURVE",
"179 -9 OFFCURVE",
"149 -9 CURVE SMOOTH",
"144 -9 OFFCURVE",
"144 -19 OFFCURVE",
"144 -22 CURVE SMOOTH",
"144 -26 OFFCURVE",
"146 -44 OFFCURVE",
"152 -44 CURVE SMOOTH"
);
},
{
closed = 1;
nodes = (
"38 157 OFFCURVE",
"10 157 OFFCURVE",
"10 165 CURVE SMOOTH",
"10 172 OFFCURVE",
"31 176 OFFCURVE",
"37 176 CURVE SMOOTH",
"48 176 OFFCURVE",
"73 169 OFFCURVE",
"83 165 CURVE",
"70 161 OFFCURVE",
"57 157 OFFCURVE",
"44 157 CURVE SMOOTH"
);
},
{
closed = 1;
nodes = (
"237 151 OFFCURVE",
"186 159 OFFCURVE",
"136 170 CURVE",
"222 205 OFFCURVE",
"307 271 OFFCURVE",
"376 333 CURVE",
"344 271 OFFCURVE",
"314 208 OFFCURVE",
"288 144 CURVE"
);
}
);
width = 500;
}
);
note = four;
unicode = 0034;
},
{
glyphname = five;
lastChange = "2021-07-22 18:30:39 +0000";
layers = (
{
layerId = "5758FC1C-8DB2-4040-8B3F-38A5D3FE42F4";
paths = (
{
closed = 1;
nodes = (
"253 -71 OFFCURVE",
"435 -27 OFFCURVE",
"531 91 CURVE SMOOTH",
"550 115 OFFCURVE",
"567 145 OFFCURVE",
"567 175 CURVE SMOOTH",
"567 242 OFFCURVE",
"491 260 OFFCURVE",
"438 260 CURVE SMOOTH",
"380 260 OFFCURVE",
"327 233 OFFCURVE",
"272 219 CURVE",
"281 235 OFFCURVE",
"351 359 OFFCURVE",
"351 366 CURVE SMOOTH",
"351 374 OFFCURVE",
"340 377 OFFCURVE",
"333 377 CURVE SMOOTH",
"319 377 OFFCURVE",
"315 373 OFFCURVE",
"306 362 CURVE SMOOTH",
"277 325 OFFCURVE",
"241 260 OFFCURVE",
"221 217 CURVE",
"221 217 OFFCURVE",
"221 216 OFFCURVE",
"221 215 CURVE SMOOTH",
"221 210 OFFCURVE",
"228 197 OFFCURVE",
"233 197 CURVE SMOOTH",
"242 197 OFFCURVE",
"250 201 OFFCURVE",
"259 204 CURVE SMOOTH",
"315 224 OFFCURVE",
"377 241 OFFCURVE",
"438 241 CURVE SMOOTH",
"474 241 OFFCURVE",
"523 232 OFFCURVE",
"523 186 CURVE SMOOTH",
"523 155 OFFCURVE",
"500 121 OFFCURVE",
"480 98 CURVE SMOOTH",
"389 -4 OFFCURVE",
"239 -52 OFFCURVE",
"106 -52 CURVE SMOOTH",
"84 -52 OFFCURVE",
"17 -48 OFFCURVE",
"17 -17 CURVE SMOOTH",
"17 36 OFFCURVE",
"220 86 OFFCURVE",
"264 86 CURVE SMOOTH",
"267 86 OFFCURVE",
"281 86 OFFCURVE",
"281 90 CURVE SMOOTH",
"281 95 OFFCURVE",
"267 96 OFFCURVE",
"264 96 CURVE SMOOTH",
"206 96 OFFCURVE",
"-13 66 OFFCURVE",
"-13 -11 CURVE SMOOTH",
"-13 -59 OFFCURVE",
"70 -71 OFFCURVE",
"106 -71 CURVE SMOOTH"
);
},
{
closed = 1;
nodes = (
"560 350 OFFCURVE",
"645 367 OFFCURVE",
"645 431 CURVE SMOOTH",
"645 480 OFFCURVE",
"588 515 OFFCURVE",
"544 515 CURVE SMOOTH",
"542 515 OFFCURVE",
"537 515 OFFCURVE",
"537 512 CURVE SMOOTH",
"537 510 OFFCURVE",
"540 510 OFFCURVE",
"541 510 CURVE SMOOTH",
"551 508 OFFCURVE",
"560 506 OFFCURVE",
"569 502 CURVE SMOOTH",
"594 493 OFFCURVE",
"635 467 OFFCURVE",
"635 437 CURVE SMOOTH",
"635 401 OFFCURVE",
"571 389 OFFCURVE",
"543 389 CURVE SMOOTH",
"509 389 OFFCURVE",
"475 395 OFFCURVE",
"440 400 CURVE SMOOTH",
"379 410 OFFCURVE",
"318 423 OFFCURVE",
"256 430 CURVE SMOOTH",
"252 430 OFFCURVE",
"248 430 OFFCURVE",
"244 430 CURVE SMOOTH",
"226 430 OFFCURVE",
"200 425 OFFCURVE",
"200 402 CURVE SMOOTH",
"200 390 OFFCURVE",
"217 373 OFFCURVE",
"229 373 CURVE SMOOTH",
"232 373 OFFCURVE",
"233 376 OFFCURVE",
"233 378 CURVE SMOOTH",
"233 385 OFFCURVE",
"216 389 OFFCURVE",
"216 401 CURVE SMOOTH",
"216 411 OFFCURVE",
"233 412 OFFCURVE",
"239 412 CURVE SMOOTH",
"261 412 OFFCURVE",
"305 397 OFFCURVE",
"327 390 CURVE SMOOTH",
"386 370 OFFCURVE",
"447 350 OFFCURVE",
"510 350 CURVE SMOOTH"
);
}
);
width = 593;
}
);
note = five;
unicode = 0035;
},
{
glyphname = six;
lastChange = "2021-07-22 18:30:39 +0000";
layers = (
{
layerId = "5758FC1C-8DB2-4040-8B3F-38A5D3FE42F4";
paths = (
{
closed = 1;
nodes = (
"159 -51 OFFCURVE",
"192 -45 OFFCURVE",
"224 -36 CURVE SMOOTH",
"293 -17 OFFCURVE",
"414 40 OFFCURVE",
"414 124 CURVE SMOOTH",
"414 171 OFFCURVE",
"377 189 OFFCURVE",
"336 189 CURVE SMOOTH",
"252 189 OFFCURVE",
"151 126 OFFCURVE",
"99 62 CURVE SMOOTH",
"95 57 OFFCURVE",
"92 51 OFFCURVE",
"92 44 CURVE SMOOTH",
"92 41 OFFCURVE",
"93 36 OFFCURVE",
"97 36 CURVE SMOOTH",
"102 36 OFFCURVE",
"107 42 OFFCURVE",
"110 45 CURVE SMOOTH",
"161 106 OFFCURVE",
"235 166 OFFCURVE",
"319 166 CURVE SMOOTH",
"346 166 OFFCURVE",
"374 156 OFFCURVE",
"374 124 CURVE SMOOTH",
"374 56 OFFCURVE",
"269 -2 OFFCURVE",
"213 -21 CURVE SMOOTH",
"187 -30 OFFCURVE",
"159 -36 OFFCURVE",
"131 -36 CURVE SMOOTH",
"95 -36 OFFCURVE",
"51 -6 OFFCURVE",
"51 33 CURVE SMOOTH",
"51 172 OFFCURVE",
"234 300 OFFCURVE",
"343 360 CURVE SMOOTH",
"372 377 OFFCURVE",
"402 390 OFFCURVE",
"432 405 CURVE SMOOTH",
"436 407 OFFCURVE",
"446 412 OFFCURVE",
"446 418 CURVE SMOOTH",
"446 422 OFFCURVE",
"441 423 OFFCURVE",
"438 423 CURVE SMOOTH",
"435 423 OFFCURVE",
"432 422 OFFCURVE",
"429 421 CURVE SMOOTH",
"296 368 OFFCURVE",
"8 194 OFFCURVE",
"8 33 CURVE SMOOTH",
"8 -31 OFFCURVE",
"73 -51 OFFCURVE",
"126 -51 CURVE SMOOTH"
);
}
);
width = 447;
}
);
note = six;
unicode = 0036;
},
{
glyphname = seven;
lastChange = "2021-07-22 18:30:39 +0000";
layers = (
{
layerId = "5758FC1C-8DB2-4040-8B3F-38A5D3FE42F4";
paths = (
{
closed = 1;
nodes = (
"85 -48 OFFCURVE",
"110 -42 OFFCURVE",
"110 -36 CURVE SMOOTH",
"110 -31 OFFCURVE",
"103 -27 OFFCURVE",
"98 -27 CURVE SMOOTH",
"95 -27 OFFCURVE",
"93 -29 OFFCURVE",
"90 -29 CURVE SMOOTH",
"86 -29 OFFCURVE",
"86 -16 OFFCURVE",
"86 -13 CURVE SMOOTH",
"86 134 OFFCURVE",
"344 340 OFFCURVE",
"458 417 CURVE SMOOTH",
"459 418 OFFCURVE",
"460 419 OFFCURVE",
"460 421 CURVE SMOOTH",
"460 426 OFFCURVE",
"453 432 OFFCURVE",
"449 432 CURVE SMOOTH",
"448 432 OFFCURVE",
"447 432 OFFCURVE",
"446 432 CURVE",
"424 413 OFFCURVE",
"406 407 OFFCURVE",
"377 407 CURVE SMOOTH",
"302 407 OFFCURVE",
"232 440 OFFCURVE",
"157 440 CURVE SMOOTH",
"104 440 OFFCURVE",
"10 417 OFFCURVE",
"10 351 CURVE SMOOTH",
"10 296 OFFCURVE",
"72 271 OFFCURVE",
"118 271 CURVE SMOOTH",
"120 271 OFFCURVE",
"127 272 OFFCURVE",
"127 275 CURVE SMOOTH",
"127 277 OFFCURVE",
"123 277 OFFCURVE",
"122 277 CURVE SMOOTH",
"111 278 OFFCURVE",
"100 280 OFFCURVE",
"89 283 CURVE SMOOTH",
"65 290 OFFCURVE",
"21 313 OFFCURVE",
"21 343 CURVE SMOOTH",
"21 370 OFFCURVE",
"60 386 OFFCURVE",
"82 392 CURVE SMOOTH",
"103 398 OFFCURVE",
"126 398 OFFCURVE",
"148 398 CURVE SMOOTH",
"215 398 OFFCURVE",
"281 392 OFFCURVE",
"348 392 CURVE SMOOTH",
"365 392 OFFCURVE",
"381 392 OFFCURVE",
"398 394 CURVE",
"288 315 OFFCURVE",
"48 141 OFFCURVE",
"48 -6 CURVE SMOOTH",
"48 -27 OFFCURVE",
"56 -48 OFFCURVE",
"80 -48 CURVE SMOOTH"
);
}
);
width = 333;
}
);
note = seven;
unicode = 0037;
},
{
glyphname = eight;
lastChange = "2021-07-22 18:30:39 +0000";
layers = (
{
layerId = "5758FC1C-8DB2-4040-8B3F-38A5D3FE42F4";
paths = (
{
closed = 1;
nodes = (
"190 -52 OFFCURVE",
"359 -9 OFFCURVE",
"391 82 CURVE SMOOTH",
"395 94 OFFCURVE",
"397 107 OFFCURVE",
"397 120 CURVE SMOOTH",
"397 182 OFFCURVE",
"335 230 OFFCURVE",
"293 269 CURVE",
"363 320 OFFCURVE",
"441 360 OFFCURVE",
"516 403 CURVE",
"533 398 OFFCURVE",
"548 386 OFFCURVE",
"548 367 CURVE SMOOTH",
"548 363 OFFCURVE",
"547 358 OFFCURVE",
"547 354 CURVE SMOOTH",
"547 349 OFFCURVE",
"551 345 OFFCURVE",
"555 345 CURVE SMOOTH",
"564 345 OFFCURVE",
"566 361 OFFCURVE",
"566 367 CURVE SMOOTH",
"566 388 OFFCURVE",
"553 404 OFFCURVE",
"536 415 CURVE",
"548 422 OFFCURVE",
"624 452 OFFCURVE",
"624 458 CURVE SMOOTH",
"624 460 OFFCURVE",
"621 460 OFFCURVE",
"620 460 CURVE SMOOTH",
"591 460 OFFCURVE",
"535 443 OFFCURVE",
"511 427 CURVE",
"485 435 OFFCURVE",
"457 438 OFFCURVE",
"430 438 CURVE SMOOTH",
"364 438 OFFCURVE",
"240 416 OFFCURVE",
"215 344 CURVE SMOOTH",
"214 341 OFFCURVE",
"213 337 OFFCURVE",
"213 333 CURVE SMOOTH",
"213 305 OFFCURVE",
"247 279 OFFCURVE",
"267 263 CURVE",
"200 217 OFFCURVE",
"5 84 OFFCURVE",
"5 0 CURVE SMOOTH",
"5 -46 OFFCURVE",
"70 -52 OFFCURVE",
"104 -52 CURVE SMOOTH"
);
},
{
closed = 1;
nodes = (
"85 -12 OFFCURVE",
"38 -11 OFFCURVE",
"38 19 CURVE SMOOTH",
"38 84 OFFCURVE",
"222 215 OFFCURVE",
"274 255 CURVE",
"312 224 OFFCURVE",
"376 178 OFFCURVE",
"376 124 CURVE SMOOTH",
"376 114 OFFCURVE",
"374 103 OFFCURVE",
"371 92 CURVE SMOOTH",
"349 25 OFFCURVE",
"169 -12 OFFCURVE",
"105 -12 CURVE SMOOTH"
);
},
{
closed = 1;
nodes = (
"274 289 OFFCURVE",
"255 308 OFFCURVE",
"255 326 CURVE SMOOTH",
"255 386 OFFCURVE",
"412 411 OFFCURVE",
"458 411 CURVE SMOOTH",
"466 411 OFFCURVE",
"474 411 OFFCURVE",
"482 410 CURVE",
"414 370 OFFCURVE",
"349 325 OFFCURVE",
"286 277 CURVE"
);
}
);
width = 487;
}
);
note = eight;
unicode = 0038;
},
{
glyphname = nine;
lastChange = "2021-07-22 18:30:39 +0000";
layers = (
{
layerId = "5758FC1C-8DB2-4040-8B3F-38A5D3FE42F4";
paths = (
{
closed = 1;
nodes = (
"180 -121 OFFCURVE",
"182 -121 OFFCURVE",
"182 -119 CURVE SMOOTH",
"182 -115 OFFCURVE",
"173 -111 OFFCURVE",
"170 -108 CURVE SMOOTH",
"163 -99 OFFCURVE",
"161 -88 OFFCURVE",
"161 -77 CURVE SMOOTH",
"161 30 OFFCURVE",
"416 320 OFFCURVE",
"416 347 CURVE SMOOTH",
"416 355 OFFCURVE",
"409 360 OFFCURVE",
"402 360 CURVE SMOOTH",
"381 360 OFFCURVE",
"353 315 OFFCURVE",
"340 300 CURVE SMOOTH",
"298 251 OFFCURVE",
"185 139 OFFCURVE",
"119 139 CURVE SMOOTH",
"83 139 OFFCURVE",
"67 165 OFFCURVE",
"67 199 CURVE SMOOTH",
"67 283 OFFCURVE",
"144 370 OFFCURVE",
"219 401 CURVE SMOOTH",
"255 416 OFFCURVE",
"294 422 OFFCURVE",
"332 422 CURVE SMOOTH",
"361 422 OFFCURVE",
"458 415 OFFCURVE",
"458 376 CURVE SMOOTH",
"458 361 OFFCURVE",
"451 359 OFFCURVE",
"446 347 CURVE",
"448 345 LINE",
"460 348 OFFCURVE",
"484 381 OFFCURVE",
"484 393 CURVE SMOOTH",
"484 432 OFFCURVE",
"392 438 OFFCURVE",
"364 438 CURVE SMOOTH",
"314 438 OFFCURVE",
"260 429 OFFCURVE",
"214 412 CURVE SMOOTH",
"145 386 OFFCURVE",
"24 288 OFFCURVE",
"24 208 CURVE SMOOTH",
"24 156 OFFCURVE",
"72 128 OFFCURVE",
"120 128 CURVE SMOOTH",
"177 128 OFFCURVE",
"253 191 OFFCURVE",
"294 229 CURVE",
"241 158 OFFCURVE",
"140 21 OFFCURVE",
"140 -68 CURVE SMOOTH",
"140 -90 OFFCURVE",
"151 -121 OFFCURVE",
"179 -121 CURVE SMOOTH"
);
}
);
width = 441;
}
);
note = nine;
unicode = 0039;
},
{
glyphname = onesuperior;
lastChange = "2021-07-22 18:30:39 +0000";
layers = (
{
layerId = "5758FC1C-8DB2-4040-8B3F-38A5D3FE42F4";
paths = (
{
closed = 1;
nodes = (
"106 310 OFFCURVE",
"107 312 OFFCURVE",
"107 313 CURVE SMOOTH",
"108 315 OFFCURVE",
"108 317 OFFCURVE",
"108 318 CURVE",
"119 320 OFFCURVE",
"124 321 OFFCURVE",
"142 321 CURVE SMOOTH",
"146 321 OFFCURVE",
"154 320 OFFCURVE",
"160 320 CURVE SMOOTH",
"165 320 OFFCURVE",
"168 321 OFFCURVE",
"168 324 CURVE SMOOTH",
"168 329 OFFCURVE",
"143 329 OFFCURVE",
"139 329 CURVE SMOOTH",
"128 329 OFFCURVE",
"117 329 OFFCURVE",
"110 328 CURVE",
"128 374 OFFCURVE",
"160 428 OFFCURVE",
"190 468 CURVE SMOOTH",
"197 478 OFFCURVE",
"204 487 OFFCURVE",
"212 496 CURVE SMOOTH",
"214 498 OFFCURVE",
"214 499 OFFCURVE",
"214 503 CURVE SMOOTH",
"214 507 OFFCURVE",
"210 511 OFFCURVE",
"206 511 CURVE SMOOTH",
"206 511 OFFCURVE",
"205 511 OFFCURVE",
"205 511 CURVE SMOOTH",
"196 509 OFFCURVE",
"173 497 OFFCURVE",
"167 490 CURVE SMOOTH",
"154 477 OFFCURVE",
"138 467 OFFCURVE",
"123 455 CURVE SMOOTH",
"118 452 OFFCURVE",
"98 438 OFFCURVE",
"98 434 CURVE SMOOTH",
"97 432 OFFCURVE",
"99 431 OFFCURVE",
"100 431 CURVE SMOOTH",
"104 431 OFFCURVE",
"124 446 OFFCURVE",
"128 449 CURVE SMOOTH",
"138 457 OFFCURVE",
"154 466 OFFCURVE",
"164 472 CURVE",
"163 471 OFFCURVE",
"162 469 OFFCURVE",
"161 468 CURVE",
"155 457 OFFCURVE",
"149 446 OFFCURVE",
"143 435 CURVE SMOOTH",
"123 402 OFFCURVE",
"98 363 OFFCURVE",
"88 328 CURVE",
"74 328 OFFCURVE",
"59 327 OFFCURVE",
"44 327 CURVE SMOOTH",
"43 327 OFFCURVE",
"42 323 OFFCURVE",
"41 320 CURVE SMOOTH",
"41 318 OFFCURVE",
"40 311 OFFCURVE",
"43 311 CURVE SMOOTH",
"58 311 OFFCURVE",
"72 313 OFFCURVE",
"87 316 CURVE",
"88 311 OFFCURVE",
"93 310 OFFCURVE",
"102 310 CURVE SMOOTH"
);
}
);
width = 264;
}
);
unicode = 00B9;
},
{
glyphname = twosuperior;
lastChange = "2021-07-22 18:30:39 +0000";
layers = (
{
layerId = "5758FC1C-8DB2-4040-8B3F-38A5D3FE42F4";
paths = (
{
closed = 1;
nodes = (
"243 311 OFFCURVE",
"271 319 OFFCURVE",
"271 348 CURVE SMOOTH",
"271 373 OFFCURVE",
"241 381 OFFCURVE",
"229 384 CURVE SMOOTH",
"225 385 OFFCURVE",
"218 385 OFFCURVE",
"218 383 CURVE SMOOTH",
"218 382 OFFCURVE",
"220 382 OFFCURVE",
"220 382 CURVE",
"234 377 OFFCURVE",
"255 366 OFFCURVE",
"255 350 CURVE SMOOTH",
"255 335 OFFCURVE",
"233 332 OFFCURVE",
"222 332 CURVE SMOOTH",
"193 332 OFFCURVE",
"144 342 OFFCURVE",
"114 349 CURVE",
"150 367 OFFCURVE",
"256 419 OFFCURVE",
"256 469 CURVE SMOOTH",
"256 493 OFFCURVE",
"229 505 OFFCURVE",
"208 505 CURVE SMOOTH",
"185 505 OFFCURVE",
"164 499 OFFCURVE",
"151 476 CURVE",
"151 480 OFFCURVE",
"145 490 OFFCURVE",
"140 490 CURVE SMOOTH",
"138 490 OFFCURVE",
"137 490 OFFCURVE",
"136 489 CURVE SMOOTH",
"135 488 OFFCURVE",
"137 486 OFFCURVE",
"138 485 CURVE SMOOTH",
"142 480 OFFCURVE",
"138 472 OFFCURVE",
"134 465 CURVE SMOOTH",
"129 455 OFFCURVE",
"122 447 OFFCURVE",
"117 440 CURVE SMOOTH",
"116 437 OFFCURVE",
"115 432 OFFCURVE",
"120 432 CURVE SMOOTH",
"128 432 OFFCURVE",
"135 440 OFFCURVE",
"144 455 CURVE SMOOTH",
"161 482 OFFCURVE",
"183 494 OFFCURVE",
"198 494 CURVE SMOOTH",
"210 494 OFFCURVE",
"223 490 OFFCURVE",
"223 475 CURVE SMOOTH",
"223 450 OFFCURVE",
"198 422 OFFCURVE",
"182 408 CURVE SMOOTH",
"174 401 OFFCURVE",
"165 395 OFFCURVE",
"158 389 CURVE SMOOTH",
"140 377 OFFCURVE",
"122 364 OFFCURVE",
"103 354 CURVE",
"93 357 OFFCURVE",
"82 360 OFFCURVE",
"71 360 CURVE SMOOTH",
"62 360 OFFCURVE",
"50 357 OFFCURVE",
"50 345 CURVE SMOOTH",
"50 337 OFFCURVE",
"58 334 OFFCURVE",
"66 334 CURVE SMOOTH",
"78 334 OFFCURVE",
"93 340 OFFCURVE",
"104 344 CURVE",
"141 331 OFFCURVE",
"170 311 OFFCURVE",
"210 311 CURVE SMOOTH"
);
},
{
closed = 1;
nodes = (
"68 342 OFFCURVE",
"64 343 OFFCURVE",
"64 346 CURVE SMOOTH",
"64 350 OFFCURVE",
"72 352 OFFCURVE",
"75 352 CURVE SMOOTH",
"81 352 OFFCURVE",
"86 350 OFFCURVE",
"91 350 CURVE",
"84 346 OFFCURVE",
"78 342 OFFCURVE",
"71 342 CURVE SMOOTH"
);
}
);
width = 313;
}
);
unicode = 00B2;
},
